<svg width="639" height="134" viewBox="0 0 639 134" fill="none" xmlns="http://www.w3.org/2000/svg">
<g filter="url(#filter0_dddd_6972_37856)">
<rect x="17" y="3" width="605" height="72" rx="16" fill="white"/>
<rect x="17.5" y="3.5" width="604" height="71" rx="15.5" stroke="#F6F6F6"/>
<g filter="url(#filter1_d_6972_37856)">
<rect x="565.5" y="21.5" width="35" height="35" rx="7.5" fill="url(#paint0_linear_6972_37856)" stroke="url(#paint1_linear_6972_37856)" stroke-linecap="round"/>
</g>
<path d="M588.247 41.8211L589.652 37.608C590.878 33.9275 591.492 32.0873 590.52 31.1159C589.549 30.1445 587.709 30.7579 584.028 31.9847L579.815 33.3891C576.845 34.3793 575.359 34.8744 574.937 35.6004C574.536 36.291 574.536 37.144 574.937 37.8347C575.359 38.5607 576.845 39.0558 579.815 40.046C580.292 40.205 580.531 40.2845 580.73 40.4179C580.923 40.5472 581.089 40.7132 581.218 40.9064C581.352 41.1057 581.431 41.3442 581.59 41.8211C582.581 44.7916 583.076 46.2769 583.802 46.699C584.492 47.1005 585.345 47.1005 586.036 46.699C586.762 46.2769 587.257 44.7916 588.247 41.8211Z" stroke="white" stroke-width="1.5"/>
<path d="M586.36 36.3367C586.654 36.0455 586.657 35.5706 586.366 35.2761C586.075 34.9816 585.6 34.9789 585.305 35.2702L585.833 35.8035L586.36 36.3367ZM581.292 40.2935L581.82 40.8267L586.36 36.3367L585.833 35.8035L585.305 35.2702L580.765 39.7602L581.292 40.2935Z" fill="white"/>
<path d="M48.9791 45L47.9531 42.174H42.2831L41.2571 45H39.4751L44.1731 32.4H46.0631L50.7611 45H48.9791ZM42.8591 40.608H47.3771L45.1091 34.398L42.8591 40.608ZM53.3476 38.43C53.3476 38.778 53.5216 39.06 53.8696 39.276C54.2176 39.48 54.6376 39.648 55.1296 39.78C55.6216 39.9 56.1136 40.044 56.6056 40.212C57.0976 40.368 57.5176 40.644 57.8656 41.04C58.2136 41.424 58.3876 41.922 58.3876 42.534C58.3876 43.35 58.0696 44.004 57.4336 44.496C56.8096 44.988 56.0056 45.234 55.0216 45.234C54.1456 45.234 53.3956 45.042 52.7716 44.658C52.1476 44.274 51.7036 43.764 51.4396 43.128L52.7896 42.354C52.9336 42.786 53.2036 43.128 53.5996 43.38C53.9956 43.632 54.4696 43.758 55.0216 43.758C55.5376 43.758 55.9636 43.662 56.2996 43.47C56.6356 43.266 56.8036 42.954 56.8036 42.534C56.8036 42.186 56.6296 41.91 56.2816 41.706C55.9336 41.49 55.5136 41.322 55.0216 41.202C54.5296 41.07 54.0376 40.92 53.5456 40.752C53.0536 40.584 52.6336 40.308 52.2856 39.924C51.9376 39.54 51.7636 39.048 51.7636 38.448C51.7636 37.668 52.0636 37.026 52.6636 36.522C53.2756 36.018 54.0376 35.766 54.9496 35.766C55.6816 35.766 56.3296 35.934 56.8936 36.27C57.4696 36.594 57.9016 37.05 58.1896 37.638L56.8756 38.376C56.5516 37.608 55.9096 37.224 54.9496 37.224C54.5056 37.224 54.1276 37.332 53.8156 37.548C53.5036 37.752 53.3476 38.046 53.3476 38.43ZM67.7678 45H65.8238L61.7198 40.734V45H60.1538V32.4H61.7198V39.978L65.6078 36H67.6238L63.3218 40.356L67.7678 45ZM86.0361 38.754V39.51C86.0361 41.154 85.4721 42.522 84.3441 43.614C83.2161 44.694 81.7221 45.234 79.8621 45.234C77.9421 45.234 76.3521 44.604 75.0921 43.344C73.8441 42.072 73.2201 40.524 73.2201 38.7C73.2201 36.876 73.8441 35.334 75.0921 34.074C76.3521 32.802 77.9301 32.166 79.8261 32.166C80.9901 32.166 82.0581 32.448 83.0301 33.012C84.0021 33.564 84.7521 34.296 85.2801 35.208L83.8401 36.054C83.4801 35.37 82.9341 34.824 82.2021 34.416C81.4821 33.996 80.6841 33.786 79.8081 33.786C78.3681 33.786 77.1861 34.26 76.2621 35.208C75.3381 36.144 74.8761 37.308 74.8761 38.7C74.8761 40.092 75.3381 41.256 76.2621 42.192C77.1981 43.128 78.4041 43.596 79.8801 43.596C81.1401 43.596 82.1601 43.29 82.9401 42.678C83.7201 42.054 84.1941 41.25 84.3621 40.266H79.7361V38.754H86.0361ZM95.3617 36H96.9277V45H95.3617V43.452C94.5817 44.64 93.4477 45.234 91.9597 45.234C90.6997 45.234 89.6257 44.778 88.7377 43.866C87.8497 42.942 87.4057 41.82 87.4057 40.5C87.4057 39.18 87.8497 38.064 88.7377 37.152C89.6257 36.228 90.6997 35.766 91.9597 35.766C93.4477 35.766 94.5817 36.36 95.3617 37.548V36ZM92.1577 43.722C93.0697 43.722 93.8317 43.416 94.4437 42.804C95.0557 42.18 95.3617 41.412 95.3617 40.5C95.3617 39.588 95.0557 38.826 94.4437 38.214C93.8317 37.59 93.0697 37.278 92.1577 37.278C91.2577 37.278 90.5017 37.59 89.8897 38.214C89.2777 38.826 88.9717 39.588 88.9717 40.5C88.9717 41.412 89.2777 42.18 89.8897 42.804C90.5017 43.416 91.2577 43.722 92.1577 43.722ZM109.02 35.766C110.028 35.766 110.844 36.096 111.468 36.756C112.092 37.404 112.404 38.286 112.404 39.402V45H110.838V39.456C110.838 38.76 110.658 38.22 110.298 37.836C109.938 37.452 109.458 37.26 108.858 37.26C108.186 37.26 107.646 37.488 107.238 37.944C106.842 38.388 106.644 39.072 106.644 39.996V45H105.078V39.456C105.078 38.76 104.904 38.22 104.556 37.836C104.22 37.452 103.758 37.26 103.17 37.26C102.51 37.26 101.958 37.488 101.514 37.944C101.082 38.4 100.866 39.084 100.866 39.996V45H99.3003V36H100.866V37.206C101.478 36.246 102.372 35.766 103.548 35.766C104.76 35.766 105.642 36.276 106.194 37.296C106.818 36.276 107.76 35.766 109.02 35.766ZM115.674 41.22C115.83 42.024 116.196 42.648 116.772 43.092C117.36 43.536 118.08 43.758 118.932 43.758C120.12 43.758 120.984 43.32 121.524 42.444L122.856 43.2C121.98 44.556 120.66 45.234 118.896 45.234C117.468 45.234 116.304 44.79 115.404 43.902C114.516 43.002 114.072 41.868 114.072 40.5C114.072 39.144 114.51 38.016 115.386 37.116C116.262 36.216 117.396 35.766 118.788 35.766C120.108 35.766 121.182 36.234 122.01 37.17C122.85 38.094 123.27 39.21 123.27 40.518C123.27 40.746 123.252 40.98 123.216 41.22H115.674ZM118.788 37.242C117.948 37.242 117.252 37.482 116.7 37.962C116.148 38.43 115.806 39.06 115.674 39.852H121.686C121.554 39 121.218 38.352 120.678 37.908C120.138 37.464 119.508 37.242 118.788 37.242ZM129.804 32.4C130.968 32.4 131.934 32.79 132.702 33.57C133.482 34.338 133.872 35.298 133.872 36.45C133.872 37.59 133.482 38.55 132.702 39.33C131.934 40.11 130.968 40.5 129.804 40.5H126.906V45H125.232V32.4H129.804ZM129.804 38.934C130.5 38.934 131.076 38.7 131.532 38.232C131.988 37.752 132.216 37.158 132.216 36.45C132.216 35.73 131.988 35.136 131.532 34.668C131.076 34.2 130.5 33.966 129.804 33.966H126.906V38.934H129.804ZM142.453 36H144.019V45H142.453V43.452C141.673 44.64 140.539 45.234 139.051 45.234C137.791 45.234 136.717 44.778 135.829 43.866C134.941 42.942 134.497 41.82 134.497 40.5C134.497 39.18 134.941 38.064 135.829 37.152C136.717 36.228 137.791 35.766 139.051 35.766C140.539 35.766 141.673 36.36 142.453 37.548V36ZM139.249 43.722C140.161 43.722 140.923 43.416 141.535 42.804C142.147 42.18 142.453 41.412 142.453 40.5C142.453 39.588 142.147 38.826 141.535 38.214C140.923 37.59 140.161 37.278 139.249 37.278C138.349 37.278 137.593 37.59 136.981 38.214C136.369 38.826 136.063 39.588 136.063 40.5C136.063 41.412 136.369 42.18 136.981 42.804C137.593 43.416 138.349 43.722 139.249 43.722ZM150.622 45.234C149.266 45.234 148.138 44.784 147.238 43.884C146.338 42.972 145.888 41.844 145.888 40.5C145.888 39.156 146.338 38.034 147.238 37.134C148.138 36.222 149.266 35.766 150.622 35.766C151.51 35.766 152.308 35.982 153.016 36.414C153.724 36.834 154.252 37.404 154.6 38.124L153.286 38.88C153.058 38.4 152.704 38.016 152.224 37.728C151.756 37.44 151.222 37.296 150.622 37.296C149.722 37.296 148.966 37.602 148.354 38.214C147.754 38.826 147.454 39.588 147.454 40.5C147.454 41.4 147.754 42.156 148.354 42.768C148.966 43.38 149.722 43.686 150.622 43.686C151.222 43.686 151.762 43.548 152.242 43.272C152.722 42.984 153.088 42.6 153.34 42.12L154.672 42.894C154.288 43.602 153.736 44.172 153.016 44.604C152.296 45.024 151.498 45.234 150.622 45.234ZM165.632 37.512H163.238V42.39C163.238 42.834 163.322 43.152 163.49 43.344C163.67 43.524 163.94 43.62 164.3 43.632C164.66 43.632 165.104 43.62 165.632 43.596V45C164.264 45.18 163.262 45.072 162.626 44.676C161.99 44.268 161.672 43.506 161.672 42.39V37.512H159.89V36H161.672V33.948L163.238 33.48V36H165.632V37.512ZM174.625 43.866C173.701 44.778 172.579 45.234 171.259 45.234C169.939 45.234 168.817 44.778 167.893 43.866C166.981 42.954 166.525 41.832 166.525 40.5C166.525 39.168 166.981 38.046 167.893 37.134C168.817 36.222 169.939 35.766 171.259 35.766C172.579 35.766 173.701 36.222 174.625 37.134C175.549 38.046 176.011 39.168 176.011 40.5C176.011 41.832 175.549 42.954 174.625 43.866ZM171.259 43.704C172.159 43.704 172.915 43.398 173.527 42.786C174.139 42.174 174.445 41.412 174.445 40.5C174.445 39.588 174.139 38.826 173.527 38.214C172.915 37.602 172.159 37.296 171.259 37.296C170.371 37.296 169.621 37.602 169.009 38.214C168.397 38.826 168.091 39.588 168.091 40.5C168.091 41.412 168.397 42.174 169.009 42.786C169.621 43.398 170.371 43.704 171.259 43.704Z" fill="#6D6D6D"/>
<path d="M194.922 36H196.47V44.622C196.47 45.954 196.02 46.986 195.12 47.718C194.22 48.462 193.14 48.834 191.88 48.834C190.872 48.834 190.002 48.642 189.27 48.258C188.538 47.886 187.986 47.346 187.614 46.638L188.982 45.864C189.474 46.872 190.452 47.376 191.916 47.376C192.852 47.376 193.584 47.13 194.112 46.638C194.652 46.146 194.922 45.474 194.922 44.622V43.344C194.13 44.544 193.002 45.144 191.538 45.144C190.254 45.144 189.168 44.688 188.28 43.776C187.392 42.864 186.948 41.754 186.948 40.446C186.948 39.138 187.392 38.034 188.28 37.134C189.168 36.222 190.254 35.766 191.538 35.766C193.014 35.766 194.142 36.36 194.922 37.548V36ZM189.432 42.732C190.044 43.344 190.806 43.65 191.718 43.65C192.63 43.65 193.392 43.344 194.004 42.732C194.616 42.12 194.922 41.358 194.922 40.446C194.922 39.546 194.616 38.79 194.004 38.178C193.392 37.566 192.63 37.26 191.718 37.26C190.806 37.26 190.044 37.566 189.432 38.178C188.82 38.79 188.514 39.546 188.514 40.446C188.514 41.358 188.82 42.12 189.432 42.732ZM199.94 41.22C200.096 42.024 200.462 42.648 201.038 43.092C201.626 43.536 202.346 43.758 203.198 43.758C204.386 43.758 205.25 43.32 205.79 42.444L207.122 43.2C206.246 44.556 204.926 45.234 203.162 45.234C201.734 45.234 200.57 44.79 199.67 43.902C198.782 43.002 198.338 41.868 198.338 40.5C198.338 39.144 198.776 38.016 199.652 37.116C200.528 36.216 201.662 35.766 203.054 35.766C204.374 35.766 205.448 36.234 206.276 37.17C207.116 38.094 207.536 39.21 207.536 40.518C207.536 40.746 207.518 40.98 207.482 41.22H199.94ZM203.054 37.242C202.214 37.242 201.518 37.482 200.966 37.962C200.414 38.43 200.072 39.06 199.94 39.852H205.952C205.82 39 205.484 38.352 204.944 37.908C204.404 37.464 203.774 37.242 203.054 37.242ZM213.818 35.766C214.874 35.766 215.72 36.102 216.356 36.774C216.992 37.434 217.31 38.334 217.31 39.474V45H215.744V39.564C215.744 38.832 215.546 38.268 215.15 37.872C214.754 37.464 214.208 37.26 213.512 37.26C212.732 37.26 212.102 37.506 211.622 37.998C211.142 38.478 210.902 39.222 210.902 40.23V45H209.336V36H210.902V37.296C211.538 36.276 212.51 35.766 213.818 35.766ZM220.595 41.22C220.751 42.024 221.117 42.648 221.693 43.092C222.281 43.536 223.001 43.758 223.853 43.758C225.041 43.758 225.905 43.32 226.445 42.444L227.777 43.2C226.901 44.556 225.581 45.234 223.817 45.234C222.389 45.234 221.225 44.79 220.325 43.902C219.437 43.002 218.993 41.868 218.993 40.5C218.993 39.144 219.431 38.016 220.307 37.116C221.183 36.216 222.317 35.766 223.709 35.766C225.029 35.766 226.103 36.234 226.931 37.17C227.771 38.094 228.191 39.21 228.191 40.518C228.191 40.746 228.173 40.98 228.137 41.22H220.595ZM223.709 37.242C222.869 37.242 222.173 37.482 221.621 37.962C221.069 38.43 220.727 39.06 220.595 39.852H226.607C226.475 39 226.139 38.352 225.599 37.908C225.059 37.464 224.429 37.242 223.709 37.242ZM231.557 37.512C232.073 36.396 233.009 35.838 234.365 35.838V37.476C233.597 37.44 232.937 37.644 232.385 38.088C231.833 38.532 231.557 39.246 231.557 40.23V45H229.991V36H231.557V37.512ZM242.857 36H244.423V45H242.857V43.452C242.077 44.64 240.943 45.234 239.455 45.234C238.195 45.234 237.121 44.778 236.233 43.866C235.345 42.942 234.901 41.82 234.901 40.5C234.901 39.18 235.345 38.064 236.233 37.152C237.121 36.228 238.195 35.766 239.455 35.766C240.943 35.766 242.077 36.36 242.857 37.548V36ZM239.653 43.722C240.565 43.722 241.327 43.416 241.939 42.804C242.551 42.18 242.857 41.412 242.857 40.5C242.857 39.588 242.551 38.826 241.939 38.214C241.327 37.59 240.565 37.278 239.653 37.278C238.753 37.278 237.997 37.59 237.385 38.214C236.773 38.826 236.467 39.588 236.467 40.5C236.467 41.412 236.773 42.18 237.385 42.804C237.997 43.416 238.753 43.722 239.653 43.722ZM251.691 37.512H249.297V42.39C249.297 42.834 249.381 43.152 249.549 43.344C249.729 43.524 249.999 43.62 250.359 43.632C250.719 43.632 251.163 43.62 251.691 43.596V45C250.323 45.18 249.321 45.072 248.685 44.676C248.049 44.268 247.731 43.506 247.731 42.39V37.512H245.949V36H247.731V33.948L249.297 33.48V36H251.691V37.512ZM254.186 41.22C254.342 42.024 254.708 42.648 255.284 43.092C255.872 43.536 256.592 43.758 257.444 43.758C258.632 43.758 259.496 43.32 260.036 42.444L261.368 43.2C260.492 44.556 259.172 45.234 257.408 45.234C255.98 45.234 254.816 44.79 253.916 43.902C253.028 43.002 252.584 41.868 252.584 40.5C252.584 39.144 253.022 38.016 253.898 37.116C254.774 36.216 255.908 35.766 257.3 35.766C258.62 35.766 259.694 36.234 260.522 37.17C261.362 38.094 261.782 39.21 261.782 40.518C261.782 40.746 261.764 40.98 261.728 41.22H254.186ZM257.3 37.242C256.46 37.242 255.764 37.482 255.212 37.962C254.66 38.43 254.318 39.06 254.186 39.852H260.198C260.066 39 259.73 38.352 259.19 37.908C258.65 37.464 258.02 37.242 257.3 37.242ZM275.535 36H277.101V45H275.535V43.452C274.755 44.64 273.621 45.234 272.133 45.234C270.873 45.234 269.799 44.778 268.911 43.866C268.023 42.942 267.579 41.82 267.579 40.5C267.579 39.18 268.023 38.064 268.911 37.152C269.799 36.228 270.873 35.766 272.133 35.766C273.621 35.766 274.755 36.36 275.535 37.548V36ZM272.331 43.722C273.243 43.722 274.005 43.416 274.617 42.804C275.229 42.18 275.535 41.412 275.535 40.5C275.535 39.588 275.229 38.826 274.617 38.214C274.005 37.59 273.243 37.278 272.331 37.278C271.431 37.278 270.675 37.59 270.063 38.214C269.451 38.826 269.145 39.588 269.145 40.5C269.145 41.412 269.451 42.18 270.063 42.804C270.675 43.416 271.431 43.722 272.331 43.722ZM291.425 32.4H292.991V45H291.425V43.452C290.645 44.64 289.511 45.234 288.023 45.234C286.763 45.234 285.689 44.778 284.801 43.866C283.913 42.942 283.469 41.82 283.469 40.5C283.469 39.18 283.913 38.064 284.801 37.152C285.689 36.228 286.763 35.766 288.023 35.766C289.511 35.766 290.645 36.36 291.425 37.548V32.4ZM288.221 43.722C289.133 43.722 289.895 43.416 290.507 42.804C291.119 42.18 291.425 41.412 291.425 40.5C291.425 39.588 291.119 38.826 290.507 38.214C289.895 37.59 289.133 37.278 288.221 37.278C287.321 37.278 286.565 37.59 285.953 38.214C285.341 38.826 285.035 39.588 285.035 40.5C285.035 41.412 285.341 42.18 285.953 42.804C286.565 43.416 287.321 43.722 288.221 43.722ZM296.462 41.22C296.618 42.024 296.984 42.648 297.56 43.092C298.148 43.536 298.868 43.758 299.72 43.758C300.908 43.758 301.772 43.32 302.312 42.444L303.644 43.2C302.768 44.556 301.448 45.234 299.684 45.234C298.256 45.234 297.092 44.79 296.192 43.902C295.304 43.002 294.86 41.868 294.86 40.5C294.86 39.144 295.298 38.016 296.174 37.116C297.05 36.216 298.184 35.766 299.576 35.766C300.896 35.766 301.97 36.234 302.798 37.17C303.638 38.094 304.058 39.21 304.058 40.518C304.058 40.746 304.04 40.98 304.004 41.22H296.462ZM299.576 37.242C298.736 37.242 298.04 37.482 297.488 37.962C296.936 38.43 296.594 39.06 296.462 39.852H302.474C302.342 39 302.006 38.352 301.466 37.908C300.926 37.464 300.296 37.242 299.576 37.242ZM310.49 37.512H308.096V42.39C308.096 42.834 308.18 43.152 308.348 43.344C308.528 43.524 308.798 43.62 309.158 43.632C309.518 43.632 309.962 43.62 310.49 43.596V45C309.122 45.18 308.12 45.072 307.484 44.676C306.848 44.268 306.53 43.506 306.53 42.39V37.512H304.748V36H306.53V33.948L308.096 33.48V36H310.49V37.512ZM319.339 36H320.905V45H319.339V43.452C318.559 44.64 317.425 45.234 315.937 45.234C314.677 45.234 313.603 44.778 312.715 43.866C311.827 42.942 311.383 41.82 311.383 40.5C311.383 39.18 311.827 38.064 312.715 37.152C313.603 36.228 314.677 35.766 315.937 35.766C317.425 35.766 318.559 36.36 319.339 37.548V36ZM316.135 43.722C317.047 43.722 317.809 43.416 318.421 42.804C319.033 42.18 319.339 41.412 319.339 40.5C319.339 39.588 319.033 38.826 318.421 38.214C317.809 37.59 317.047 37.278 316.135 37.278C315.235 37.278 314.479 37.59 313.867 38.214C313.255 38.826 312.949 39.588 312.949 40.5C312.949 41.412 313.255 42.18 313.867 42.804C314.479 43.416 315.235 43.722 316.135 43.722ZM324.07 34.362C323.77 34.362 323.518 34.26 323.314 34.056C323.11 33.852 323.008 33.606 323.008 33.318C323.008 33.03 323.11 32.784 323.314 32.58C323.518 32.364 323.77 32.256 324.07 32.256C324.358 32.256 324.604 32.364 324.808 32.58C325.012 32.784 325.114 33.03 325.114 33.318C325.114 33.606 325.012 33.852 324.808 34.056C324.604 34.26 324.358 34.362 324.07 34.362ZM323.278 45V36H324.844V45H323.278ZM327.233 45V31.86H328.799V45H327.233ZM332.286 41.22C332.442 42.024 332.808 42.648 333.384 43.092C333.972 43.536 334.692 43.758 335.544 43.758C336.732 43.758 337.596 43.32 338.136 42.444L339.468 43.2C338.592 44.556 337.272 45.234 335.508 45.234C334.08 45.234 332.916 44.79 332.016 43.902C331.128 43.002 330.684 41.868 330.684 40.5C330.684 39.144 331.122 38.016 331.998 37.116C332.874 36.216 334.008 35.766 335.4 35.766C336.72 35.766 337.794 36.234 338.622 37.17C339.462 38.094 339.882 39.21 339.882 40.518C339.882 40.746 339.864 40.98 339.828 41.22H332.286ZM335.4 37.242C334.56 37.242 333.864 37.482 333.312 37.962C332.76 38.43 332.418 39.06 332.286 39.852H338.298C338.166 39 337.83 38.352 337.29 37.908C336.75 37.464 336.12 37.242 335.4 37.242ZM349.117 32.4H350.683V45H349.117V43.452C348.337 44.64 347.203 45.234 345.715 45.234C344.455 45.234 343.381 44.778 342.493 43.866C341.605 42.942 341.161 41.82 341.161 40.5C341.161 39.18 341.605 38.064 342.493 37.152C343.381 36.228 344.455 35.766 345.715 35.766C347.203 35.766 348.337 36.36 349.117 37.548V32.4ZM345.913 43.722C346.825 43.722 347.587 43.416 348.199 42.804C348.811 42.18 349.117 41.412 349.117 40.5C349.117 39.588 348.811 38.826 348.199 38.214C347.587 37.59 346.825 37.278 345.913 37.278C345.013 37.278 344.257 37.59 343.645 38.214C343.033 38.826 342.727 39.588 342.727 40.5C342.727 41.412 343.033 42.18 343.645 42.804C344.257 43.416 345.013 43.722 345.913 43.722ZM359.121 37.512C359.637 36.396 360.573 35.838 361.929 35.838V37.476C361.161 37.44 360.501 37.644 359.949 38.088C359.397 38.532 359.121 39.246 359.121 40.23V45H357.555V36H359.121V37.512ZM364.067 41.22C364.223 42.024 364.589 42.648 365.165 43.092C365.753 43.536 366.473 43.758 367.325 43.758C368.513 43.758 369.377 43.32 369.917 42.444L371.249 43.2C370.373 44.556 369.053 45.234 367.289 45.234C365.861 45.234 364.697 44.79 363.797 43.902C362.909 43.002 362.465 41.868 362.465 40.5C362.465 39.144 362.903 38.016 363.779 37.116C364.655 36.216 365.789 35.766 367.181 35.766C368.501 35.766 369.575 36.234 370.403 37.17C371.243 38.094 371.663 39.21 371.663 40.518C371.663 40.746 371.645 40.98 371.609 41.22H364.067ZM367.181 37.242C366.341 37.242 365.645 37.482 365.093 37.962C364.541 38.43 364.199 39.06 364.067 39.852H370.079C369.947 39 369.611 38.352 369.071 37.908C368.531 37.464 367.901 37.242 367.181 37.242ZM379.412 36H381.104L377.504 45H375.668L372.068 36H373.76L376.586 43.326L379.412 36ZM383.22 34.362C382.92 34.362 382.668 34.26 382.464 34.056C382.26 33.852 382.158 33.606 382.158 33.318C382.158 33.03 382.26 32.784 382.464 32.58C382.668 32.364 382.92 32.256 383.22 32.256C383.508 32.256 383.754 32.364 383.958 32.58C384.162 32.784 384.264 33.03 384.264 33.318C384.264 33.606 384.162 33.852 383.958 34.056C383.754 34.26 383.508 34.362 383.22 34.362ZM382.428 45V36H383.994V45H382.428ZM387.481 41.22C387.637 42.024 388.003 42.648 388.579 43.092C389.167 43.536 389.887 43.758 390.739 43.758C391.927 43.758 392.791 43.32 393.331 42.444L394.663 43.2C393.787 44.556 392.467 45.234 390.703 45.234C389.275 45.234 388.111 44.79 387.211 43.902C386.323 43.002 385.879 41.868 385.879 40.5C385.879 39.144 386.317 38.016 387.193 37.116C388.069 36.216 389.203 35.766 390.595 35.766C391.915 35.766 392.989 36.234 393.817 37.17C394.657 38.094 395.077 39.21 395.077 40.518C395.077 40.746 395.059 40.98 395.023 41.22H387.481ZM390.595 37.242C389.755 37.242 389.059 37.482 388.507 37.962C387.955 38.43 387.613 39.06 387.481 39.852H393.493C393.361 39 393.025 38.352 392.485 37.908C391.945 37.464 391.315 37.242 390.595 37.242ZM407.128 36H408.766L405.976 45H404.374L402.268 38.34L400.162 45H398.56L395.77 36H397.408L399.388 42.84L401.512 36H403.024L405.148 42.858L407.128 36ZM416.443 37.512C416.959 36.396 417.895 35.838 419.251 35.838V37.476C418.483 37.44 417.823 37.644 417.271 38.088C416.719 38.532 416.443 39.246 416.443 40.23V45H414.877V36H416.443V37.512ZM421.39 41.22C421.546 42.024 421.912 42.648 422.488 43.092C423.076 43.536 423.796 43.758 424.648 43.758C425.836 43.758 426.7 43.32 427.24 42.444L428.572 43.2C427.696 44.556 426.376 45.234 424.612 45.234C423.184 45.234 422.02 44.79 421.12 43.902C420.232 43.002 419.788 41.868 419.788 40.5C419.788 39.144 420.226 38.016 421.102 37.116C421.978 36.216 423.112 35.766 424.504 35.766C425.824 35.766 426.898 36.234 427.726 37.17C428.566 38.094 428.986 39.21 428.986 40.518C428.986 40.746 428.968 40.98 428.932 41.22H421.39ZM424.504 37.242C423.664 37.242 422.968 37.482 422.416 37.962C421.864 38.43 421.522 39.06 421.39 39.852H427.402C427.27 39 426.934 38.352 426.394 37.908C425.854 37.464 425.224 37.242 424.504 37.242ZM435.754 35.766C437.014 35.766 438.088 36.228 438.976 37.152C439.864 38.064 440.308 39.18 440.308 40.5C440.308 41.82 439.864 42.942 438.976 43.866C438.088 44.778 437.014 45.234 435.754 45.234C434.266 45.234 433.132 44.64 432.352 43.452V48.6H430.786V36H432.352V37.548C433.132 36.36 434.266 35.766 435.754 35.766ZM435.556 43.722C436.456 43.722 437.212 43.416 437.824 42.804C438.436 42.18 438.742 41.412 438.742 40.5C438.742 39.588 438.436 38.826 437.824 38.214C437.212 37.59 436.456 37.278 435.556 37.278C434.644 37.278 433.882 37.59 433.27 38.214C432.658 38.826 432.352 39.588 432.352 40.5C432.352 41.412 432.658 42.18 433.27 42.804C433.882 43.416 434.644 43.722 435.556 43.722ZM449.772 43.866C448.848 44.778 447.726 45.234 446.406 45.234C445.086 45.234 443.964 44.778 443.04 43.866C442.128 42.954 441.672 41.832 441.672 40.5C441.672 39.168 442.128 38.046 443.04 37.134C443.964 36.222 445.086 35.766 446.406 35.766C447.726 35.766 448.848 36.222 449.772 37.134C450.696 38.046 451.158 39.168 451.158 40.5C451.158 41.832 450.696 42.954 449.772 43.866ZM446.406 43.704C447.306 43.704 448.062 43.398 448.674 42.786C449.286 42.174 449.592 41.412 449.592 40.5C449.592 39.588 449.286 38.826 448.674 38.214C448.062 37.602 447.306 37.296 446.406 37.296C445.518 37.296 444.768 37.602 444.156 38.214C443.544 38.826 443.238 39.588 443.238 40.5C443.238 41.412 443.544 42.174 444.156 42.786C444.768 43.398 445.518 43.704 446.406 43.704ZM454.57 37.512C455.086 36.396 456.022 35.838 457.378 35.838V37.476C456.61 37.44 455.95 37.644 455.398 38.088C454.846 38.532 454.57 39.246 454.57 40.23V45H453.004V36H454.57V37.512ZM464.018 37.512H461.624V42.39C461.624 42.834 461.708 43.152 461.876 43.344C462.056 43.524 462.326 43.62 462.686 43.632C463.046 43.632 463.49 43.62 464.018 43.596V45C462.65 45.18 461.648 45.072 461.012 44.676C460.376 44.268 460.058 43.506 460.058 42.39V37.512H458.276V36H460.058V33.948L461.624 33.48V36H464.018V37.512Z" fill="#141414"/>
</g>
<defs>
<filter id="filter0_dddd_6972_37856" x="0" y="0" width="639" height="134" filterUnits="userSpaceOnUse" color-interpolation-filters="sRGB">
<feFlood flood-opacity="0" result="BackgroundImageFix"/>
<feColorMatrix in="SourceAlpha" type="matrix" values="0 0 0 0 0 0 0 0 0 0 0 0 0 0 0 0 0 0 127 0" result="hardAlpha"/>
<feOffset dy="3"/>
<feGaussianBlur stdDeviation="3"/>
<feColorMatrix type="matrix" values="0 0 0 0 0 0 0 0 0 0 0 0 0 0 0 0 0 0 0.1 0"/>
<feBlend mode="normal" in2="BackgroundImageFix" result="effect1_dropShadow_6972_37856"/>
<feColorMatrix in="SourceAlpha" type="matrix" values="0 0 0 0 0 0 0 0 0 0 0 0 0 0 0 0 0 0 127 0" result="hardAlpha"/>
<feOffset dy="11"/>
<feGaussianBlur stdDeviation="5.5"/>
<feColorMatrix type="matrix" values="0 0 0 0 0 0 0 0 0 0 0 0 0 0 0 0 0 0 0.09 0"/>
<feBlend mode="normal" in2="effect1_dropShadow_6972_37856" result="effect2_dropShadow_6972_37856"/>
<feColorMatrix in="SourceAlpha" type="matrix" values="0 0 0 0 0 0 0 0 0 0 0 0 0 0 0 0 0 0 127 0" result="hardAlpha"/>
<feOffset dy="24"/>
<feGaussianBlur stdDeviation="7"/>
<feColorMatrix type="matrix" values="0 0 0 0 0 0 0 0 0 0 0 0 0 0 0 0 0 0 0.05 0"/>
<feBlend mode="normal" in2="effect2_dropShadow_6972_37856" result="effect3_dropShadow_6972_37856"/>
<feColorMatrix in="SourceAlpha" type="matrix" values="0 0 0 0 0 0 0 0 0 0 0 0 0 0 0 0 0 0 127 0" result="hardAlpha"/>
<feOffset dy="42"/>
<feGaussianBlur stdDeviation="8.5"/>
<feColorMatrix type="matrix" values="0 0 0 0 0 0 0 0 0 0 0 0 0 0 0 0 0 0 0.01 0"/>
<feBlend mode="normal" in2="effect3_dropShadow_6972_37856" result="effect4_dropShadow_6972_37856"/>
<feBlend mode="normal" in="SourceGraphic" in2="effect4_dropShadow_6972_37856" result="shape"/>
</filter>
<filter id="filter1_d_6972_37856" x="565" y="21" width="36" height="36" filterUnits="userSpaceOnUse" color-interpolation-filters="sRGB">
<feFlood flood-opacity="0" result="BackgroundImageFix"/>
<feColorMatrix in="SourceAlpha" type="matrix" values="0 0 0 0 0 0 0 0 0 0 0 0 0 0 0 0 0 0 127 0" result="hardAlpha"/>
<feOffset/>
<feComposite in2="hardAlpha" operator="out"/>
<feColorMatrix type="matrix" values="0 0 0 0 0.121569 0 0 0 0 0.403922 0 0 0 0 0.266667 0 0 0 1 0"/>
<feBlend mode="normal" in2="BackgroundImageFix" result="effect1_dropShadow_6972_37856"/>
<feBlend mode="normal" in="SourceGraphic" in2="effect1_dropShadow_6972_37856" result="shape"/>
</filter>
<linearGradient id="paint0_linear_6972_37856" x1="589.136" y1="55.7727" x2="569.091" y2="16.9091" gradientUnits="userSpaceOnUse">
<stop stop-color="#11A85F"/>
<stop offset="1" stop-color="#1F6744"/>
</linearGradient>
<linearGradient id="paint1_linear_6972_37856" x1="583" y1="21" x2="583" y2="57" gradientUnits="userSpaceOnUse">
<stop stop-color="white" stop-opacity="0.3"/>
<stop offset="1" stop-color="white" stop-opacity="0"/>
</linearGradient>
</defs>
</svg>
