<svg width="639" height="134" viewBox="0 0 639 134" fill="none" xmlns="http://www.w3.org/2000/svg">
<g filter="url(#filter0_dddd_6972_37854)">
<rect x="17" y="3" width="605" height="72" rx="16" fill="white"/>
<rect x="17.5" y="3.5" width="604" height="71" rx="15.5" stroke="#F6F6F6"/>
<g filter="url(#filter1_d_6972_37854)">
<rect x="565.5" y="21.5" width="35" height="35" rx="7.5" fill="url(#paint0_linear_6972_37854)" stroke="url(#paint1_linear_6972_37854)" stroke-linecap="round"/>
</g>
<path d="M588.247 41.8211L589.652 37.608C590.878 33.9275 591.492 32.0873 590.52 31.1159C589.549 30.1445 587.709 30.7579 584.028 31.9847L579.815 33.3891C576.845 34.3793 575.359 34.8744 574.937 35.6004C574.536 36.291 574.536 37.144 574.937 37.8347C575.359 38.5607 576.845 39.0558 579.815 40.046C580.292 40.205 580.531 40.2845 580.73 40.4179C580.923 40.5472 581.089 40.7132 581.218 40.9064C581.352 41.1057 581.431 41.3442 581.59 41.8211C582.581 44.7916 583.076 46.2769 583.802 46.699C584.492 47.1005 585.345 47.1005 586.036 46.699C586.762 46.2769 587.257 44.7916 588.247 41.8211Z" stroke="white" stroke-width="1.5"/>
<path d="M586.36 36.3367C586.654 36.0455 586.657 35.5706 586.366 35.2761C586.075 34.9816 585.6 34.9789 585.305 35.2702L585.833 35.8035L586.36 36.3367ZM581.292 40.2935L581.82 40.8267L586.36 36.3367L585.833 35.8035L585.305 35.2702L580.765 39.7602L581.292 40.2935Z" fill="white"/>
<path d="M48.9791 45L47.9531 42.174H42.2831L41.2571 45H39.4751L44.1731 32.4H46.0631L50.7611 45H48.9791ZM42.8591 40.608H47.3771L45.1091 34.398L42.8591 40.608ZM53.3476 38.43C53.3476 38.778 53.5216 39.06 53.8696 39.276C54.2176 39.48 54.6376 39.648 55.1296 39.78C55.6216 39.9 56.1136 40.044 56.6056 40.212C57.0976 40.368 57.5176 40.644 57.8656 41.04C58.2136 41.424 58.3876 41.922 58.3876 42.534C58.3876 43.35 58.0696 44.004 57.4336 44.496C56.8096 44.988 56.0056 45.234 55.0216 45.234C54.1456 45.234 53.3956 45.042 52.7716 44.658C52.1476 44.274 51.7036 43.764 51.4396 43.128L52.7896 42.354C52.9336 42.786 53.2036 43.128 53.5996 43.38C53.9956 43.632 54.4696 43.758 55.0216 43.758C55.5376 43.758 55.9636 43.662 56.2996 43.47C56.6356 43.266 56.8036 42.954 56.8036 42.534C56.8036 42.186 56.6296 41.91 56.2816 41.706C55.9336 41.49 55.5136 41.322 55.0216 41.202C54.5296 41.07 54.0376 40.92 53.5456 40.752C53.0536 40.584 52.6336 40.308 52.2856 39.924C51.9376 39.54 51.7636 39.048 51.7636 38.448C51.7636 37.668 52.0636 37.026 52.6636 36.522C53.2756 36.018 54.0376 35.766 54.9496 35.766C55.6816 35.766 56.3296 35.934 56.8936 36.27C57.4696 36.594 57.9016 37.05 58.1896 37.638L56.8756 38.376C56.5516 37.608 55.9096 37.224 54.9496 37.224C54.5056 37.224 54.1276 37.332 53.8156 37.548C53.5036 37.752 53.3476 38.046 53.3476 38.43ZM67.7678 45H65.8238L61.7198 40.734V45H60.1538V32.4H61.7198V39.978L65.6078 36H67.6238L63.3218 40.356L67.7678 45ZM86.0361 38.754V39.51C86.0361 41.154 85.4721 42.522 84.3441 43.614C83.2161 44.694 81.7221 45.234 79.8621 45.234C77.9421 45.234 76.3521 44.604 75.0921 43.344C73.8441 42.072 73.2201 40.524 73.2201 38.7C73.2201 36.876 73.8441 35.334 75.0921 34.074C76.3521 32.802 77.9301 32.166 79.8261 32.166C80.9901 32.166 82.0581 32.448 83.0301 33.012C84.0021 33.564 84.7521 34.296 85.2801 35.208L83.8401 36.054C83.4801 35.37 82.9341 34.824 82.2021 34.416C81.4821 33.996 80.6841 33.786 79.8081 33.786C78.3681 33.786 77.1861 34.26 76.2621 35.208C75.3381 36.144 74.8761 37.308 74.8761 38.7C74.8761 40.092 75.3381 41.256 76.2621 42.192C77.1981 43.128 78.4041 43.596 79.8801 43.596C81.1401 43.596 82.1601 43.29 82.9401 42.678C83.7201 42.054 84.1941 41.25 84.3621 40.266H79.7361V38.754H86.0361ZM95.3617 36H96.9277V45H95.3617V43.452C94.5817 44.64 93.4477 45.234 91.9597 45.234C90.6997 45.234 89.6257 44.778 88.7377 43.866C87.8497 42.942 87.4057 41.82 87.4057 40.5C87.4057 39.18 87.8497 38.064 88.7377 37.152C89.6257 36.228 90.6997 35.766 91.9597 35.766C93.4477 35.766 94.5817 36.36 95.3617 37.548V36ZM92.1577 43.722C93.0697 43.722 93.8317 43.416 94.4437 42.804C95.0557 42.18 95.3617 41.412 95.3617 40.5C95.3617 39.588 95.0557 38.826 94.4437 38.214C93.8317 37.59 93.0697 37.278 92.1577 37.278C91.2577 37.278 90.5017 37.59 89.8897 38.214C89.2777 38.826 88.9717 39.588 88.9717 40.5C88.9717 41.412 89.2777 42.18 89.8897 42.804C90.5017 43.416 91.2577 43.722 92.1577 43.722ZM109.02 35.766C110.028 35.766 110.844 36.096 111.468 36.756C112.092 37.404 112.404 38.286 112.404 39.402V45H110.838V39.456C110.838 38.76 110.658 38.22 110.298 37.836C109.938 37.452 109.458 37.26 108.858 37.26C108.186 37.26 107.646 37.488 107.238 37.944C106.842 38.388 106.644 39.072 106.644 39.996V45H105.078V39.456C105.078 38.76 104.904 38.22 104.556 37.836C104.22 37.452 103.758 37.26 103.17 37.26C102.51 37.26 101.958 37.488 101.514 37.944C101.082 38.4 100.866 39.084 100.866 39.996V45H99.3003V36H100.866V37.206C101.478 36.246 102.372 35.766 103.548 35.766C104.76 35.766 105.642 36.276 106.194 37.296C106.818 36.276 107.76 35.766 109.02 35.766ZM115.674 41.22C115.83 42.024 116.196 42.648 116.772 43.092C117.36 43.536 118.08 43.758 118.932 43.758C120.12 43.758 120.984 43.32 121.524 42.444L122.856 43.2C121.98 44.556 120.66 45.234 118.896 45.234C117.468 45.234 116.304 44.79 115.404 43.902C114.516 43.002 114.072 41.868 114.072 40.5C114.072 39.144 114.51 38.016 115.386 37.116C116.262 36.216 117.396 35.766 118.788 35.766C120.108 35.766 121.182 36.234 122.01 37.17C122.85 38.094 123.27 39.21 123.27 40.518C123.27 40.746 123.252 40.98 123.216 41.22H115.674ZM118.788 37.242C117.948 37.242 117.252 37.482 116.7 37.962C116.148 38.43 115.806 39.06 115.674 39.852H121.686C121.554 39 121.218 38.352 120.678 37.908C120.138 37.464 119.508 37.242 118.788 37.242ZM129.804 32.4C130.968 32.4 131.934 32.79 132.702 33.57C133.482 34.338 133.872 35.298 133.872 36.45C133.872 37.59 133.482 38.55 132.702 39.33C131.934 40.11 130.968 40.5 129.804 40.5H126.906V45H125.232V32.4H129.804ZM129.804 38.934C130.5 38.934 131.076 38.7 131.532 38.232C131.988 37.752 132.216 37.158 132.216 36.45C132.216 35.73 131.988 35.136 131.532 34.668C131.076 34.2 130.5 33.966 129.804 33.966H126.906V38.934H129.804ZM142.453 36H144.019V45H142.453V43.452C141.673 44.64 140.539 45.234 139.051 45.234C137.791 45.234 136.717 44.778 135.829 43.866C134.941 42.942 134.497 41.82 134.497 40.5C134.497 39.18 134.941 38.064 135.829 37.152C136.717 36.228 137.791 35.766 139.051 35.766C140.539 35.766 141.673 36.36 142.453 37.548V36ZM139.249 43.722C140.161 43.722 140.923 43.416 141.535 42.804C142.147 42.18 142.453 41.412 142.453 40.5C142.453 39.588 142.147 38.826 141.535 38.214C140.923 37.59 140.161 37.278 139.249 37.278C138.349 37.278 137.593 37.59 136.981 38.214C136.369 38.826 136.063 39.588 136.063 40.5C136.063 41.412 136.369 42.18 136.981 42.804C137.593 43.416 138.349 43.722 139.249 43.722ZM150.622 45.234C149.266 45.234 148.138 44.784 147.238 43.884C146.338 42.972 145.888 41.844 145.888 40.5C145.888 39.156 146.338 38.034 147.238 37.134C148.138 36.222 149.266 35.766 150.622 35.766C151.51 35.766 152.308 35.982 153.016 36.414C153.724 36.834 154.252 37.404 154.6 38.124L153.286 38.88C153.058 38.4 152.704 38.016 152.224 37.728C151.756 37.44 151.222 37.296 150.622 37.296C149.722 37.296 148.966 37.602 148.354 38.214C147.754 38.826 147.454 39.588 147.454 40.5C147.454 41.4 147.754 42.156 148.354 42.768C148.966 43.38 149.722 43.686 150.622 43.686C151.222 43.686 151.762 43.548 152.242 43.272C152.722 42.984 153.088 42.6 153.34 42.12L154.672 42.894C154.288 43.602 153.736 44.172 153.016 44.604C152.296 45.024 151.498 45.234 150.622 45.234ZM165.632 37.512H163.238V42.39C163.238 42.834 163.322 43.152 163.49 43.344C163.67 43.524 163.94 43.62 164.3 43.632C164.66 43.632 165.104 43.62 165.632 43.596V45C164.264 45.18 163.262 45.072 162.626 44.676C161.99 44.268 161.672 43.506 161.672 42.39V37.512H159.89V36H161.672V33.948L163.238 33.48V36H165.632V37.512ZM174.625 43.866C173.701 44.778 172.579 45.234 171.259 45.234C169.939 45.234 168.817 44.778 167.893 43.866C166.981 42.954 166.525 41.832 166.525 40.5C166.525 39.168 166.981 38.046 167.893 37.134C168.817 36.222 169.939 35.766 171.259 35.766C172.579 35.766 173.701 36.222 174.625 37.134C175.549 38.046 176.011 39.168 176.011 40.5C176.011 41.832 175.549 42.954 174.625 43.866ZM171.259 43.704C172.159 43.704 172.915 43.398 173.527 42.786C174.139 42.174 174.445 41.412 174.445 40.5C174.445 39.588 174.139 38.826 173.527 38.214C172.915 37.602 172.159 37.296 171.259 37.296C170.371 37.296 169.621 37.602 169.009 38.214C168.397 38.826 168.091 39.588 168.091 40.5C168.091 41.412 168.397 42.174 169.009 42.786C169.621 43.398 170.371 43.704 171.259 43.704Z" fill="#6D6D6D"/>
<path d="M191.834 45.234C190.478 45.234 189.35 44.784 188.45 43.884C187.55 42.972 187.1 41.844 187.1 40.5C187.1 39.156 187.55 38.034 188.45 37.134C189.35 36.222 190.478 35.766 191.834 35.766C192.722 35.766 193.52 35.982 194.228 36.414C194.936 36.834 195.464 37.404 195.812 38.124L194.498 38.88C194.27 38.4 193.916 38.016 193.436 37.728C192.968 37.44 192.434 37.296 191.834 37.296C190.934 37.296 190.178 37.602 189.566 38.214C188.966 38.826 188.666 39.588 188.666 40.5C188.666 41.4 188.966 42.156 189.566 42.768C190.178 43.38 190.934 43.686 191.834 43.686C192.434 43.686 192.974 43.548 193.454 43.272C193.934 42.984 194.3 42.6 194.552 42.12L195.884 42.894C195.5 43.602 194.948 44.172 194.228 44.604C193.508 45.024 192.71 45.234 191.834 45.234ZM204.903 43.866C203.979 44.778 202.857 45.234 201.537 45.234C200.217 45.234 199.095 44.778 198.171 43.866C197.259 42.954 196.803 41.832 196.803 40.5C196.803 39.168 197.259 38.046 198.171 37.134C199.095 36.222 200.217 35.766 201.537 35.766C202.857 35.766 203.979 36.222 204.903 37.134C205.827 38.046 206.289 39.168 206.289 40.5C206.289 41.832 205.827 42.954 204.903 43.866ZM201.537 43.704C202.437 43.704 203.193 43.398 203.805 42.786C204.417 42.174 204.723 41.412 204.723 40.5C204.723 39.588 204.417 38.826 203.805 38.214C203.193 37.602 202.437 37.296 201.537 37.296C200.649 37.296 199.899 37.602 199.287 38.214C198.675 38.826 198.369 39.588 198.369 40.5C198.369 41.412 198.675 42.174 199.287 42.786C199.899 43.398 200.649 43.704 201.537 43.704ZM212.617 35.766C213.673 35.766 214.519 36.102 215.155 36.774C215.791 37.434 216.109 38.334 216.109 39.474V45H214.543V39.564C214.543 38.832 214.345 38.268 213.949 37.872C213.553 37.464 213.007 37.26 212.311 37.26C211.531 37.26 210.901 37.506 210.421 37.998C209.941 38.478 209.701 39.222 209.701 40.23V45H208.135V36H209.701V37.296C210.337 36.276 211.309 35.766 212.617 35.766ZM225.747 32.4H227.313V45H225.747V43.452C224.967 44.64 223.833 45.234 222.345 45.234C221.085 45.234 220.011 44.778 219.123 43.866C218.235 42.942 217.791 41.82 217.791 40.5C217.791 39.18 218.235 38.064 219.123 37.152C220.011 36.228 221.085 35.766 222.345 35.766C223.833 35.766 224.967 36.36 225.747 37.548V32.4ZM222.543 43.722C223.455 43.722 224.217 43.416 224.829 42.804C225.441 42.18 225.747 41.412 225.747 40.5C225.747 39.588 225.441 38.826 224.829 38.214C224.217 37.59 223.455 37.278 222.543 37.278C221.643 37.278 220.887 37.59 220.275 38.214C219.663 38.826 219.357 39.588 219.357 40.5C219.357 41.412 219.663 42.18 220.275 42.804C220.887 43.416 221.643 43.722 222.543 43.722ZM235.896 36H237.462V45H235.896V43.704C235.26 44.724 234.288 45.234 232.98 45.234C231.924 45.234 231.078 44.904 230.442 44.244C229.806 43.572 229.488 42.666 229.488 41.526V36H231.054V41.436C231.054 42.168 231.252 42.738 231.648 43.146C232.044 43.542 232.59 43.74 233.286 43.74C234.066 43.74 234.696 43.5 235.176 43.02C235.656 42.528 235.896 41.778 235.896 40.77V36ZM244.076 45.234C242.72 45.234 241.592 44.784 240.692 43.884C239.792 42.972 239.342 41.844 239.342 40.5C239.342 39.156 239.792 38.034 240.692 37.134C241.592 36.222 242.72 35.766 244.076 35.766C244.964 35.766 245.762 35.982 246.47 36.414C247.178 36.834 247.706 37.404 248.054 38.124L246.74 38.88C246.512 38.4 246.158 38.016 245.678 37.728C245.21 37.44 244.676 37.296 244.076 37.296C243.176 37.296 242.42 37.602 241.808 38.214C241.208 38.826 240.908 39.588 240.908 40.5C240.908 41.4 241.208 42.156 241.808 42.768C242.42 43.38 243.176 43.686 244.076 43.686C244.676 43.686 245.216 43.548 245.696 43.272C246.176 42.984 246.542 42.6 246.794 42.12L248.126 42.894C247.742 43.602 247.19 44.172 246.47 44.604C245.75 45.024 244.952 45.234 244.076 45.234ZM254.568 37.512H252.174V42.39C252.174 42.834 252.258 43.152 252.426 43.344C252.606 43.524 252.876 43.62 253.236 43.632C253.596 43.632 254.04 43.62 254.568 43.596V45C253.2 45.18 252.198 45.072 251.562 44.676C250.926 44.268 250.608 43.506 250.608 42.39V37.512H248.826V36H250.608V33.948L252.174 33.48V36H254.568V37.512ZM268.427 36H269.993V45H268.427V43.452C267.647 44.64 266.513 45.234 265.025 45.234C263.765 45.234 262.691 44.778 261.803 43.866C260.915 42.942 260.471 41.82 260.471 40.5C260.471 39.18 260.915 38.064 261.803 37.152C262.691 36.228 263.765 35.766 265.025 35.766C266.513 35.766 267.647 36.36 268.427 37.548V36ZM265.223 43.722C266.135 43.722 266.897 43.416 267.509 42.804C268.121 42.18 268.427 41.412 268.427 40.5C268.427 39.588 268.121 38.826 267.509 38.214C266.897 37.59 266.135 37.278 265.223 37.278C264.323 37.278 263.567 37.59 262.955 38.214C262.343 38.826 262.037 39.588 262.037 40.5C262.037 41.412 262.343 42.18 262.955 42.804C263.567 43.416 264.323 43.722 265.223 43.722ZM284.318 32.4H285.884V45H284.318V43.452C283.538 44.64 282.404 45.234 280.916 45.234C279.656 45.234 278.582 44.778 277.694 43.866C276.806 42.942 276.362 41.82 276.362 40.5C276.362 39.18 276.806 38.064 277.694 37.152C278.582 36.228 279.656 35.766 280.916 35.766C282.404 35.766 283.538 36.36 284.318 37.548V32.4ZM281.114 43.722C282.026 43.722 282.788 43.416 283.4 42.804C284.012 42.18 284.318 41.412 284.318 40.5C284.318 39.588 284.012 38.826 283.4 38.214C282.788 37.59 282.026 37.278 281.114 37.278C280.214 37.278 279.458 37.59 278.846 38.214C278.234 38.826 277.928 39.588 277.928 40.5C277.928 41.412 278.234 42.18 278.846 42.804C279.458 43.416 280.214 43.722 281.114 43.722ZM289.354 41.22C289.51 42.024 289.876 42.648 290.452 43.092C291.04 43.536 291.76 43.758 292.612 43.758C293.8 43.758 294.664 43.32 295.204 42.444L296.536 43.2C295.66 44.556 294.34 45.234 292.576 45.234C291.148 45.234 289.984 44.79 289.084 43.902C288.196 43.002 287.752 41.868 287.752 40.5C287.752 39.144 288.19 38.016 289.066 37.116C289.942 36.216 291.076 35.766 292.468 35.766C293.788 35.766 294.862 36.234 295.69 37.17C296.53 38.094 296.95 39.21 296.95 40.518C296.95 40.746 296.932 40.98 296.896 41.22H289.354ZM292.468 37.242C291.628 37.242 290.932 37.482 290.38 37.962C289.828 38.43 289.486 39.06 289.354 39.852H295.366C295.234 39 294.898 38.352 294.358 37.908C293.818 37.464 293.188 37.242 292.468 37.242ZM303.383 37.512H300.989V42.39C300.989 42.834 301.073 43.152 301.241 43.344C301.421 43.524 301.691 43.62 302.051 43.632C302.411 43.632 302.855 43.62 303.383 43.596V45C302.015 45.18 301.013 45.072 300.377 44.676C299.741 44.268 299.423 43.506 299.423 42.39V37.512H297.641V36H299.423V33.948L300.989 33.48V36H303.383V37.512ZM312.232 36H313.798V45H312.232V43.452C311.452 44.64 310.318 45.234 308.83 45.234C307.57 45.234 306.496 44.778 305.608 43.866C304.72 42.942 304.276 41.82 304.276 40.5C304.276 39.18 304.72 38.064 305.608 37.152C306.496 36.228 307.57 35.766 308.83 35.766C310.318 35.766 311.452 36.36 312.232 37.548V36ZM309.028 43.722C309.94 43.722 310.702 43.416 311.314 42.804C311.926 42.18 312.232 41.412 312.232 40.5C312.232 39.588 311.926 38.826 311.314 38.214C310.702 37.59 309.94 37.278 309.028 37.278C308.128 37.278 307.372 37.59 306.76 38.214C306.148 38.826 305.842 39.588 305.842 40.5C305.842 41.412 306.148 42.18 306.76 42.804C307.372 43.416 308.128 43.722 309.028 43.722ZM316.962 34.362C316.662 34.362 316.41 34.26 316.206 34.056C316.002 33.852 315.9 33.606 315.9 33.318C315.9 33.03 316.002 32.784 316.206 32.58C316.41 32.364 316.662 32.256 316.962 32.256C317.25 32.256 317.496 32.364 317.7 32.58C317.904 32.784 318.006 33.03 318.006 33.318C318.006 33.606 317.904 33.852 317.7 34.056C317.496 34.26 317.25 34.362 316.962 34.362ZM316.17 45V36H317.736V45H316.17ZM320.125 45V31.86H321.692V45H320.125ZM325.179 41.22C325.335 42.024 325.701 42.648 326.277 43.092C326.865 43.536 327.585 43.758 328.437 43.758C329.625 43.758 330.489 43.32 331.029 42.444L332.361 43.2C331.485 44.556 330.165 45.234 328.401 45.234C326.973 45.234 325.809 44.79 324.909 43.902C324.021 43.002 323.577 41.868 323.577 40.5C323.577 39.144 324.015 38.016 324.891 37.116C325.767 36.216 326.901 35.766 328.293 35.766C329.613 35.766 330.687 36.234 331.515 37.17C332.355 38.094 332.775 39.21 332.775 40.518C332.775 40.746 332.757 40.98 332.721 41.22H325.179ZM328.293 37.242C327.453 37.242 326.757 37.482 326.205 37.962C325.653 38.43 325.311 39.06 325.179 39.852H331.191C331.059 39 330.723 38.352 330.183 37.908C329.643 37.464 329.013 37.242 328.293 37.242ZM342.009 32.4H343.575V45H342.009V43.452C341.229 44.64 340.095 45.234 338.607 45.234C337.347 45.234 336.273 44.778 335.385 43.866C334.497 42.942 334.053 41.82 334.053 40.5C334.053 39.18 334.497 38.064 335.385 37.152C336.273 36.228 337.347 35.766 338.607 35.766C340.095 35.766 341.229 36.36 342.009 37.548V32.4ZM338.805 43.722C339.717 43.722 340.479 43.416 341.091 42.804C341.703 42.18 342.009 41.412 342.009 40.5C342.009 39.588 341.703 38.826 341.091 38.214C340.479 37.59 339.717 37.278 338.805 37.278C337.905 37.278 337.149 37.59 336.537 38.214C335.925 38.826 335.619 39.588 335.619 40.5C335.619 41.412 335.925 42.18 336.537 42.804C337.149 43.416 337.905 43.722 338.805 43.722ZM356.532 45.234C354.624 45.234 353.046 44.604 351.798 43.344C350.562 42.084 349.944 40.536 349.944 38.7C349.944 36.864 350.562 35.316 351.798 34.056C353.046 32.796 354.624 32.166 356.532 32.166C357.684 32.166 358.74 32.442 359.7 32.994C360.672 33.546 361.428 34.29 361.968 35.226L360.51 36.072C360.15 35.376 359.61 34.824 358.89 34.416C358.182 33.996 357.396 33.786 356.532 33.786C355.08 33.786 353.892 34.254 352.968 35.19C352.056 36.126 351.6 37.296 351.6 38.7C351.6 40.092 352.056 41.256 352.968 42.192C353.892 43.128 355.08 43.596 356.532 43.596C357.396 43.596 358.182 43.392 358.89 42.984C359.61 42.564 360.15 42.012 360.51 41.328L361.968 42.156C361.44 43.092 360.69 43.842 359.718 44.406C358.746 44.958 357.684 45.234 356.532 45.234ZM371.263 43.866C370.339 44.778 369.217 45.234 367.897 45.234C366.577 45.234 365.455 44.778 364.531 43.866C363.619 42.954 363.163 41.832 363.163 40.5C363.163 39.168 363.619 38.046 364.531 37.134C365.455 36.222 366.577 35.766 367.897 35.766C369.217 35.766 370.339 36.222 371.263 37.134C372.187 38.046 372.649 39.168 372.649 40.5C372.649 41.832 372.187 42.954 371.263 43.866ZM367.897 43.704C368.797 43.704 369.553 43.398 370.165 42.786C370.777 42.174 371.083 41.412 371.083 40.5C371.083 39.588 370.777 38.826 370.165 38.214C369.553 37.602 368.797 37.296 367.897 37.296C367.009 37.296 366.259 37.602 365.647 38.214C365.035 38.826 364.729 39.588 364.729 40.5C364.729 41.412 365.035 42.174 365.647 42.786C366.259 43.398 367.009 43.704 367.897 43.704ZM384.215 35.766C385.223 35.766 386.039 36.096 386.663 36.756C387.287 37.404 387.599 38.286 387.599 39.402V45H386.033V39.456C386.033 38.76 385.853 38.22 385.493 37.836C385.133 37.452 384.653 37.26 384.053 37.26C383.381 37.26 382.841 37.488 382.433 37.944C382.037 38.388 381.839 39.072 381.839 39.996V45H380.273V39.456C380.273 38.76 380.099 38.22 379.751 37.836C379.415 37.452 378.953 37.26 378.365 37.26C377.705 37.26 377.153 37.488 376.709 37.944C376.277 38.4 376.061 39.084 376.061 39.996V45H374.495V36H376.061V37.206C376.673 36.246 377.567 35.766 378.743 35.766C379.955 35.766 380.837 36.276 381.389 37.296C382.013 36.276 382.955 35.766 384.215 35.766ZM394.738 35.766C395.998 35.766 397.072 36.228 397.96 37.152C398.848 38.064 399.292 39.18 399.292 40.5C399.292 41.82 398.848 42.942 397.96 43.866C397.072 44.778 395.998 45.234 394.738 45.234C393.25 45.234 392.116 44.64 391.336 43.452V48.6H389.77V36H391.336V37.548C392.116 36.36 393.25 35.766 394.738 35.766ZM394.54 43.722C395.44 43.722 396.196 43.416 396.808 42.804C397.42 42.18 397.726 41.412 397.726 40.5C397.726 39.588 397.42 38.826 396.808 38.214C396.196 37.59 395.44 37.278 394.54 37.278C393.628 37.278 392.866 37.59 392.254 38.214C391.642 38.826 391.336 39.588 391.336 40.5C391.336 41.412 391.642 42.18 392.254 42.804C392.866 43.416 393.628 43.722 394.54 43.722ZM414.121 45L413.095 42.174H407.425L406.399 45H404.617L409.315 32.4H411.205L415.903 45H414.121ZM408.001 40.608H412.519L410.251 34.398L408.001 40.608ZM421.709 35.766C422.765 35.766 423.611 36.102 424.247 36.774C424.883 37.434 425.201 38.334 425.201 39.474V45H423.635V39.564C423.635 38.832 423.437 38.268 423.041 37.872C422.645 37.464 422.099 37.26 421.403 37.26C420.623 37.26 419.993 37.506 419.513 37.998C419.033 38.478 418.793 39.222 418.793 40.23V45H417.227V36H418.793V37.296C419.429 36.276 420.401 35.766 421.709 35.766ZM434.839 36H436.405V45H434.839V43.452C434.059 44.64 432.925 45.234 431.437 45.234C430.177 45.234 429.103 44.778 428.215 43.866C427.327 42.942 426.883 41.82 426.883 40.5C426.883 39.18 427.327 38.064 428.215 37.152C429.103 36.228 430.177 35.766 431.437 35.766C432.925 35.766 434.059 36.36 434.839 37.548V36ZM431.635 43.722C432.547 43.722 433.309 43.416 433.921 42.804C434.533 42.18 434.839 41.412 434.839 40.5C434.839 39.588 434.533 38.826 433.921 38.214C433.309 37.59 432.547 37.278 431.635 37.278C430.735 37.278 429.979 37.59 429.367 38.214C428.755 38.826 428.449 39.588 428.449 40.5C428.449 41.412 428.755 42.18 429.367 42.804C429.979 43.416 430.735 43.722 431.635 43.722ZM438.778 45V31.86H440.344V45H438.778ZM449.015 36H450.689L447.017 45.558C446.633 46.578 446.093 47.352 445.397 47.88C444.713 48.42 443.921 48.66 443.021 48.6V47.142C444.125 47.226 444.935 46.614 445.451 45.306L445.613 44.964L441.689 36H443.363L446.423 43.056L449.015 36ZM452.784 38.43C452.784 38.778 452.958 39.06 453.306 39.276C453.654 39.48 454.074 39.648 454.566 39.78C455.058 39.9 455.55 40.044 456.042 40.212C456.534 40.368 456.954 40.644 457.302 41.04C457.65 41.424 457.824 41.922 457.824 42.534C457.824 43.35 457.506 44.004 456.87 44.496C456.246 44.988 455.442 45.234 454.458 45.234C453.582 45.234 452.832 45.042 452.208 44.658C451.584 44.274 451.14 43.764 450.876 43.128L452.226 42.354C452.37 42.786 452.64 43.128 453.036 43.38C453.432 43.632 453.906 43.758 454.458 43.758C454.974 43.758 455.4 43.662 455.736 43.47C456.072 43.266 456.24 42.954 456.24 42.534C456.24 42.186 456.066 41.91 455.718 41.706C455.37 41.49 454.95 41.322 454.458 41.202C453.966 41.07 453.474 40.92 452.982 40.752C452.49 40.584 452.07 40.308 451.722 39.924C451.374 39.54 451.2 39.048 451.2 38.448C451.2 37.668 451.5 37.026 452.1 36.522C452.712 36.018 453.474 35.766 454.386 35.766C455.118 35.766 455.766 35.934 456.33 36.27C456.906 36.594 457.338 37.05 457.626 37.638L456.312 38.376C455.988 37.608 455.346 37.224 454.386 37.224C453.942 37.224 453.564 37.332 453.252 37.548C452.94 37.752 452.784 38.046 452.784 38.43ZM460.382 34.362C460.082 34.362 459.83 34.26 459.626 34.056C459.422 33.852 459.32 33.606 459.32 33.318C459.32 33.03 459.422 32.784 459.626 32.58C459.83 32.364 460.082 32.256 460.382 32.256C460.67 32.256 460.916 32.364 461.12 32.58C461.324 32.784 461.426 33.03 461.426 33.318C461.426 33.606 461.324 33.852 461.12 34.056C460.916 34.26 460.67 34.362 460.382 34.362ZM459.59 45V36H461.156V45H459.59ZM464.878 38.43C464.878 38.778 465.052 39.06 465.4 39.276C465.748 39.48 466.168 39.648 466.66 39.78C467.152 39.9 467.644 40.044 468.136 40.212C468.628 40.368 469.048 40.644 469.396 41.04C469.744 41.424 469.918 41.922 469.918 42.534C469.918 43.35 469.6 44.004 468.964 44.496C468.34 44.988 467.536 45.234 466.552 45.234C465.676 45.234 464.926 45.042 464.302 44.658C463.678 44.274 463.234 43.764 462.97 43.128L464.32 42.354C464.464 42.786 464.734 43.128 465.13 43.38C465.526 43.632 466 43.758 466.552 43.758C467.068 43.758 467.494 43.662 467.83 43.47C468.166 43.266 468.334 42.954 468.334 42.534C468.334 42.186 468.16 41.91 467.812 41.706C467.464 41.49 467.044 41.322 466.552 41.202C466.06 41.07 465.568 40.92 465.076 40.752C464.584 40.584 464.164 40.308 463.816 39.924C463.468 39.54 463.294 39.048 463.294 38.448C463.294 37.668 463.594 37.026 464.194 36.522C464.806 36.018 465.568 35.766 466.48 35.766C467.212 35.766 467.86 35.934 468.424 36.27C469 36.594 469.432 37.05 469.72 37.638L468.406 38.376C468.082 37.608 467.44 37.224 466.48 37.224C466.036 37.224 465.658 37.332 465.346 37.548C465.034 37.752 464.878 38.046 464.878 38.43Z" fill="#141414"/>
</g>
<defs>
<filter id="filter0_dddd_6972_37854" x="0" y="0" width="639" height="134" filterUnits="userSpaceOnUse" color-interpolation-filters="sRGB">
<feFlood flood-opacity="0" result="BackgroundImageFix"/>
<feColorMatrix in="SourceAlpha" type="matrix" values="0 0 0 0 0 0 0 0 0 0 0 0 0 0 0 0 0 0 127 0" result="hardAlpha"/>
<feOffset dy="3"/>
<feGaussianBlur stdDeviation="3"/>
<feColorMatrix type="matrix" values="0 0 0 0 0 0 0 0 0 0 0 0 0 0 0 0 0 0 0.1 0"/>
<feBlend mode="normal" in2="BackgroundImageFix" result="effect1_dropShadow_6972_37854"/>
<feColorMatrix in="SourceAlpha" type="matrix" values="0 0 0 0 0 0 0 0 0 0 0 0 0 0 0 0 0 0 127 0" result="hardAlpha"/>
<feOffset dy="11"/>
<feGaussianBlur stdDeviation="5.5"/>
<feColorMatrix type="matrix" values="0 0 0 0 0 0 0 0 0 0 0 0 0 0 0 0 0 0 0.09 0"/>
<feBlend mode="normal" in2="effect1_dropShadow_6972_37854" result="effect2_dropShadow_6972_37854"/>
<feColorMatrix in="SourceAlpha" type="matrix" values="0 0 0 0 0 0 0 0 0 0 0 0 0 0 0 0 0 0 127 0" result="hardAlpha"/>
<feOffset dy="24"/>
<feGaussianBlur stdDeviation="7"/>
<feColorMatrix type="matrix" values="0 0 0 0 0 0 0 0 0 0 0 0 0 0 0 0 0 0 0.05 0"/>
<feBlend mode="normal" in2="effect2_dropShadow_6972_37854" result="effect3_dropShadow_6972_37854"/>
<feColorMatrix in="SourceAlpha" type="matrix" values="0 0 0 0 0 0 0 0 0 0 0 0 0 0 0 0 0 0 127 0" result="hardAlpha"/>
<feOffset dy="42"/>
<feGaussianBlur stdDeviation="8.5"/>
<feColorMatrix type="matrix" values="0 0 0 0 0 0 0 0 0 0 0 0 0 0 0 0 0 0 0.01 0"/>
<feBlend mode="normal" in2="effect3_dropShadow_6972_37854" result="effect4_dropShadow_6972_37854"/>
<feBlend mode="normal" in="SourceGraphic" in2="effect4_dropShadow_6972_37854" result="shape"/>
</filter>
<filter id="filter1_d_6972_37854" x="565" y="21" width="36" height="36" filterUnits="userSpaceOnUse" color-interpolation-filters="sRGB">
<feFlood flood-opacity="0" result="BackgroundImageFix"/>
<feColorMatrix in="SourceAlpha" type="matrix" values="0 0 0 0 0 0 0 0 0 0 0 0 0 0 0 0 0 0 127 0" result="hardAlpha"/>
<feOffset/>
<feComposite in2="hardAlpha" operator="out"/>
<feColorMatrix type="matrix" values="0 0 0 0 0.121569 0 0 0 0 0.403922 0 0 0 0 0.266667 0 0 0 1 0"/>
<feBlend mode="normal" in2="BackgroundImageFix" result="effect1_dropShadow_6972_37854"/>
<feBlend mode="normal" in="SourceGraphic" in2="effect1_dropShadow_6972_37854" result="shape"/>
</filter>
<linearGradient id="paint0_linear_6972_37854" x1="589.136" y1="55.7727" x2="569.091" y2="16.9091" gradientUnits="userSpaceOnUse">
<stop stop-color="#11A85F"/>
<stop offset="1" stop-color="#1F6744"/>
</linearGradient>
<linearGradient id="paint1_linear_6972_37854" x1="583" y1="21" x2="583" y2="57" gradientUnits="userSpaceOnUse">
<stop stop-color="white" stop-opacity="0.3"/>
<stop offset="1" stop-color="white" stop-opacity="0"/>
</linearGradient>
</defs>
</svg>
