<svg width="639" height="163" viewBox="0 0 639 163" fill="none" xmlns="http://www.w3.org/2000/svg">
<g opacity="0.5" filter="url(#filter0_dddd_6637_34794)">
<rect x="17" y="3" width="605" height="101" rx="16" fill="white"/>
<rect x="17.5" y="3.5" width="604" height="100" rx="15.5" stroke="#F6F6F6"/>
<rect width="586" height="78" transform="translate(17 15)" fill="white"/>
<g clip-path="url(#clip0_6637_34794)">
<path d="M60.4967 53.0785L46.3079 38.8897L44.9327 37.5156L29.3698 53.0785C28.8611 53.5887 28.8611 54.4145 29.3698 54.9236L39.1279 64.6813L44.9327 70.4876L60.4967 54.9236C61.0058 54.4145 61.0058 53.5887 60.4967 53.0785ZM44.9327 58.8751L40.0591 54.0018L44.9327 49.1267L49.8074 54.0018L44.9327 58.8751Z" fill="#2684FF"/>
<path d="M44.9357 49.1199C41.745 45.9277 41.7287 40.7578 44.9018 37.5469L34.2344 48.2101L40.0406 54.0164L44.9357 49.1199Z" fill="url(#paint0_linear_6637_34794)"/>
<path d="M49.8218 53.9844L44.9336 58.8715C46.4741 60.4106 47.3405 62.4997 47.3405 64.6778C47.3405 66.8559 46.4741 68.9436 44.9336 70.484L55.6267 59.7906L49.8218 53.9844Z" fill="url(#paint1_linear_6637_34794)"/>
</g>
<path d="M78.76 48.195C78.05 48.195 77.3825 48.055 76.7575 47.775C76.1325 47.49 75.5825 47.1 75.1075 46.605C74.6375 46.105 74.2675 45.525 73.9975 44.865C73.7325 44.205 73.6 43.5 73.6 42.75C73.6 42 73.7325 41.295 73.9975 40.635C74.2675 39.975 74.6375 39.3975 75.1075 38.9025C75.5825 38.4025 76.1325 38.0125 76.7575 37.7325C77.3825 37.4475 78.05 37.305 78.76 37.305C79.61 37.305 80.3925 37.5025 81.1075 37.8975C81.8225 38.2925 82.415 38.8175 82.885 39.4725L81.955 39.975C81.585 39.48 81.115 39.0875 80.545 38.7975C79.98 38.5025 79.385 38.355 78.76 38.355C78.185 38.355 77.6475 38.4725 77.1475 38.7075C76.6525 38.9375 76.2175 39.255 75.8425 39.66C75.4675 40.065 75.175 40.5325 74.965 41.0625C74.755 41.5925 74.65 42.155 74.65 42.75C74.65 43.355 74.755 43.9225 74.965 44.4525C75.18 44.9825 75.475 45.45 75.85 45.855C76.23 46.26 76.6675 46.5775 77.1625 46.8075C77.6625 47.0325 78.195 47.145 78.76 47.145C79.41 47.145 80.0125 46.9975 80.5675 46.7025C81.1275 46.4025 81.59 46.0125 81.955 45.5325L82.885 46.035C82.415 46.69 81.8225 47.215 81.1075 47.61C80.3925 48 79.61 48.195 78.76 48.195ZM84.4029 48V40.5H85.4529V41.535C85.7179 41.155 86.0629 40.8525 86.4879 40.6275C86.9129 40.4025 87.3754 40.29 87.8754 40.29C88.1654 40.29 88.4454 40.3275 88.7154 40.4025L88.2879 41.445C88.0779 41.38 87.8729 41.3475 87.6729 41.3475C87.2679 41.3475 86.8954 41.4475 86.5554 41.6475C86.2204 41.8475 85.9529 42.115 85.7529 42.45C85.5529 42.785 85.4529 43.1575 85.4529 43.5675V48H84.4029ZM92.5662 48.195C91.8762 48.195 91.2462 48.0175 90.6762 47.6625C90.1112 47.3075 89.6587 46.8325 89.3187 46.2375C88.9837 45.6375 88.8162 44.975 88.8162 44.25C88.8162 43.7 88.9137 43.1875 89.1087 42.7125C89.3037 42.2325 89.5712 41.8125 89.9112 41.4525C90.2562 41.0875 90.6562 40.8025 91.1112 40.5975C91.5662 40.3925 92.0512 40.29 92.5662 40.29C93.1212 40.29 93.6312 40.4 94.0962 40.62C94.5662 40.84 94.9687 41.1475 95.3037 41.5425C95.6437 41.9375 95.8987 42.4 96.0687 42.93C96.2437 43.46 96.3162 44.0325 96.2862 44.6475H89.9262C89.9862 45.1225 90.1362 45.5475 90.3762 45.9225C90.6212 46.2975 90.9312 46.595 91.3062 46.815C91.6862 47.03 92.1062 47.14 92.5662 47.145C93.0662 47.145 93.5162 47.015 93.9162 46.755C94.3212 46.495 94.6462 46.1375 94.8912 45.6825L95.9562 45.93C95.6562 46.595 95.2037 47.14 94.5987 47.565C93.9937 47.985 93.3162 48.195 92.5662 48.195ZM89.8962 43.8H95.2287C95.1937 43.335 95.0512 42.91 94.8012 42.525C94.5562 42.135 94.2387 41.825 93.8487 41.595C93.4587 41.36 93.0312 41.2425 92.5662 41.2425C92.1012 41.2425 91.6762 41.3575 91.2912 41.5875C90.9062 41.8125 90.5912 42.12 90.3462 42.51C90.1012 42.895 89.9512 43.325 89.8962 43.8ZM103.664 40.5H104.714V48H103.664L103.626 46.605C103.381 47.08 103.039 47.465 102.599 47.76C102.159 48.05 101.634 48.195 101.024 48.195C100.474 48.195 99.9586 48.0925 99.4786 47.8875C98.9986 47.6775 98.5761 47.39 98.2111 47.025C97.8461 46.66 97.5611 46.2375 97.3561 45.7575C97.1511 45.2775 97.0486 44.7625 97.0486 44.2125C97.0486 43.6725 97.1486 43.165 97.3486 42.69C97.5536 42.215 97.8336 41.7975 98.1886 41.4375C98.5486 41.0775 98.9636 40.7975 99.4336 40.5975C99.9086 40.3925 100.416 40.29 100.956 40.29C101.581 40.29 102.126 40.44 102.591 40.74C103.056 41.035 103.426 41.4225 103.701 41.9025L103.664 40.5ZM101.001 47.175C101.536 47.175 101.996 47.045 102.381 46.785C102.766 46.52 103.061 46.165 103.266 45.72C103.476 45.275 103.581 44.785 103.581 44.25C103.581 43.7 103.476 43.205 103.266 42.765C103.056 42.32 102.759 41.9675 102.374 41.7075C101.989 41.4475 101.531 41.3175 101.001 41.3175C100.471 41.3175 99.9861 41.45 99.5461 41.715C99.1111 41.975 98.7636 42.3275 98.5036 42.7725C98.2486 43.2175 98.1211 43.71 98.1211 44.25C98.1211 44.795 98.2536 45.29 98.5186 45.735C98.7836 46.175 99.1336 46.525 99.5686 46.785C100.009 47.045 100.486 47.175 101.001 47.175ZM110.047 41.55H108.254L108.247 48H107.197L107.204 41.55H105.847V40.5H107.204L107.197 38.145H108.247L108.254 40.5H110.047V41.55ZM114.48 48.195C113.79 48.195 113.16 48.0175 112.59 47.6625C112.025 47.3075 111.573 46.8325 111.233 46.2375C110.898 45.6375 110.73 44.975 110.73 44.25C110.73 43.7 110.828 43.1875 111.023 42.7125C111.218 42.2325 111.485 41.8125 111.825 41.4525C112.17 41.0875 112.57 40.8025 113.025 40.5975C113.48 40.3925 113.965 40.29 114.48 40.29C115.035 40.29 115.545 40.4 116.01 40.62C116.48 40.84 116.883 41.1475 117.218 41.5425C117.558 41.9375 117.813 42.4 117.983 42.93C118.158 43.46 118.23 44.0325 118.2 44.6475H111.84C111.9 45.1225 112.05 45.5475 112.29 45.9225C112.535 46.2975 112.845 46.595 113.22 46.815C113.6 47.03 114.02 47.14 114.48 47.145C114.98 47.145 115.43 47.015 115.83 46.755C116.235 46.495 116.56 46.1375 116.805 45.6825L117.87 45.93C117.57 46.595 117.118 47.14 116.513 47.565C115.908 47.985 115.23 48.195 114.48 48.195ZM111.81 43.8H117.143C117.108 43.335 116.965 42.91 116.715 42.525C116.47 42.135 116.153 41.825 115.763 41.595C115.373 41.36 114.945 41.2425 114.48 41.2425C114.015 41.2425 113.59 41.3575 113.205 41.5875C112.82 41.8125 112.505 42.12 112.26 42.51C112.015 42.895 111.865 43.325 111.81 43.8ZM129.328 40.5H130.378V48H129.328L129.29 46.605C129.045 47.08 128.703 47.465 128.263 47.76C127.823 48.05 127.298 48.195 126.688 48.195C126.138 48.195 125.623 48.0925 125.143 47.8875C124.663 47.6775 124.24 47.39 123.875 47.025C123.51 46.66 123.225 46.2375 123.02 45.7575C122.815 45.2775 122.713 44.7625 122.713 44.2125C122.713 43.6725 122.813 43.165 123.013 42.69C123.218 42.215 123.498 41.7975 123.853 41.4375C124.213 41.0775 124.628 40.7975 125.098 40.5975C125.573 40.3925 126.08 40.29 126.62 40.29C127.245 40.29 127.79 40.44 128.255 40.74C128.72 41.035 129.09 41.4225 129.365 41.9025L129.328 40.5ZM126.665 47.175C127.2 47.175 127.66 47.045 128.045 46.785C128.43 46.52 128.725 46.165 128.93 45.72C129.14 45.275 129.245 44.785 129.245 44.25C129.245 43.7 129.14 43.205 128.93 42.765C128.72 42.32 128.423 41.9675 128.038 41.7075C127.653 41.4475 127.195 41.3175 126.665 41.3175C126.135 41.3175 125.65 41.45 125.21 41.715C124.775 41.975 124.428 42.3275 124.168 42.7725C123.913 43.2175 123.785 43.71 123.785 44.25C123.785 44.795 123.918 45.29 124.183 45.735C124.448 46.175 124.798 46.525 125.233 46.785C125.673 47.045 126.15 47.175 126.665 47.175ZM136.757 48.195C136.417 48.195 136.085 48.1375 135.76 48.0225C135.44 47.9125 135.147 47.7425 134.882 47.5125L135.55 46.7025C135.71 46.8375 135.892 46.945 136.097 47.025C136.302 47.105 136.522 47.145 136.757 47.145C137.107 47.145 137.425 47.0525 137.71 46.8675C137.995 46.6775 138.222 46.4325 138.392 46.1325C138.567 45.8275 138.655 45.5025 138.655 45.1575V37.5H139.705V45.1575C139.705 45.6975 139.572 46.1975 139.307 46.6575C139.042 47.1175 138.687 47.49 138.242 47.775C137.797 48.055 137.302 48.195 136.757 48.195ZM141.503 40.5H142.553V48H141.503V40.5ZM142.035 39.1875C141.865 39.1875 141.72 39.1325 141.6 39.0225C141.485 38.9075 141.428 38.765 141.428 38.595C141.428 38.425 141.485 38.285 141.6 38.175C141.72 38.06 141.865 38.0025 142.035 38.0025C142.2 38.0025 142.34 38.06 142.455 38.175C142.575 38.285 142.635 38.425 142.635 38.595C142.635 38.765 142.578 38.9075 142.463 39.0225C142.348 39.1325 142.205 39.1875 142.035 39.1875ZM144.33 48V40.5H145.38V41.535C145.645 41.155 145.99 40.8525 146.415 40.6275C146.84 40.4025 147.302 40.29 147.802 40.29C148.092 40.29 148.372 40.3275 148.642 40.4025L148.215 41.445C148.005 41.38 147.8 41.3475 147.6 41.3475C147.195 41.3475 146.822 41.4475 146.482 41.6475C146.147 41.8475 145.88 42.115 145.68 42.45C145.48 42.785 145.38 43.1575 145.38 43.5675V48H144.33ZM155.358 40.5H156.408V48H155.358L155.32 46.605C155.075 47.08 154.733 47.465 154.293 47.76C153.853 48.05 153.328 48.195 152.718 48.195C152.168 48.195 151.653 48.0925 151.173 47.8875C150.693 47.6775 150.27 47.39 149.905 47.025C149.54 46.66 149.255 46.2375 149.05 45.7575C148.845 45.2775 148.743 44.7625 148.743 44.2125C148.743 43.6725 148.843 43.165 149.043 42.69C149.248 42.215 149.528 41.7975 149.883 41.4375C150.243 41.0775 150.658 40.7975 151.128 40.5975C151.603 40.3925 152.11 40.29 152.65 40.29C153.275 40.29 153.82 40.44 154.285 40.74C154.75 41.035 155.12 41.4225 155.395 41.9025L155.358 40.5ZM152.695 47.175C153.23 47.175 153.69 47.045 154.075 46.785C154.46 46.52 154.755 46.165 154.96 45.72C155.17 45.275 155.275 44.785 155.275 44.25C155.275 43.7 155.17 43.205 154.96 42.765C154.75 42.32 154.453 41.9675 154.068 41.7075C153.683 41.4475 153.225 41.3175 152.695 41.3175C152.165 41.3175 151.68 41.45 151.24 41.715C150.805 41.975 150.458 42.3275 150.198 42.7725C149.943 43.2175 149.815 43.71 149.815 44.25C149.815 44.795 149.948 45.29 150.213 45.735C150.478 46.175 150.828 46.525 151.263 46.785C151.703 47.045 152.18 47.175 152.695 47.175ZM165.345 41.55H163.552L163.545 48H162.495L162.502 41.55H161.145V40.5H162.502L162.495 38.145H163.545L163.552 40.5H165.345V41.55ZM166.625 40.5H167.675V48H166.625V40.5ZM167.157 39.1875C166.987 39.1875 166.842 39.1325 166.722 39.0225C166.607 38.9075 166.55 38.765 166.55 38.595C166.55 38.425 166.607 38.285 166.722 38.175C166.842 38.06 166.987 38.0025 167.157 38.0025C167.322 38.0025 167.462 38.06 167.577 38.175C167.697 38.285 167.757 38.425 167.757 38.595C167.757 38.765 167.7 38.9075 167.585 39.0225C167.47 39.1325 167.327 39.1875 167.157 39.1875ZM174.763 46.1175L175.7 46.6275C175.36 47.1025 174.928 47.4825 174.403 47.7675C173.883 48.0525 173.318 48.195 172.708 48.195C172.018 48.195 171.388 48.0175 170.818 47.6625C170.253 47.3075 169.8 46.8325 169.46 46.2375C169.125 45.6375 168.958 44.975 168.958 44.25C168.958 43.7 169.055 43.1875 169.25 42.7125C169.445 42.2325 169.713 41.8125 170.053 41.4525C170.398 41.0875 170.798 40.8025 171.253 40.5975C171.708 40.3925 172.193 40.29 172.708 40.29C173.318 40.29 173.883 40.4325 174.403 40.7175C174.928 41.0025 175.36 41.385 175.7 41.865L174.763 42.3675C174.503 42.0375 174.19 41.785 173.825 41.61C173.46 41.43 173.088 41.34 172.708 41.34C172.203 41.34 171.745 41.475 171.335 41.745C170.925 42.01 170.6 42.3625 170.36 42.8025C170.125 43.2425 170.008 43.725 170.008 44.25C170.008 44.775 170.128 45.2575 170.368 45.6975C170.613 46.1375 170.94 46.49 171.35 46.755C171.76 47.015 172.213 47.145 172.708 47.145C173.118 47.145 173.503 47.05 173.863 46.86C174.223 46.67 174.523 46.4225 174.763 46.1175ZM182.809 48H181.602L179.502 44.3775L178.002 46.17V48H176.952V36.75H178.002V44.535L181.384 40.5H182.757L180.214 43.5225L182.809 48ZM187.049 48.195C186.359 48.195 185.729 48.0175 185.159 47.6625C184.594 47.3075 184.141 46.8325 183.801 46.2375C183.466 45.6375 183.299 44.975 183.299 44.25C183.299 43.7 183.396 43.1875 183.591 42.7125C183.786 42.2325 184.054 41.8125 184.394 41.4525C184.739 41.0875 185.139 40.8025 185.594 40.5975C186.049 40.3925 186.534 40.29 187.049 40.29C187.604 40.29 188.114 40.4 188.579 40.62C189.049 40.84 189.451 41.1475 189.786 41.5425C190.126 41.9375 190.381 42.4 190.551 42.93C190.726 43.46 190.799 44.0325 190.769 44.6475H184.409C184.469 45.1225 184.619 45.5475 184.859 45.9225C185.104 46.2975 185.414 46.595 185.789 46.815C186.169 47.03 186.589 47.14 187.049 47.145C187.549 47.145 187.999 47.015 188.399 46.755C188.804 46.495 189.129 46.1375 189.374 45.6825L190.439 45.93C190.139 46.595 189.686 47.14 189.081 47.565C188.476 47.985 187.799 48.195 187.049 48.195ZM184.379 43.8H189.711C189.676 43.335 189.534 42.91 189.284 42.525C189.039 42.135 188.721 41.825 188.331 41.595C187.941 41.36 187.514 41.2425 187.049 41.2425C186.584 41.2425 186.159 41.3575 185.774 41.5875C185.389 41.8125 185.074 42.12 184.829 42.51C184.584 42.895 184.434 43.325 184.379 43.8ZM195.755 41.55H193.962L193.955 48H192.905L192.912 41.55H191.555V40.5H192.912L192.905 38.145H193.955L193.962 40.5H195.755V41.55ZM202.249 38.5425V40.5H204.499V41.55H202.249V48H201.199V41.55H200.172V40.5H201.199V38.5425C201.199 38.1775 201.287 37.8475 201.462 37.5525C201.642 37.2525 201.882 37.015 202.182 36.84C202.482 36.66 202.814 36.57 203.179 36.57C203.444 36.57 203.699 36.6225 203.944 36.7275C204.194 36.8325 204.417 36.9875 204.612 37.1925L203.862 37.935C203.782 37.835 203.679 37.7575 203.554 37.7025C203.434 37.6475 203.309 37.62 203.179 37.62C202.924 37.62 202.704 37.71 202.519 37.89C202.339 38.07 202.249 38.2875 202.249 38.5425ZM208.831 48.195C208.141 48.195 207.511 48.0175 206.941 47.6625C206.376 47.3075 205.923 46.8325 205.583 46.2375C205.248 45.6375 205.081 44.975 205.081 44.25C205.081 43.7 205.178 43.1875 205.373 42.7125C205.568 42.2325 205.836 41.8125 206.176 41.4525C206.521 41.0875 206.921 40.8025 207.376 40.5975C207.831 40.3925 208.316 40.29 208.831 40.29C209.521 40.29 210.148 40.4675 210.713 40.8225C211.283 41.1775 211.736 41.655 212.071 42.255C212.411 42.855 212.581 43.52 212.581 44.25C212.581 44.795 212.483 45.305 212.288 45.78C212.093 46.255 211.823 46.675 211.478 47.04C211.138 47.4 210.741 47.6825 210.286 47.8875C209.836 48.0925 209.351 48.195 208.831 48.195ZM208.831 47.145C209.341 47.145 209.798 47.0125 210.203 46.7475C210.613 46.4775 210.936 46.1225 211.171 45.6825C211.411 45.2425 211.531 44.765 211.531 44.25C211.531 43.725 211.411 43.2425 211.171 42.8025C210.931 42.3575 210.606 42.0025 210.196 41.7375C209.791 41.4725 209.336 41.34 208.831 41.34C208.321 41.34 207.861 41.475 207.451 41.745C207.046 42.01 206.723 42.3625 206.483 42.8025C206.248 43.2425 206.131 43.725 206.131 44.25C206.131 44.79 206.253 45.28 206.498 45.72C206.743 46.155 207.071 46.5025 207.481 46.7625C207.891 47.0175 208.341 47.145 208.831 47.145ZM213.851 48V40.5H214.901V41.535C215.166 41.155 215.511 40.8525 215.936 40.6275C216.361 40.4025 216.824 40.29 217.324 40.29C217.614 40.29 217.894 40.3275 218.164 40.4025L217.736 41.445C217.526 41.38 217.321 41.3475 217.121 41.3475C216.716 41.3475 216.344 41.4475 216.004 41.6475C215.669 41.8475 215.401 42.115 215.201 42.45C215.001 42.785 214.901 43.1575 214.901 43.5675V48H213.851ZM226.649 41.55H224.856L224.849 48H223.799L223.806 41.55H222.449V40.5H223.806L223.799 38.145H224.849L224.856 40.5H226.649V41.55ZM234.527 43.3575V48H233.477V43.5675C233.477 43.1575 233.377 42.785 233.177 42.45C232.977 42.115 232.709 41.8475 232.374 41.6475C232.039 41.4475 231.667 41.3475 231.257 41.3475C230.852 41.3475 230.479 41.4475 230.139 41.6475C229.804 41.8475 229.537 42.115 229.337 42.45C229.137 42.785 229.037 43.1575 229.037 43.5675V48H227.987V36.75H229.037V41.535C229.302 41.155 229.647 40.8525 230.072 40.6275C230.497 40.4025 230.959 40.29 231.459 40.29C232.024 40.29 232.539 40.4275 233.004 40.7025C233.469 40.9775 233.839 41.3475 234.114 41.8125C234.389 42.2775 234.527 42.7925 234.527 43.3575ZM239.182 48.195C238.492 48.195 237.862 48.0175 237.292 47.6625C236.727 47.3075 236.275 46.8325 235.935 46.2375C235.6 45.6375 235.432 44.975 235.432 44.25C235.432 43.7 235.53 43.1875 235.725 42.7125C235.92 42.2325 236.187 41.8125 236.527 41.4525C236.872 41.0875 237.272 40.8025 237.727 40.5975C238.182 40.3925 238.667 40.29 239.182 40.29C239.737 40.29 240.247 40.4 240.712 40.62C241.182 40.84 241.585 41.1475 241.92 41.5425C242.26 41.9375 242.515 42.4 242.685 42.93C242.86 43.46 242.932 44.0325 242.902 44.6475H236.542C236.602 45.1225 236.752 45.5475 236.992 45.9225C237.237 46.2975 237.547 46.595 237.922 46.815C238.302 47.03 238.722 47.14 239.182 47.145C239.682 47.145 240.132 47.015 240.532 46.755C240.937 46.495 241.262 46.1375 241.507 45.6825L242.572 45.93C242.272 46.595 241.82 47.14 241.215 47.565C240.61 47.985 239.932 48.195 239.182 48.195ZM236.512 43.8H241.845C241.81 43.335 241.667 42.91 241.417 42.525C241.172 42.135 240.855 41.825 240.465 41.595C240.075 41.36 239.647 41.2425 239.182 41.2425C238.717 41.2425 238.292 41.3575 237.907 41.5875C237.522 41.8125 237.207 42.12 236.962 42.51C236.717 42.895 236.567 43.325 236.512 43.8ZM254.405 43.3575V48H253.355V43.5675C253.355 43.1575 253.255 42.785 253.055 42.45C252.855 42.115 252.587 41.8475 252.252 41.6475C251.917 41.4475 251.545 41.3475 251.135 41.3475C250.73 41.3475 250.357 41.4475 250.017 41.6475C249.682 41.8475 249.415 42.115 249.215 42.45C249.015 42.785 248.915 43.1575 248.915 43.5675V48H247.865V36.75H248.915V41.535C249.18 41.155 249.525 40.8525 249.95 40.6275C250.375 40.4025 250.837 40.29 251.337 40.29C251.902 40.29 252.417 40.4275 252.882 40.7025C253.347 40.9775 253.717 41.3475 253.992 41.8125C254.267 42.2775 254.405 42.7925 254.405 43.3575ZM255.907 40.5H256.957V48H255.907V40.5ZM256.439 39.1875C256.269 39.1875 256.124 39.1325 256.004 39.0225C255.889 38.9075 255.832 38.765 255.832 38.595C255.832 38.425 255.889 38.285 256.004 38.175C256.124 38.06 256.269 38.0025 256.439 38.0025C256.604 38.0025 256.744 38.06 256.859 38.175C256.979 38.285 257.039 38.425 257.039 38.595C257.039 38.765 256.982 38.9075 256.867 39.0225C256.752 39.1325 256.609 39.1875 256.439 39.1875ZM264.653 40.5H265.703V48.2775C265.703 48.7575 265.598 49.2075 265.388 49.6275C265.183 50.0475 264.903 50.415 264.548 50.73C264.198 51.05 263.798 51.3 263.348 51.48C262.898 51.66 262.43 51.75 261.945 51.75C261.425 51.75 260.923 51.63 260.438 51.39C259.953 51.155 259.53 50.84 259.17 50.445C258.815 50.05 258.563 49.6125 258.413 49.1325L259.38 48.69C259.475 49.065 259.653 49.4025 259.913 49.7025C260.178 50.0075 260.488 50.2475 260.843 50.4225C261.203 50.6025 261.57 50.6925 261.945 50.6925C262.29 50.6925 262.623 50.6275 262.943 50.4975C263.268 50.3725 263.558 50.2 263.813 49.98C264.073 49.76 264.278 49.5025 264.428 49.2075C264.578 48.9175 264.653 48.6075 264.653 48.2775V46.62C264.393 47.09 264.04 47.47 263.595 47.76C263.155 48.05 262.643 48.195 262.058 48.195C261.533 48.195 261.038 48.0925 260.573 47.8875C260.113 47.6825 259.708 47.4 259.358 47.04C259.008 46.675 258.733 46.255 258.533 45.78C258.338 45.305 258.24 44.795 258.24 44.25C258.24 43.705 258.338 43.195 258.533 42.72C258.733 42.24 259.008 41.82 259.358 41.46C259.708 41.095 260.113 40.81 260.573 40.605C261.038 40.4 261.533 40.2975 262.058 40.2975C262.643 40.2975 263.155 40.4425 263.595 40.7325C264.04 41.0175 264.393 41.3975 264.653 41.8725V40.5ZM262.065 47.175C262.585 47.175 263.033 47.04 263.408 46.77C263.788 46.5 264.08 46.1425 264.285 45.6975C264.49 45.2525 264.593 44.77 264.593 44.25C264.593 43.715 264.488 43.2275 264.278 42.7875C264.073 42.3425 263.78 41.9875 263.4 41.7225C263.02 41.4525 262.575 41.3175 262.065 41.3175C261.555 41.3175 261.09 41.45 260.67 41.715C260.255 41.975 259.925 42.3275 259.68 42.7725C259.435 43.2175 259.313 43.71 259.313 44.25C259.313 44.79 259.438 45.2825 259.688 45.7275C259.938 46.1675 260.27 46.52 260.685 46.785C261.105 47.045 261.565 47.175 262.065 47.175ZM274.048 43.3575V48H272.998V43.5675C272.998 43.1575 272.898 42.785 272.698 42.45C272.498 42.115 272.231 41.8475 271.896 41.6475C271.561 41.4475 271.188 41.3475 270.778 41.3475C270.373 41.3475 270.001 41.4475 269.661 41.6475C269.326 41.8475 269.058 42.115 268.858 42.45C268.658 42.785 268.558 43.1575 268.558 43.5675V48H267.508V36.75H268.558V41.535C268.823 41.155 269.168 40.8525 269.593 40.6275C270.018 40.4025 270.481 40.29 270.981 40.29C271.546 40.29 272.061 40.4275 272.526 40.7025C272.991 40.9775 273.361 41.3475 273.636 41.8125C273.911 42.2775 274.048 42.7925 274.048 43.3575ZM280.204 51.75H279.154V40.5H280.204V41.9025C280.464 41.4275 280.819 41.0425 281.269 40.7475C281.719 40.4525 282.254 40.305 282.874 40.305C283.419 40.305 283.929 40.4075 284.404 40.6125C284.884 40.8175 285.304 41.1025 285.664 41.4675C286.024 41.8275 286.306 42.245 286.511 42.72C286.716 43.195 286.819 43.705 286.819 44.25C286.819 44.795 286.716 45.3075 286.511 45.7875C286.306 46.2675 286.024 46.69 285.664 47.055C285.304 47.415 284.884 47.6975 284.404 47.9025C283.929 48.1075 283.419 48.21 282.874 48.21C282.254 48.21 281.719 48.0625 281.269 47.7675C280.819 47.4725 280.464 47.0875 280.204 46.6125V51.75ZM282.866 41.325C282.341 41.325 281.884 41.4575 281.494 41.7225C281.109 41.9825 280.811 42.3325 280.601 42.7725C280.391 43.2125 280.286 43.705 280.286 44.25C280.286 44.785 280.389 45.275 280.594 45.72C280.804 46.165 281.101 46.52 281.486 46.785C281.876 47.05 282.336 47.1825 282.866 47.1825C283.386 47.1825 283.864 47.0525 284.299 46.7925C284.739 46.5325 285.091 46.1825 285.356 45.7425C285.621 45.2975 285.754 44.8 285.754 44.25C285.754 43.715 285.624 43.2275 285.364 42.7875C285.104 42.3425 284.756 41.9875 284.321 41.7225C283.886 41.4575 283.401 41.325 282.866 41.325ZM288.089 48V40.5H289.139V41.535C289.404 41.155 289.749 40.8525 290.174 40.6275C290.599 40.4025 291.062 40.29 291.562 40.29C291.852 40.29 292.132 40.3275 292.402 40.4025L291.974 41.445C291.764 41.38 291.559 41.3475 291.359 41.3475C290.954 41.3475 290.582 41.4475 290.242 41.6475C289.907 41.8475 289.639 42.115 289.439 42.45C289.239 42.785 289.139 43.1575 289.139 43.5675V48H288.089ZM293.348 40.5H294.398V48H293.348V40.5ZM293.881 39.1875C293.711 39.1875 293.566 39.1325 293.446 39.0225C293.331 38.9075 293.273 38.765 293.273 38.595C293.273 38.425 293.331 38.285 293.446 38.175C293.566 38.06 293.711 38.0025 293.881 38.0025C294.046 38.0025 294.186 38.06 294.301 38.175C294.421 38.285 294.481 38.425 294.481 38.595C294.481 38.765 294.423 38.9075 294.308 39.0225C294.193 39.1325 294.051 39.1875 293.881 39.1875ZM299.431 48.195C298.741 48.195 298.111 48.0175 297.541 47.6625C296.976 47.3075 296.524 46.8325 296.184 46.2375C295.849 45.6375 295.681 44.975 295.681 44.25C295.681 43.7 295.779 43.1875 295.974 42.7125C296.169 42.2325 296.436 41.8125 296.776 41.4525C297.121 41.0875 297.521 40.8025 297.976 40.5975C298.431 40.3925 298.916 40.29 299.431 40.29C300.121 40.29 300.749 40.4675 301.314 40.8225C301.884 41.1775 302.336 41.655 302.671 42.255C303.011 42.855 303.181 43.52 303.181 44.25C303.181 44.795 303.084 45.305 302.889 45.78C302.694 46.255 302.424 46.675 302.079 47.04C301.739 47.4 301.341 47.6825 300.886 47.8875C300.436 48.0925 299.951 48.195 299.431 48.195ZM299.431 47.145C299.941 47.145 300.399 47.0125 300.804 46.7475C301.214 46.4775 301.536 46.1225 301.771 45.6825C302.011 45.2425 302.131 44.765 302.131 44.25C302.131 43.725 302.011 43.2425 301.771 42.8025C301.531 42.3575 301.206 42.0025 300.796 41.7375C300.391 41.4725 299.936 41.34 299.431 41.34C298.921 41.34 298.461 41.475 298.051 41.745C297.646 42.01 297.324 42.3625 297.084 42.8025C296.849 43.2425 296.731 43.725 296.731 44.25C296.731 44.79 296.854 45.28 297.099 45.72C297.344 46.155 297.671 46.5025 298.081 46.7625C298.491 47.0175 298.941 47.145 299.431 47.145ZM304.452 48V40.5H305.502V41.535C305.767 41.155 306.112 40.8525 306.537 40.6275C306.962 40.4025 307.424 40.29 307.924 40.29C308.214 40.29 308.494 40.3275 308.764 40.4025L308.337 41.445C308.127 41.38 307.922 41.3475 307.722 41.3475C307.317 41.3475 306.944 41.4475 306.604 41.6475C306.269 41.8475 306.002 42.115 305.802 42.45C305.602 42.785 305.502 43.1575 305.502 43.5675V48H304.452ZM309.711 40.5H310.761V48H309.711V40.5ZM310.243 39.1875C310.073 39.1875 309.928 39.1325 309.808 39.0225C309.693 38.9075 309.636 38.765 309.636 38.595C309.636 38.425 309.693 38.285 309.808 38.175C309.928 38.06 310.073 38.0025 310.243 38.0025C310.408 38.0025 310.548 38.06 310.663 38.175C310.783 38.285 310.843 38.425 310.843 38.595C310.843 38.765 310.786 38.9075 310.671 39.0225C310.556 39.1325 310.413 39.1875 310.243 39.1875ZM316.399 41.55H314.607L314.599 48H313.549L313.557 41.55H312.199V40.5H313.557L313.549 38.145H314.599L314.607 40.5H316.399V41.55ZM322.744 40.5H323.854L319.751 51.75H318.634L319.999 48L317.306 40.5H318.454L320.524 46.5525L322.744 40.5ZM332.679 40.29C333.409 40.29 334.071 40.4675 334.666 40.8225C335.266 41.1775 335.744 41.655 336.099 42.255C336.454 42.85 336.631 43.5125 336.631 44.2425C336.631 44.7875 336.529 45.3 336.324 45.78C336.119 46.255 335.834 46.675 335.469 47.04C335.109 47.4 334.689 47.6825 334.209 47.8875C333.734 48.0925 333.224 48.195 332.679 48.195C332.059 48.195 331.524 48.0475 331.074 47.7525C330.624 47.4575 330.269 47.0725 330.009 46.5975V48H328.959V36.75H330.009V41.8875C330.269 41.4125 330.624 41.0275 331.074 40.7325C331.524 40.4375 332.059 40.29 332.679 40.29ZM332.671 47.1675C333.206 47.1675 333.691 47.0375 334.126 46.7775C334.561 46.5125 334.909 46.1575 335.169 45.7125C335.429 45.2675 335.559 44.7775 335.559 44.2425C335.559 43.6925 335.426 43.1975 335.161 42.7575C334.896 42.3125 334.544 41.96 334.104 41.7C333.669 41.44 333.191 41.31 332.671 41.31C332.141 41.31 331.681 41.4425 331.291 41.7075C330.906 41.9725 330.609 42.3275 330.399 42.7725C330.194 43.2175 330.091 43.7075 330.091 44.2425C330.091 44.7875 330.196 45.2825 330.406 45.7275C330.616 46.1675 330.914 46.5175 331.299 46.7775C331.689 47.0375 332.146 47.1675 332.671 47.1675ZM337.536 45.1275V40.5H338.586V44.9175C338.586 45.3275 338.686 45.7 338.886 46.035C339.086 46.37 339.353 46.6375 339.688 46.8375C340.028 47.0375 340.401 47.1375 340.806 47.1375C341.216 47.1375 341.586 47.0375 341.916 46.8375C342.251 46.6375 342.518 46.37 342.718 46.035C342.918 45.7 343.018 45.3275 343.018 44.9175V40.5H344.068L344.076 48H343.026L343.018 46.95C342.753 47.33 342.408 47.6325 341.983 47.8575C341.563 48.0825 341.103 48.195 340.603 48.195C340.038 48.195 339.523 48.0575 339.058 47.7825C338.593 47.5075 338.223 47.1375 337.948 46.6725C337.673 46.2075 337.536 45.6925 337.536 45.1275ZM351.474 40.5H352.524V48.2775C352.524 48.7575 352.419 49.2075 352.209 49.6275C352.004 50.0475 351.724 50.415 351.369 50.73C351.019 51.05 350.619 51.3 350.169 51.48C349.719 51.66 349.251 51.75 348.766 51.75C348.246 51.75 347.744 51.63 347.259 51.39C346.774 51.155 346.351 50.84 345.991 50.445C345.636 50.05 345.384 49.6125 345.234 49.1325L346.201 48.69C346.296 49.065 346.474 49.4025 346.734 49.7025C346.999 50.0075 347.309 50.2475 347.664 50.4225C348.024 50.6025 348.391 50.6925 348.766 50.6925C349.111 50.6925 349.444 50.6275 349.764 50.4975C350.089 50.3725 350.379 50.2 350.634 49.98C350.894 49.76 351.099 49.5025 351.249 49.2075C351.399 48.9175 351.474 48.6075 351.474 48.2775V46.62C351.214 47.09 350.861 47.47 350.416 47.76C349.976 48.05 349.464 48.195 348.879 48.195C348.354 48.195 347.859 48.0925 347.394 47.8875C346.934 47.6825 346.529 47.4 346.179 47.04C345.829 46.675 345.554 46.255 345.354 45.78C345.159 45.305 345.061 44.795 345.061 44.25C345.061 43.705 345.159 43.195 345.354 42.72C345.554 42.24 345.829 41.82 346.179 41.46C346.529 41.095 346.934 40.81 347.394 40.605C347.859 40.4 348.354 40.2975 348.879 40.2975C349.464 40.2975 349.976 40.4425 350.416 40.7325C350.861 41.0175 351.214 41.3975 351.474 41.8725V40.5ZM348.886 47.175C349.406 47.175 349.854 47.04 350.229 46.77C350.609 46.5 350.901 46.1425 351.106 45.6975C351.311 45.2525 351.414 44.77 351.414 44.25C351.414 43.715 351.309 43.2275 351.099 42.7875C350.894 42.3425 350.601 41.9875 350.221 41.7225C349.841 41.4525 349.396 41.3175 348.886 41.3175C348.376 41.3175 347.911 41.45 347.491 41.715C347.076 41.975 346.746 42.3275 346.501 42.7725C346.256 43.2175 346.134 43.71 346.134 44.25C346.134 44.79 346.259 45.2825 346.509 45.7275C346.759 46.1675 347.091 46.52 347.506 46.785C347.926 47.045 348.386 47.175 348.886 47.175ZM356.647 48.1425C356.237 48.1325 355.837 48.0575 355.447 47.9175C355.057 47.7775 354.717 47.5875 354.427 47.3475C354.137 47.1075 353.93 46.835 353.805 46.53L354.712 46.14C354.792 46.335 354.94 46.515 355.155 46.68C355.375 46.84 355.625 46.97 355.905 47.07C356.185 47.165 356.462 47.2125 356.737 47.2125C357.042 47.2125 357.327 47.1625 357.592 47.0625C357.857 46.9625 358.072 46.82 358.237 46.635C358.407 46.445 358.492 46.2225 358.492 45.9675C358.492 45.6925 358.402 45.4775 358.222 45.3225C358.042 45.1625 357.815 45.0375 357.54 44.9475C357.265 44.8525 356.982 44.7625 356.692 44.6775C356.162 44.5325 355.695 44.3725 355.29 44.1975C354.885 44.0225 354.567 43.8 354.337 43.53C354.112 43.255 354 42.9025 354 42.4725C354 42.0175 354.127 41.625 354.382 41.295C354.642 40.96 354.98 40.7025 355.395 40.5225C355.815 40.3375 356.262 40.245 356.737 40.245C357.347 40.245 357.902 40.3775 358.402 40.6425C358.907 40.9075 359.272 41.26 359.497 41.7L358.65 42.2025C358.56 41.9975 358.417 41.82 358.222 41.67C358.027 41.52 357.805 41.4025 357.555 41.3175C357.31 41.2325 357.06 41.1875 356.805 41.1825C356.485 41.1775 356.187 41.225 355.912 41.325C355.637 41.42 355.415 41.5625 355.245 41.7525C355.08 41.9425 354.997 42.175 354.997 42.45C354.997 42.725 355.08 42.935 355.245 43.08C355.41 43.22 355.632 43.335 355.912 43.425C356.197 43.51 356.517 43.61 356.872 43.725C357.327 43.87 357.755 44.035 358.155 44.22C358.555 44.405 358.877 44.635 359.122 44.91C359.367 45.185 359.487 45.5325 359.482 45.9525C359.482 46.4025 359.347 46.795 359.077 47.13C358.807 47.465 358.457 47.7225 358.027 47.9025C357.597 48.0775 357.137 48.1575 356.647 48.1425ZM365.931 38.5425V40.5H368.181V41.55H365.931V48H364.881V41.55H363.854V40.5H364.881V38.5425C364.881 38.1775 364.969 37.8475 365.144 37.5525C365.324 37.2525 365.564 37.015 365.864 36.84C366.164 36.66 366.496 36.57 366.861 36.57C367.126 36.57 367.381 36.6225 367.626 36.7275C367.876 36.8325 368.099 36.9875 368.294 37.1925L367.544 37.935C367.464 37.835 367.361 37.7575 367.236 37.7025C367.116 37.6475 366.991 37.62 366.861 37.62C366.606 37.62 366.386 37.71 366.201 37.89C366.021 38.07 365.931 38.2875 365.931 38.5425ZM372.513 48.195C371.823 48.195 371.193 48.0175 370.623 47.6625C370.058 47.3075 369.605 46.8325 369.265 46.2375C368.93 45.6375 368.763 44.975 368.763 44.25C368.763 43.7 368.86 43.1875 369.055 42.7125C369.25 42.2325 369.518 41.8125 369.858 41.4525C370.203 41.0875 370.603 40.8025 371.058 40.5975C371.513 40.3925 371.998 40.29 372.513 40.29C373.203 40.29 373.83 40.4675 374.395 40.8225C374.965 41.1775 375.418 41.655 375.753 42.255C376.093 42.855 376.263 43.52 376.263 44.25C376.263 44.795 376.165 45.305 375.97 45.78C375.775 46.255 375.505 46.675 375.16 47.04C374.82 47.4 374.423 47.6825 373.968 47.8875C373.518 48.0925 373.033 48.195 372.513 48.195ZM372.513 47.145C373.023 47.145 373.48 47.0125 373.885 46.7475C374.295 46.4775 374.618 46.1225 374.853 45.6825C375.093 45.2425 375.213 44.765 375.213 44.25C375.213 43.725 375.093 43.2425 374.853 42.8025C374.613 42.3575 374.288 42.0025 373.878 41.7375C373.473 41.4725 373.018 41.34 372.513 41.34C372.003 41.34 371.543 41.475 371.133 41.745C370.728 42.01 370.405 42.3625 370.165 42.8025C369.93 43.2425 369.813 43.725 369.813 44.25C369.813 44.79 369.935 45.28 370.18 45.72C370.425 46.155 370.753 46.5025 371.163 46.7625C371.573 47.0175 372.023 47.145 372.513 47.145ZM377.16 45.1275V40.5H378.21V44.9175C378.21 45.3275 378.31 45.7 378.51 46.035C378.71 46.37 378.977 46.6375 379.312 46.8375C379.652 47.0375 380.025 47.1375 380.43 47.1375C380.84 47.1375 381.21 47.0375 381.54 46.8375C381.875 46.6375 382.142 46.37 382.342 46.035C382.542 45.7 382.642 45.3275 382.642 44.9175V40.5H383.692L383.7 48H382.65L382.642 46.95C382.377 47.33 382.032 47.6325 381.607 47.8575C381.187 48.0825 380.727 48.195 380.227 48.195C379.662 48.195 379.147 48.0575 378.682 47.7825C378.217 47.5075 377.847 47.1375 377.572 46.6725C377.297 46.2075 377.16 45.6925 377.16 45.1275ZM391.734 43.3575V48H390.684V43.5675C390.684 43.1575 390.584 42.785 390.384 42.45C390.184 42.115 389.916 41.8475 389.581 41.6475C389.246 41.4475 388.874 41.3475 388.464 41.3475C388.059 41.3475 387.686 41.4475 387.346 41.6475C387.011 41.8475 386.744 42.115 386.544 42.45C386.344 42.785 386.244 43.1575 386.244 43.5675V48H385.194V40.5H386.244V41.535C386.509 41.155 386.854 40.8525 387.279 40.6275C387.704 40.4025 388.166 40.29 388.666 40.29C389.231 40.29 389.746 40.4275 390.211 40.7025C390.676 40.9775 391.046 41.3475 391.321 41.8125C391.596 42.2775 391.734 42.7925 391.734 43.3575ZM399.262 36.75H400.312V48H399.262V46.5975C399.002 47.0775 398.644 47.465 398.189 47.76C397.739 48.05 397.204 48.195 396.584 48.195C396.039 48.195 395.529 48.0925 395.054 47.8875C394.579 47.6825 394.159 47.4 393.794 47.04C393.434 46.675 393.152 46.255 392.947 45.78C392.742 45.305 392.639 44.795 392.639 44.25C392.639 43.705 392.742 43.195 392.947 42.72C393.152 42.24 393.434 41.82 393.794 41.46C394.159 41.095 394.579 40.81 395.054 40.605C395.529 40.4 396.039 40.2975 396.584 40.2975C397.204 40.2975 397.739 40.445 398.189 40.74C398.644 41.03 399.002 41.4125 399.262 41.8875V36.75ZM396.592 47.175C397.127 47.175 397.587 47.045 397.972 46.785C398.357 46.52 398.652 46.165 398.857 45.72C399.067 45.275 399.172 44.785 399.172 44.25C399.172 43.7 399.067 43.205 398.857 42.765C398.647 42.32 398.349 41.9675 397.964 41.7075C397.579 41.4475 397.122 41.3175 396.592 41.3175C396.062 41.3175 395.579 41.45 395.144 41.715C394.709 41.975 394.362 42.3275 394.102 42.7725C393.842 43.2175 393.712 43.71 393.712 44.25C393.712 44.795 393.844 45.29 394.109 45.735C394.374 46.175 394.724 46.525 395.159 46.785C395.599 47.045 396.077 47.175 396.592 47.175ZM405.716 40.5H406.766V48H405.716V40.5ZM406.249 39.1875C406.079 39.1875 405.934 39.1325 405.814 39.0225C405.699 38.9075 405.641 38.765 405.641 38.595C405.641 38.425 405.699 38.285 405.814 38.175C405.934 38.06 406.079 38.0025 406.249 38.0025C406.414 38.0025 406.554 38.06 406.669 38.175C406.789 38.285 406.849 38.425 406.849 38.595C406.849 38.765 406.791 38.9075 406.676 39.0225C406.561 39.1325 406.419 39.1875 406.249 39.1875ZM415.084 43.3575V48H414.034V43.5675C414.034 43.1575 413.934 42.785 413.734 42.45C413.534 42.115 413.266 41.8475 412.931 41.6475C412.596 41.4475 412.224 41.3475 411.814 41.3475C411.409 41.3475 411.036 41.4475 410.696 41.6475C410.361 41.8475 410.094 42.115 409.894 42.45C409.694 42.785 409.594 43.1575 409.594 43.5675V48H408.544V40.5H409.594V41.535C409.859 41.155 410.204 40.8525 410.629 40.6275C411.054 40.4025 411.516 40.29 412.016 40.29C412.581 40.29 413.096 40.4275 413.561 40.7025C414.026 40.9775 414.396 41.3475 414.671 41.8125C414.946 42.2775 415.084 42.7925 415.084 43.3575ZM77.7325 64.55H75.94L75.9325 71H74.8825L74.89 64.55H73.5325V63.5H74.89L74.8825 61.145H75.9325L75.94 63.5H77.7325V64.55ZM85.6109 66.3575V71H84.5609V66.5675C84.5609 66.1575 84.4609 65.785 84.2609 65.45C84.0609 65.115 83.7934 64.8475 83.4584 64.6475C83.1234 64.4475 82.7509 64.3475 82.3409 64.3475C81.9359 64.3475 81.5634 64.4475 81.2234 64.6475C80.8884 64.8475 80.6209 65.115 80.4209 65.45C80.2209 65.785 80.1209 66.1575 80.1209 66.5675V71H79.0709V59.75H80.1209V64.535C80.3859 64.155 80.7309 63.8525 81.1559 63.6275C81.5809 63.4025 82.0434 63.29 82.5434 63.29C83.1084 63.29 83.6234 63.4275 84.0884 63.7025C84.5534 63.9775 84.9234 64.3475 85.1984 64.8125C85.4734 65.2775 85.6109 65.7925 85.6109 66.3575ZM90.2664 71.195C89.5764 71.195 88.9464 71.0175 88.3764 70.6625C87.8114 70.3075 87.3589 69.8325 87.0189 69.2375C86.6839 68.6375 86.5164 67.975 86.5164 67.25C86.5164 66.7 86.6139 66.1875 86.8089 65.7125C87.0039 65.2325 87.2714 64.8125 87.6114 64.4525C87.9564 64.0875 88.3564 63.8025 88.8114 63.5975C89.2664 63.3925 89.7514 63.29 90.2664 63.29C90.8214 63.29 91.3314 63.4 91.7964 63.62C92.2664 63.84 92.6689 64.1475 93.0039 64.5425C93.3439 64.9375 93.5989 65.4 93.7689 65.93C93.9439 66.46 94.0164 67.0325 93.9864 67.6475H87.6264C87.6864 68.1225 87.8364 68.5475 88.0764 68.9225C88.3214 69.2975 88.6314 69.595 89.0064 69.815C89.3864 70.03 89.8064 70.14 90.2664 70.145C90.7664 70.145 91.2164 70.015 91.6164 69.755C92.0214 69.495 92.3464 69.1375 92.5914 68.6825L93.6564 68.93C93.3564 69.595 92.9039 70.14 92.2989 70.565C91.6939 70.985 91.0164 71.195 90.2664 71.195ZM87.5964 66.8H92.9289C92.8939 66.335 92.7514 65.91 92.5014 65.525C92.2564 65.135 91.9389 64.825 91.5489 64.595C91.1589 64.36 90.7314 64.2425 90.2664 64.2425C89.8014 64.2425 89.3764 64.3575 88.9914 64.5875C88.6064 64.8125 88.2914 65.12 88.0464 65.51C87.8014 65.895 87.6514 66.325 87.5964 66.8ZM98.9488 71V63.5H99.9988V64.535C100.264 64.155 100.609 63.8525 101.034 63.6275C101.459 63.4025 101.921 63.29 102.421 63.29C102.711 63.29 102.991 63.3275 103.261 63.4025L102.834 64.445C102.624 64.38 102.419 64.3475 102.219 64.3475C101.814 64.3475 101.441 64.4475 101.101 64.6475C100.766 64.8475 100.499 65.115 100.299 65.45C100.099 65.785 99.9988 66.1575 99.9988 66.5675V71H98.9488ZM107.112 71.195C106.422 71.195 105.792 71.0175 105.222 70.6625C104.657 70.3075 104.205 69.8325 103.865 69.2375C103.53 68.6375 103.362 67.975 103.362 67.25C103.362 66.7 103.46 66.1875 103.655 65.7125C103.85 65.2325 104.117 64.8125 104.457 64.4525C104.802 64.0875 105.202 63.8025 105.657 63.5975C106.112 63.3925 106.597 63.29 107.112 63.29C107.667 63.29 108.177 63.4 108.642 63.62C109.112 63.84 109.515 64.1475 109.85 64.5425C110.19 64.9375 110.445 65.4 110.615 65.93C110.79 66.46 110.862 67.0325 110.832 67.6475H104.472C104.532 68.1225 104.682 68.5475 104.922 68.9225C105.167 69.2975 105.477 69.595 105.852 69.815C106.232 70.03 106.652 70.14 107.112 70.145C107.612 70.145 108.062 70.015 108.462 69.755C108.867 69.495 109.192 69.1375 109.437 68.6825L110.502 68.93C110.202 69.595 109.75 70.14 109.145 70.565C108.54 70.985 107.862 71.195 107.112 71.195ZM104.442 66.8H109.775C109.74 66.335 109.597 65.91 109.347 65.525C109.102 65.135 108.785 64.825 108.395 64.595C108.005 64.36 107.577 64.2425 107.112 64.2425C106.647 64.2425 106.222 64.3575 105.837 64.5875C105.452 64.8125 105.137 65.12 104.892 65.51C104.647 65.895 104.497 66.325 104.442 66.8ZM113.168 74.75H112.118V63.5H113.168V64.9025C113.428 64.4275 113.783 64.0425 114.233 63.7475C114.683 63.4525 115.218 63.305 115.838 63.305C116.383 63.305 116.893 63.4075 117.368 63.6125C117.848 63.8175 118.268 64.1025 118.628 64.4675C118.988 64.8275 119.27 65.245 119.475 65.72C119.68 66.195 119.783 66.705 119.783 67.25C119.783 67.795 119.68 68.3075 119.475 68.7875C119.27 69.2675 118.988 69.69 118.628 70.055C118.268 70.415 117.848 70.6975 117.368 70.9025C116.893 71.1075 116.383 71.21 115.838 71.21C115.218 71.21 114.683 71.0625 114.233 70.7675C113.783 70.4725 113.428 70.0875 113.168 69.6125V74.75ZM115.83 64.325C115.305 64.325 114.848 64.4575 114.458 64.7225C114.073 64.9825 113.775 65.3325 113.565 65.7725C113.355 66.2125 113.25 66.705 113.25 67.25C113.25 67.785 113.353 68.275 113.558 68.72C113.768 69.165 114.065 69.52 114.45 69.785C114.84 70.05 115.3 70.1825 115.83 70.1825C116.35 70.1825 116.828 70.0525 117.263 69.7925C117.703 69.5325 118.055 69.1825 118.32 68.7425C118.585 68.2975 118.718 67.8 118.718 67.25C118.718 66.715 118.588 66.2275 118.328 65.7875C118.068 65.3425 117.72 64.9875 117.285 64.7225C116.85 64.4575 116.365 64.325 115.83 64.325ZM124.28 71.195C123.59 71.195 122.96 71.0175 122.39 70.6625C121.825 70.3075 121.373 69.8325 121.033 69.2375C120.698 68.6375 120.53 67.975 120.53 67.25C120.53 66.7 120.628 66.1875 120.823 65.7125C121.018 65.2325 121.285 64.8125 121.625 64.4525C121.97 64.0875 122.37 63.8025 122.825 63.5975C123.28 63.3925 123.765 63.29 124.28 63.29C124.97 63.29 125.598 63.4675 126.163 63.8225C126.733 64.1775 127.185 64.655 127.52 65.255C127.86 65.855 128.03 66.52 128.03 67.25C128.03 67.795 127.933 68.305 127.738 68.78C127.543 69.255 127.273 69.675 126.928 70.04C126.588 70.4 126.19 70.6825 125.735 70.8875C125.285 71.0925 124.8 71.195 124.28 71.195ZM124.28 70.145C124.79 70.145 125.248 70.0125 125.653 69.7475C126.063 69.4775 126.385 69.1225 126.62 68.6825C126.86 68.2425 126.98 67.765 126.98 67.25C126.98 66.725 126.86 66.2425 126.62 65.8025C126.38 65.3575 126.055 65.0025 125.645 64.7375C125.24 64.4725 124.785 64.34 124.28 64.34C123.77 64.34 123.31 64.475 122.9 64.745C122.495 65.01 122.173 65.3625 121.933 65.8025C121.698 66.2425 121.58 66.725 121.58 67.25C121.58 67.79 121.703 68.28 121.948 68.72C122.193 69.155 122.52 69.5025 122.93 69.7625C123.34 70.0175 123.79 70.145 124.28 70.145ZM129.3 71V63.5H130.35V64.535C130.615 64.155 130.96 63.8525 131.385 63.6275C131.81 63.4025 132.273 63.29 132.773 63.29C133.063 63.29 133.343 63.3275 133.613 63.4025L133.185 64.445C132.975 64.38 132.77 64.3475 132.57 64.3475C132.165 64.3475 131.793 64.4475 131.453 64.6475C131.118 64.8475 130.85 65.115 130.65 65.45C130.45 65.785 130.35 66.1575 130.35 66.5675V71H129.3ZM138.494 64.55H136.702L136.694 71H135.644L135.652 64.55H134.294V63.5H135.652L135.644 61.145H136.694L136.702 63.5H138.494V64.55ZM139.979 71.195C139.814 71.195 139.674 71.135 139.559 71.015C139.444 70.9 139.386 70.7575 139.386 70.5875C139.386 70.4275 139.444 70.29 139.559 70.175C139.674 70.055 139.814 69.995 139.979 69.995C140.149 69.995 140.291 70.055 140.406 70.175C140.526 70.29 140.586 70.4275 140.586 70.5875C140.586 70.7575 140.526 70.9 140.406 71.015C140.291 71.135 140.149 71.195 139.979 71.195Z" fill="#141414"/>
<g filter="url(#filter1_d_6637_34794)">
<rect x="432" y="38" width="73" height="32" rx="8" fill="url(#paint2_radial_6637_34794)" fill-opacity="0.2"/>
<rect x="432" y="38" width="73" height="32" rx="8" fill="white"/>
<rect x="432.5" y="38.5" width="72" height="31" rx="7.5" stroke="#E6E6E6" stroke-linecap="round"/>
<path d="M450.308 60.208C449.551 60.208 448.839 60.0587 448.172 59.76C447.505 59.456 446.919 59.04 446.412 58.512C445.911 57.9787 445.516 57.36 445.228 56.656C444.945 55.952 444.804 55.2 444.804 54.4C444.804 53.6 444.945 52.848 445.228 52.144C445.516 51.44 445.911 50.824 446.412 50.296C446.919 49.7627 447.505 49.3467 448.172 49.048C448.839 48.744 449.551 48.592 450.308 48.592C451.215 48.592 452.049 48.8027 452.812 49.224C453.575 49.6453 454.207 50.2053 454.708 50.904L453.516 51.544C453.143 51.0533 452.671 50.664 452.1 50.376C451.535 50.0827 450.937 49.936 450.308 49.936C449.727 49.936 449.183 50.0533 448.676 50.288C448.175 50.5227 447.735 50.8453 447.356 51.256C446.977 51.6667 446.681 52.1413 446.468 52.68C446.255 53.2187 446.148 53.792 446.148 54.4C446.148 55.0133 446.255 55.5893 446.468 56.128C446.687 56.6667 446.985 57.1413 447.364 57.552C447.748 57.9627 448.191 58.2853 448.692 58.52C449.199 58.7493 449.737 58.864 450.308 58.864C450.959 58.864 451.561 58.7173 452.116 58.424C452.676 58.1253 453.143 57.736 453.516 57.256L454.708 57.904C454.207 58.6027 453.575 59.1627 452.812 59.584C452.049 60 451.215 60.208 450.308 60.208ZM462.306 52H463.65V60H462.306L462.25 58.648C461.999 59.112 461.653 59.488 461.21 59.776C460.773 60.064 460.25 60.208 459.642 60.208C459.055 60.208 458.506 60.0987 457.994 59.88C457.482 59.656 457.029 59.3493 456.634 58.96C456.245 58.5653 455.941 58.112 455.722 57.6C455.503 57.088 455.394 56.536 455.394 55.944C455.394 55.3733 455.501 54.8347 455.714 54.328C455.927 53.8213 456.223 53.3787 456.602 53C456.986 52.616 457.429 52.3173 457.93 52.104C458.431 51.8853 458.97 51.776 459.546 51.776C460.175 51.776 460.727 51.9253 461.202 52.224C461.677 52.5173 462.061 52.8987 462.354 53.368L462.306 52ZM459.618 58.904C460.146 58.904 460.602 58.776 460.986 58.52C461.375 58.2587 461.674 57.9067 461.882 57.464C462.095 57.0213 462.202 56.5333 462.202 56C462.202 55.456 462.095 54.9653 461.882 54.528C461.669 54.0853 461.367 53.736 460.978 53.48C460.594 53.2187 460.141 53.088 459.618 53.088C459.09 53.088 458.61 53.2187 458.178 53.48C457.746 53.7413 457.402 54.0933 457.146 54.536C456.895 54.9733 456.77 55.4613 456.77 56C456.77 56.5387 456.901 57.0293 457.162 57.472C457.423 57.9093 457.77 58.2587 458.202 58.52C458.634 58.776 459.106 58.904 459.618 58.904ZM472.321 55.024V60H470.977V55.32C470.977 54.9147 470.878 54.5467 470.681 54.216C470.484 53.8853 470.22 53.624 469.889 53.432C469.558 53.2347 469.19 53.136 468.785 53.136C468.385 53.136 468.017 53.2347 467.681 53.432C467.35 53.624 467.086 53.8853 466.889 54.216C466.692 54.5467 466.593 54.9147 466.593 55.32V60H465.249V52H466.593V53C466.876 52.6267 467.233 52.3307 467.665 52.112C468.097 51.888 468.566 51.776 469.073 51.776C469.67 51.776 470.214 51.9227 470.705 52.216C471.201 52.504 471.593 52.8933 471.881 53.384C472.174 53.8747 472.321 54.4213 472.321 55.024ZM479.277 57.888L480.477 58.536C480.114 59.0427 479.653 59.448 479.093 59.752C478.538 60.056 477.935 60.208 477.285 60.208C476.549 60.208 475.877 60.0187 475.269 59.64C474.666 59.2613 474.183 58.7547 473.821 58.12C473.463 57.48 473.285 56.7733 473.285 56C473.285 55.4133 473.389 54.8667 473.597 54.36C473.805 53.848 474.09 53.4 474.453 53.016C474.821 52.6267 475.247 52.3227 475.733 52.104C476.218 51.8853 476.735 51.776 477.285 51.776C477.935 51.776 478.538 51.928 479.093 52.232C479.653 52.536 480.114 52.944 480.477 53.456L479.277 54.104C479.021 53.7893 478.717 53.5467 478.365 53.376C478.013 53.2053 477.653 53.12 477.285 53.12C476.789 53.12 476.338 53.2533 475.933 53.52C475.533 53.7813 475.215 54.1307 474.981 54.568C474.746 55.0053 474.629 55.4827 474.629 56C474.629 56.5173 474.746 56.9947 474.981 57.432C475.221 57.864 475.541 58.2107 475.941 58.472C476.346 58.7333 476.794 58.864 477.285 58.864C477.679 58.864 478.05 58.7733 478.397 58.592C478.743 58.4107 479.037 58.176 479.277 57.888ZM485.3 60.208C484.564 60.208 483.892 60.0187 483.284 59.64C482.682 59.2613 482.199 58.7547 481.836 58.12C481.479 57.48 481.3 56.7733 481.3 56C481.3 55.4133 481.404 54.8667 481.612 54.36C481.82 53.848 482.106 53.4 482.468 53.016C482.836 52.6267 483.263 52.3227 483.748 52.104C484.234 51.8853 484.751 51.776 485.3 51.776C485.903 51.776 486.455 51.8987 486.956 52.144C487.463 52.384 487.895 52.72 488.252 53.152C488.615 53.584 488.884 54.0853 489.06 54.656C489.242 55.2267 489.308 55.8373 489.26 56.488H482.732C482.796 56.9413 482.946 57.3467 483.18 57.704C483.415 58.056 483.714 58.336 484.076 58.544C484.444 58.752 484.852 58.8587 485.3 58.864C485.78 58.864 486.215 58.7413 486.604 58.496C486.994 58.2453 487.308 57.904 487.548 57.472L488.916 57.792C488.596 58.5013 488.114 59.0827 487.468 59.536C486.823 59.984 486.1 60.208 485.3 60.208ZM482.692 55.432H487.908C487.866 54.984 487.722 54.576 487.476 54.208C487.231 53.8347 486.919 53.536 486.54 53.312C486.162 53.088 485.748 52.976 485.3 52.976C484.852 52.976 484.442 53.0853 484.068 53.304C483.695 53.5227 483.386 53.8187 483.14 54.192C482.9 54.56 482.751 54.9733 482.692 55.432ZM490.53 60V48H491.874V60H490.53Z" fill="#141414"/>
</g>
<g filter="url(#filter2_d_6637_34794)">
<rect x="518" y="38" width="73" height="32" rx="8" fill="url(#paint3_radial_6637_34794)" fill-opacity="0.2"/>
<rect x="518" y="38" width="73" height="32" rx="8" fill="#1F6744"/>
<rect x="518.5" y="38.5" width="72" height="31" rx="7.5" stroke="url(#paint4_linear_6637_34794)" stroke-linecap="round"/>
<path d="M536.183 60.208C535.426 60.208 534.714 60.0587 534.047 59.76C533.38 59.456 532.794 59.04 532.287 58.512C531.786 57.9787 531.391 57.36 531.103 56.656C530.82 55.952 530.679 55.2 530.679 54.4C530.679 53.6 530.82 52.848 531.103 52.144C531.391 51.44 531.786 50.824 532.287 50.296C532.794 49.7627 533.38 49.3467 534.047 49.048C534.714 48.744 535.426 48.592 536.183 48.592C537.09 48.592 537.924 48.8027 538.687 49.224C539.45 49.6453 540.082 50.2053 540.583 50.904L539.391 51.544C539.018 51.0533 538.546 50.664 537.975 50.376C537.41 50.0827 536.812 49.936 536.183 49.936C535.602 49.936 535.058 50.0533 534.551 50.288C534.05 50.5227 533.61 50.8453 533.231 51.256C532.852 51.6667 532.556 52.1413 532.343 52.68C532.13 53.2187 532.023 53.792 532.023 54.4C532.023 55.0133 532.13 55.5893 532.343 56.128C532.562 56.6667 532.86 57.1413 533.239 57.552C533.623 57.9627 534.066 58.2853 534.567 58.52C535.074 58.7493 535.612 58.864 536.183 58.864C536.834 58.864 537.436 58.7173 537.991 58.424C538.551 58.1253 539.018 57.736 539.391 57.256L540.583 57.904C540.082 58.6027 539.45 59.1627 538.687 59.584C537.924 60 537.09 60.208 536.183 60.208ZM542.155 60V52H543.499V53C543.782 52.6267 544.139 52.3307 544.571 52.112C545.003 51.888 545.473 51.776 545.979 51.776C546.289 51.776 546.587 51.816 546.875 51.896L546.331 53.24C546.113 53.1707 545.899 53.136 545.691 53.136C545.291 53.136 544.923 53.2347 544.587 53.432C544.257 53.624 543.993 53.8853 543.795 54.216C543.598 54.5467 543.499 54.9147 543.499 55.32V60H542.155ZM550.972 60.208C550.236 60.208 549.564 60.0187 548.956 59.64C548.354 59.2613 547.871 58.7547 547.508 58.12C547.151 57.48 546.972 56.7733 546.972 56C546.972 55.4133 547.076 54.8667 547.284 54.36C547.492 53.848 547.778 53.4 548.14 53.016C548.508 52.6267 548.935 52.3227 549.42 52.104C549.906 51.8853 550.423 51.776 550.972 51.776C551.575 51.776 552.127 51.8987 552.628 52.144C553.135 52.384 553.567 52.72 553.924 53.152C554.287 53.584 554.556 54.0853 554.732 54.656C554.914 55.2267 554.98 55.8373 554.932 56.488H548.404C548.468 56.9413 548.618 57.3467 548.852 57.704C549.087 58.056 549.386 58.336 549.748 58.544C550.116 58.752 550.524 58.8587 550.972 58.864C551.452 58.864 551.887 58.7413 552.276 58.496C552.666 58.2453 552.98 57.904 553.22 57.472L554.588 57.792C554.268 58.5013 553.786 59.0827 553.14 59.536C552.495 59.984 551.772 60.208 550.972 60.208ZM548.364 55.432H553.58C553.538 54.984 553.394 54.576 553.148 54.208C552.903 53.8347 552.591 53.536 552.212 53.312C551.834 53.088 551.42 52.976 550.972 52.976C550.524 52.976 550.114 53.0853 549.74 53.304C549.367 53.5227 549.058 53.8187 548.812 54.192C548.572 54.56 548.423 54.9733 548.364 55.432ZM562.665 52H564.009V60H562.665L562.609 58.648C562.359 59.112 562.012 59.488 561.569 59.776C561.132 60.064 560.609 60.208 560.001 60.208C559.415 60.208 558.865 60.0987 558.353 59.88C557.841 59.656 557.388 59.3493 556.993 58.96C556.604 58.5653 556.3 58.112 556.081 57.6C555.863 57.088 555.753 56.536 555.753 55.944C555.753 55.3733 555.86 54.8347 556.073 54.328C556.287 53.8213 556.583 53.3787 556.961 53C557.345 52.616 557.788 52.3173 558.289 52.104C558.791 51.8853 559.329 51.776 559.905 51.776C560.535 51.776 561.087 51.9253 561.561 52.224C562.036 52.5173 562.42 52.8987 562.713 53.368L562.665 52ZM559.977 58.904C560.505 58.904 560.961 58.776 561.345 58.52C561.735 58.2587 562.033 57.9067 562.241 57.464C562.455 57.0213 562.561 56.5333 562.561 56C562.561 55.456 562.455 54.9653 562.241 54.528C562.028 54.0853 561.727 53.736 561.337 53.48C560.953 53.2187 560.5 53.088 559.977 53.088C559.449 53.088 558.969 53.2187 558.537 53.48C558.105 53.7413 557.761 54.0933 557.505 54.536C557.255 54.9733 557.129 55.4613 557.129 56C557.129 56.5387 557.26 57.0293 557.521 57.472C557.783 57.9093 558.129 58.2587 558.561 58.52C558.993 58.776 559.465 58.904 559.977 58.904ZM569.752 53.344H567.936L567.928 60H566.584L566.592 53.344H565.216V52H566.592L566.584 49.488H567.928L567.936 52H569.752V53.344ZM574.503 60.208C573.767 60.208 573.095 60.0187 572.487 59.64C571.885 59.2613 571.402 58.7547 571.039 58.12C570.682 57.48 570.503 56.7733 570.503 56C570.503 55.4133 570.607 54.8667 570.815 54.36C571.023 53.848 571.309 53.4 571.671 53.016C572.039 52.6267 572.466 52.3227 572.951 52.104C573.437 51.8853 573.954 51.776 574.503 51.776C575.106 51.776 575.658 51.8987 576.159 52.144C576.666 52.384 577.098 52.72 577.455 53.152C577.818 53.584 578.087 54.0853 578.263 54.656C578.445 55.2267 578.511 55.8373 578.463 56.488H571.935C571.999 56.9413 572.149 57.3467 572.383 57.704C572.618 58.056 572.917 58.336 573.279 58.544C573.647 58.752 574.055 58.8587 574.503 58.864C574.983 58.864 575.418 58.7413 575.807 58.496C576.197 58.2453 576.511 57.904 576.751 57.472L578.119 57.792C577.799 58.5013 577.317 59.0827 576.671 59.536C576.026 59.984 575.303 60.208 574.503 60.208ZM571.895 55.432H577.111C577.069 54.984 576.925 54.576 576.679 54.208C576.434 53.8347 576.122 53.536 575.743 53.312C575.365 53.088 574.951 52.976 574.503 52.976C574.055 52.976 573.645 53.0853 573.271 53.304C572.898 53.5227 572.589 53.8187 572.343 54.192C572.103 54.56 571.954 54.9733 571.895 55.432Z" fill="#F6F6F6"/>
</g>
</g>
<defs>
<filter id="filter0_dddd_6637_34794" x="0" y="0" width="639" height="163" filterUnits="userSpaceOnUse" color-interpolation-filters="sRGB">
<feFlood flood-opacity="0" result="BackgroundImageFix"/>
<feColorMatrix in="SourceAlpha" type="matrix" values="0 0 0 0 0 0 0 0 0 0 0 0 0 0 0 0 0 0 127 0" result="hardAlpha"/>
<feOffset dy="3"/>
<feGaussianBlur stdDeviation="3"/>
<feColorMatrix type="matrix" values="0 0 0 0 0 0 0 0 0 0 0 0 0 0 0 0 0 0 0.1 0"/>
<feBlend mode="normal" in2="BackgroundImageFix" result="effect1_dropShadow_6637_34794"/>
<feColorMatrix in="SourceAlpha" type="matrix" values="0 0 0 0 0 0 0 0 0 0 0 0 0 0 0 0 0 0 127 0" result="hardAlpha"/>
<feOffset dy="11"/>
<feGaussianBlur stdDeviation="5.5"/>
<feColorMatrix type="matrix" values="0 0 0 0 0 0 0 0 0 0 0 0 0 0 0 0 0 0 0.09 0"/>
<feBlend mode="normal" in2="effect1_dropShadow_6637_34794" result="effect2_dropShadow_6637_34794"/>
<feColorMatrix in="SourceAlpha" type="matrix" values="0 0 0 0 0 0 0 0 0 0 0 0 0 0 0 0 0 0 127 0" result="hardAlpha"/>
<feOffset dy="24"/>
<feGaussianBlur stdDeviation="7"/>
<feColorMatrix type="matrix" values="0 0 0 0 0 0 0 0 0 0 0 0 0 0 0 0 0 0 0.05 0"/>
<feBlend mode="normal" in2="effect2_dropShadow_6637_34794" result="effect3_dropShadow_6637_34794"/>
<feColorMatrix in="SourceAlpha" type="matrix" values="0 0 0 0 0 0 0 0 0 0 0 0 0 0 0 0 0 0 127 0" result="hardAlpha"/>
<feOffset dy="42"/>
<feGaussianBlur stdDeviation="8.5"/>
<feColorMatrix type="matrix" values="0 0 0 0 0 0 0 0 0 0 0 0 0 0 0 0 0 0 0.01 0"/>
<feBlend mode="normal" in2="effect3_dropShadow_6637_34794" result="effect4_dropShadow_6637_34794"/>
<feBlend mode="normal" in="SourceGraphic" in2="effect4_dropShadow_6637_34794" result="shape"/>
</filter>
<filter id="filter1_d_6637_34794" x="431" y="37" width="75" height="34" filterUnits="userSpaceOnUse" color-interpolation-filters="sRGB">
<feFlood flood-opacity="0" result="BackgroundImageFix"/>
<feColorMatrix in="SourceAlpha" type="matrix" values="0 0 0 0 0 0 0 0 0 0 0 0 0 0 0 0 0 0 127 0" result="hardAlpha"/>
<feMorphology radius="1" operator="dilate" in="SourceAlpha" result="effect1_dropShadow_6637_34794"/>
<feOffset/>
<feComposite in2="hardAlpha" operator="out"/>
<feColorMatrix type="matrix" values="0 0 0 0 0.964706 0 0 0 0 0.964706 0 0 0 0 0.964706 0 0 0 1 0"/>
<feBlend mode="normal" in2="BackgroundImageFix" result="effect1_dropShadow_6637_34794"/>
<feBlend mode="normal" in="SourceGraphic" in2="effect1_dropShadow_6637_34794" result="shape"/>
</filter>
<filter id="filter2_d_6637_34794" x="517" y="37" width="75" height="34" filterUnits="userSpaceOnUse" color-interpolation-filters="sRGB">
<feFlood flood-opacity="0" result="BackgroundImageFix"/>
<feColorMatrix in="SourceAlpha" type="matrix" values="0 0 0 0 0 0 0 0 0 0 0 0 0 0 0 0 0 0 127 0" result="hardAlpha"/>
<feMorphology radius="1" operator="dilate" in="SourceAlpha" result="effect1_dropShadow_6637_34794"/>
<feOffset/>
<feComposite in2="hardAlpha" operator="out"/>
<feColorMatrix type="matrix" values="0 0 0 0 0.121569 0 0 0 0 0.403922 0 0 0 0 0.266667 0 0 0 1 0"/>
<feBlend mode="normal" in2="BackgroundImageFix" result="effect1_dropShadow_6637_34794"/>
<feBlend mode="normal" in="SourceGraphic" in2="effect1_dropShadow_6637_34794" result="shape"/>
</filter>
<linearGradient id="paint0_linear_6637_34794" x1="42.8408" y1="45.4144" x2="37.259" y2="50.9948" gradientUnits="userSpaceOnUse">
<stop stop-color="#0052CC"/>
<stop offset="1" stop-color="#2684FF"/>
</linearGradient>
<linearGradient id="paint1_linear_6637_34794" x1="47.0888" y1="62.5241" x2="52.6595" y2="56.9535" gradientUnits="userSpaceOnUse">
<stop stop-color="#0052CC"/>
<stop offset="1" stop-color="#2684FF"/>
</linearGradient>
<radialGradient id="paint2_radial_6637_34794" cx="0" cy="0" r="1" gradientUnits="userSpaceOnUse" gradientTransform="translate(468.5 54) rotate(90) scale(16 36.5)">
<stop offset="0.12" stop-color="white" stop-opacity="0"/>
<stop offset="0.24" stop-color="white"/>
</radialGradient>
<radialGradient id="paint3_radial_6637_34794" cx="0" cy="0" r="1" gradientUnits="userSpaceOnUse" gradientTransform="translate(554.5 54) rotate(90) scale(16 36.5)">
<stop offset="0.12" stop-color="white" stop-opacity="0"/>
<stop offset="0.24" stop-color="white"/>
</radialGradient>
<linearGradient id="paint4_linear_6637_34794" x1="554.5" y1="38" x2="554.5" y2="70" gradientUnits="userSpaceOnUse">
<stop stop-color="white" stop-opacity="0.3"/>
<stop offset="1" stop-color="white" stop-opacity="0"/>
</linearGradient>
<clipPath id="clip0_6637_34794">
<rect width="32" height="33" fill="white" transform="translate(29 37.5)"/>
</clipPath>
</defs>
</svg>
