<svg width="639" height="134" viewBox="0 0 639 134" fill="none" xmlns="http://www.w3.org/2000/svg">
<g filter="url(#filter0_dddd_6637_34825)">
<rect x="17" y="3" width="605" height="72" rx="16" fill="white"/>
<rect x="17.5" y="3.5" width="604" height="71" rx="15.5" stroke="#F6F6F6"/>
<g filter="url(#filter1_d_6637_34825)">
<rect x="565.5" y="21.5" width="35" height="35" rx="7.5" fill="url(#paint0_linear_6637_34825)" stroke="url(#paint1_linear_6637_34825)" stroke-linecap="round"/>
</g>
<path d="M588.247 41.821L589.652 37.6079C590.878 33.9274 591.492 32.0872 590.52 31.1158C589.549 30.1444 587.709 30.7578 584.028 31.9846L579.815 33.389C576.845 34.3792 575.359 34.8742 574.937 35.6002C574.536 36.2909 574.536 37.1439 574.937 37.8346C575.359 38.5606 576.845 39.0557 579.815 40.0458C580.292 40.2048 580.531 40.2843 580.73 40.4178C580.923 40.5471 581.089 40.713 581.218 40.9062C581.352 41.1056 581.431 41.3441 581.59 41.821C582.581 44.7915 583.076 46.2768 583.802 46.6988C584.492 47.1004 585.345 47.1004 586.036 46.6988C586.762 46.2768 587.257 44.7915 588.247 41.821Z" stroke="white" stroke-width="1.5"/>
<path d="M586.36 36.3367C586.654 36.0454 586.657 35.5705 586.366 35.276C586.075 34.9815 585.6 34.9789 585.305 35.2701L585.833 35.8034L586.36 36.3367ZM581.292 40.2934L581.82 40.8267L586.36 36.3367L585.833 35.8034L585.305 35.2701L580.765 39.7601L581.292 40.2934Z" fill="white"/>
<path d="M48.9791 45L47.9531 42.174H42.2831L41.2571 45H39.4751L44.1731 32.4H46.0631L50.7611 45H48.9791ZM42.8591 40.608H47.3771L45.1091 34.398L42.8591 40.608ZM53.3476 38.43C53.3476 38.778 53.5216 39.06 53.8696 39.276C54.2176 39.48 54.6376 39.648 55.1296 39.78C55.6216 39.9 56.1136 40.044 56.6056 40.212C57.0976 40.368 57.5176 40.644 57.8656 41.04C58.2136 41.424 58.3876 41.922 58.3876 42.534C58.3876 43.35 58.0696 44.004 57.4336 44.496C56.8096 44.988 56.0056 45.234 55.0216 45.234C54.1456 45.234 53.3956 45.042 52.7716 44.658C52.1476 44.274 51.7036 43.764 51.4396 43.128L52.7896 42.354C52.9336 42.786 53.2036 43.128 53.5996 43.38C53.9956 43.632 54.4696 43.758 55.0216 43.758C55.5376 43.758 55.9636 43.662 56.2996 43.47C56.6356 43.266 56.8036 42.954 56.8036 42.534C56.8036 42.186 56.6296 41.91 56.2816 41.706C55.9336 41.49 55.5136 41.322 55.0216 41.202C54.5296 41.07 54.0376 40.92 53.5456 40.752C53.0536 40.584 52.6336 40.308 52.2856 39.924C51.9376 39.54 51.7636 39.048 51.7636 38.448C51.7636 37.668 52.0636 37.026 52.6636 36.522C53.2756 36.018 54.0376 35.766 54.9496 35.766C55.6816 35.766 56.3296 35.934 56.8936 36.27C57.4696 36.594 57.9016 37.05 58.1896 37.638L56.8756 38.376C56.5516 37.608 55.9096 37.224 54.9496 37.224C54.5056 37.224 54.1276 37.332 53.8156 37.548C53.5036 37.752 53.3476 38.046 53.3476 38.43ZM67.7678 45H65.8238L61.7198 40.734V45H60.1538V32.4H61.7198V39.978L65.6078 36H67.6238L63.3218 40.356L67.7678 45ZM86.0361 38.754V39.51C86.0361 41.154 85.4721 42.522 84.3441 43.614C83.2161 44.694 81.7221 45.234 79.8621 45.234C77.9421 45.234 76.3521 44.604 75.0921 43.344C73.8441 42.072 73.2201 40.524 73.2201 38.7C73.2201 36.876 73.8441 35.334 75.0921 34.074C76.3521 32.802 77.9301 32.166 79.8261 32.166C80.9901 32.166 82.0581 32.448 83.0301 33.012C84.0021 33.564 84.7521 34.296 85.2801 35.208L83.8401 36.054C83.4801 35.37 82.9341 34.824 82.2021 34.416C81.4821 33.996 80.6841 33.786 79.8081 33.786C78.3681 33.786 77.1861 34.26 76.2621 35.208C75.3381 36.144 74.8761 37.308 74.8761 38.7C74.8761 40.092 75.3381 41.256 76.2621 42.192C77.1981 43.128 78.4041 43.596 79.8801 43.596C81.1401 43.596 82.1601 43.29 82.9401 42.678C83.7201 42.054 84.1941 41.25 84.3621 40.266H79.7361V38.754H86.0361ZM95.3617 36H96.9277V45H95.3617V43.452C94.5817 44.64 93.4477 45.234 91.9597 45.234C90.6997 45.234 89.6257 44.778 88.7377 43.866C87.8497 42.942 87.4057 41.82 87.4057 40.5C87.4057 39.18 87.8497 38.064 88.7377 37.152C89.6257 36.228 90.6997 35.766 91.9597 35.766C93.4477 35.766 94.5817 36.36 95.3617 37.548V36ZM92.1577 43.722C93.0697 43.722 93.8317 43.416 94.4437 42.804C95.0557 42.18 95.3617 41.412 95.3617 40.5C95.3617 39.588 95.0557 38.826 94.4437 38.214C93.8317 37.59 93.0697 37.278 92.1577 37.278C91.2577 37.278 90.5017 37.59 89.8897 38.214C89.2777 38.826 88.9717 39.588 88.9717 40.5C88.9717 41.412 89.2777 42.18 89.8897 42.804C90.5017 43.416 91.2577 43.722 92.1577 43.722ZM109.02 35.766C110.028 35.766 110.844 36.096 111.468 36.756C112.092 37.404 112.404 38.286 112.404 39.402V45H110.838V39.456C110.838 38.76 110.658 38.22 110.298 37.836C109.938 37.452 109.458 37.26 108.858 37.26C108.186 37.26 107.646 37.488 107.238 37.944C106.842 38.388 106.644 39.072 106.644 39.996V45H105.078V39.456C105.078 38.76 104.904 38.22 104.556 37.836C104.22 37.452 103.758 37.26 103.17 37.26C102.51 37.26 101.958 37.488 101.514 37.944C101.082 38.4 100.866 39.084 100.866 39.996V45H99.3003V36H100.866V37.206C101.478 36.246 102.372 35.766 103.548 35.766C104.76 35.766 105.642 36.276 106.194 37.296C106.818 36.276 107.76 35.766 109.02 35.766ZM115.674 41.22C115.83 42.024 116.196 42.648 116.772 43.092C117.36 43.536 118.08 43.758 118.932 43.758C120.12 43.758 120.984 43.32 121.524 42.444L122.856 43.2C121.98 44.556 120.66 45.234 118.896 45.234C117.468 45.234 116.304 44.79 115.404 43.902C114.516 43.002 114.072 41.868 114.072 40.5C114.072 39.144 114.51 38.016 115.386 37.116C116.262 36.216 117.396 35.766 118.788 35.766C120.108 35.766 121.182 36.234 122.01 37.17C122.85 38.094 123.27 39.21 123.27 40.518C123.27 40.746 123.252 40.98 123.216 41.22H115.674ZM118.788 37.242C117.948 37.242 117.252 37.482 116.7 37.962C116.148 38.43 115.806 39.06 115.674 39.852H121.686C121.554 39 121.218 38.352 120.678 37.908C120.138 37.464 119.508 37.242 118.788 37.242ZM129.804 32.4C130.968 32.4 131.934 32.79 132.702 33.57C133.482 34.338 133.872 35.298 133.872 36.45C133.872 37.59 133.482 38.55 132.702 39.33C131.934 40.11 130.968 40.5 129.804 40.5H126.906V45H125.232V32.4H129.804ZM129.804 38.934C130.5 38.934 131.076 38.7 131.532 38.232C131.988 37.752 132.216 37.158 132.216 36.45C132.216 35.73 131.988 35.136 131.532 34.668C131.076 34.2 130.5 33.966 129.804 33.966H126.906V38.934H129.804ZM142.453 36H144.019V45H142.453V43.452C141.673 44.64 140.539 45.234 139.051 45.234C137.791 45.234 136.717 44.778 135.829 43.866C134.941 42.942 134.497 41.82 134.497 40.5C134.497 39.18 134.941 38.064 135.829 37.152C136.717 36.228 137.791 35.766 139.051 35.766C140.539 35.766 141.673 36.36 142.453 37.548V36ZM139.249 43.722C140.161 43.722 140.923 43.416 141.535 42.804C142.147 42.18 142.453 41.412 142.453 40.5C142.453 39.588 142.147 38.826 141.535 38.214C140.923 37.59 140.161 37.278 139.249 37.278C138.349 37.278 137.593 37.59 136.981 38.214C136.369 38.826 136.063 39.588 136.063 40.5C136.063 41.412 136.369 42.18 136.981 42.804C137.593 43.416 138.349 43.722 139.249 43.722ZM150.622 45.234C149.266 45.234 148.138 44.784 147.238 43.884C146.338 42.972 145.888 41.844 145.888 40.5C145.888 39.156 146.338 38.034 147.238 37.134C148.138 36.222 149.266 35.766 150.622 35.766C151.51 35.766 152.308 35.982 153.016 36.414C153.724 36.834 154.252 37.404 154.6 38.124L153.286 38.88C153.058 38.4 152.704 38.016 152.224 37.728C151.756 37.44 151.222 37.296 150.622 37.296C149.722 37.296 148.966 37.602 148.354 38.214C147.754 38.826 147.454 39.588 147.454 40.5C147.454 41.4 147.754 42.156 148.354 42.768C148.966 43.38 149.722 43.686 150.622 43.686C151.222 43.686 151.762 43.548 152.242 43.272C152.722 42.984 153.088 42.6 153.34 42.12L154.672 42.894C154.288 43.602 153.736 44.172 153.016 44.604C152.296 45.024 151.498 45.234 150.622 45.234ZM165.632 37.512H163.238V42.39C163.238 42.834 163.322 43.152 163.49 43.344C163.67 43.524 163.94 43.62 164.3 43.632C164.66 43.632 165.104 43.62 165.632 43.596V45C164.264 45.18 163.262 45.072 162.626 44.676C161.99 44.268 161.672 43.506 161.672 42.39V37.512H159.89V36H161.672V33.948L163.238 33.48V36H165.632V37.512ZM174.625 43.866C173.701 44.778 172.579 45.234 171.259 45.234C169.939 45.234 168.817 44.778 167.893 43.866C166.981 42.954 166.525 41.832 166.525 40.5C166.525 39.168 166.981 38.046 167.893 37.134C168.817 36.222 169.939 35.766 171.259 35.766C172.579 35.766 173.701 36.222 174.625 37.134C175.549 38.046 176.011 39.168 176.011 40.5C176.011 41.832 175.549 42.954 174.625 43.866ZM171.259 43.704C172.159 43.704 172.915 43.398 173.527 42.786C174.139 42.174 174.445 41.412 174.445 40.5C174.445 39.588 174.139 38.826 173.527 38.214C172.915 37.602 172.159 37.296 171.259 37.296C170.371 37.296 169.621 37.602 169.009 38.214C168.397 38.826 168.091 39.588 168.091 40.5C168.091 41.412 168.397 42.174 169.009 42.786C169.621 43.398 170.371 43.704 171.259 43.704Z" fill="#6D6D6D"/>
<path d="M184.714 48.6V32.04H186.28V48.6H184.714Z" fill="#141414"/>
</g>
<defs>
<filter id="filter0_dddd_6637_34825" x="0" y="0" width="639" height="134" filterUnits="userSpaceOnUse" color-interpolation-filters="sRGB">
<feFlood flood-opacity="0" result="BackgroundImageFix"/>
<feColorMatrix in="SourceAlpha" type="matrix" values="0 0 0 0 0 0 0 0 0 0 0 0 0 0 0 0 0 0 127 0" result="hardAlpha"/>
<feOffset dy="3"/>
<feGaussianBlur stdDeviation="3"/>
<feColorMatrix type="matrix" values="0 0 0 0 0 0 0 0 0 0 0 0 0 0 0 0 0 0 0.1 0"/>
<feBlend mode="normal" in2="BackgroundImageFix" result="effect1_dropShadow_6637_34825"/>
<feColorMatrix in="SourceAlpha" type="matrix" values="0 0 0 0 0 0 0 0 0 0 0 0 0 0 0 0 0 0 127 0" result="hardAlpha"/>
<feOffset dy="11"/>
<feGaussianBlur stdDeviation="5.5"/>
<feColorMatrix type="matrix" values="0 0 0 0 0 0 0 0 0 0 0 0 0 0 0 0 0 0 0.09 0"/>
<feBlend mode="normal" in2="effect1_dropShadow_6637_34825" result="effect2_dropShadow_6637_34825"/>
<feColorMatrix in="SourceAlpha" type="matrix" values="0 0 0 0 0 0 0 0 0 0 0 0 0 0 0 0 0 0 127 0" result="hardAlpha"/>
<feOffset dy="24"/>
<feGaussianBlur stdDeviation="7"/>
<feColorMatrix type="matrix" values="0 0 0 0 0 0 0 0 0 0 0 0 0 0 0 0 0 0 0.05 0"/>
<feBlend mode="normal" in2="effect2_dropShadow_6637_34825" result="effect3_dropShadow_6637_34825"/>
<feColorMatrix in="SourceAlpha" type="matrix" values="0 0 0 0 0 0 0 0 0 0 0 0 0 0 0 0 0 0 127 0" result="hardAlpha"/>
<feOffset dy="42"/>
<feGaussianBlur stdDeviation="8.5"/>
<feColorMatrix type="matrix" values="0 0 0 0 0 0 0 0 0 0 0 0 0 0 0 0 0 0 0.01 0"/>
<feBlend mode="normal" in2="effect3_dropShadow_6637_34825" result="effect4_dropShadow_6637_34825"/>
<feBlend mode="normal" in="SourceGraphic" in2="effect4_dropShadow_6637_34825" result="shape"/>
</filter>
<filter id="filter1_d_6637_34825" x="565" y="21" width="36" height="36" filterUnits="userSpaceOnUse" color-interpolation-filters="sRGB">
<feFlood flood-opacity="0" result="BackgroundImageFix"/>
<feColorMatrix in="SourceAlpha" type="matrix" values="0 0 0 0 0 0 0 0 0 0 0 0 0 0 0 0 0 0 127 0" result="hardAlpha"/>
<feOffset/>
<feComposite in2="hardAlpha" operator="out"/>
<feColorMatrix type="matrix" values="0 0 0 0 0.121569 0 0 0 0 0.403922 0 0 0 0 0.266667 0 0 0 1 0"/>
<feBlend mode="normal" in2="BackgroundImageFix" result="effect1_dropShadow_6637_34825"/>
<feBlend mode="normal" in="SourceGraphic" in2="effect1_dropShadow_6637_34825" result="shape"/>
</filter>
<linearGradient id="paint0_linear_6637_34825" x1="589.136" y1="55.7727" x2="569.091" y2="16.9091" gradientUnits="userSpaceOnUse">
<stop stop-color="#11A85F"/>
<stop offset="1" stop-color="#1F6744"/>
</linearGradient>
<linearGradient id="paint1_linear_6637_34825" x1="583" y1="21" x2="583" y2="57" gradientUnits="userSpaceOnUse">
<stop stop-color="white" stop-opacity="0.3"/>
<stop offset="1" stop-color="white" stop-opacity="0"/>
</linearGradient>
</defs>
</svg>
