<svg width="639" height="134" viewBox="0 0 639 134" fill="none" xmlns="http://www.w3.org/2000/svg">
<g filter="url(#filter0_dddd_6972_37855)">
<rect x="17" y="3" width="605" height="72" rx="16" fill="white"/>
<rect x="17.5" y="3.5" width="604" height="71" rx="15.5" stroke="#F6F6F6"/>
<g filter="url(#filter1_d_6972_37855)">
<rect x="565.5" y="21.5" width="35" height="35" rx="7.5" fill="url(#paint0_linear_6972_37855)" stroke="url(#paint1_linear_6972_37855)" stroke-linecap="round"/>
</g>
<path d="M588.247 41.8211L589.652 37.608C590.878 33.9275 591.492 32.0873 590.52 31.1159C589.549 30.1445 587.709 30.7579 584.028 31.9847L579.815 33.3891C576.845 34.3793 575.359 34.8744 574.937 35.6004C574.536 36.291 574.536 37.144 574.937 37.8347C575.359 38.5607 576.845 39.0558 579.815 40.046C580.292 40.205 580.531 40.2845 580.73 40.4179C580.923 40.5472 581.089 40.7132 581.218 40.9064C581.352 41.1057 581.431 41.3442 581.59 41.8211C582.581 44.7916 583.076 46.2769 583.802 46.699C584.492 47.1005 585.345 47.1005 586.036 46.699C586.762 46.2769 587.257 44.7916 588.247 41.8211Z" stroke="white" stroke-width="1.5"/>
<path d="M586.36 36.3367C586.654 36.0455 586.657 35.5706 586.366 35.2761C586.075 34.9816 585.6 34.9789 585.305 35.2702L585.833 35.8035L586.36 36.3367ZM581.292 40.2935L581.82 40.8267L586.36 36.3367L585.833 35.8035L585.305 35.2702L580.765 39.7602L581.292 40.2935Z" fill="white"/>
<path d="M48.9791 45L47.9531 42.174H42.2831L41.2571 45H39.4751L44.1731 32.4H46.0631L50.7611 45H48.9791ZM42.8591 40.608H47.3771L45.1091 34.398L42.8591 40.608ZM53.3476 38.43C53.3476 38.778 53.5216 39.06 53.8696 39.276C54.2176 39.48 54.6376 39.648 55.1296 39.78C55.6216 39.9 56.1136 40.044 56.6056 40.212C57.0976 40.368 57.5176 40.644 57.8656 41.04C58.2136 41.424 58.3876 41.922 58.3876 42.534C58.3876 43.35 58.0696 44.004 57.4336 44.496C56.8096 44.988 56.0056 45.234 55.0216 45.234C54.1456 45.234 53.3956 45.042 52.7716 44.658C52.1476 44.274 51.7036 43.764 51.4396 43.128L52.7896 42.354C52.9336 42.786 53.2036 43.128 53.5996 43.38C53.9956 43.632 54.4696 43.758 55.0216 43.758C55.5376 43.758 55.9636 43.662 56.2996 43.47C56.6356 43.266 56.8036 42.954 56.8036 42.534C56.8036 42.186 56.6296 41.91 56.2816 41.706C55.9336 41.49 55.5136 41.322 55.0216 41.202C54.5296 41.07 54.0376 40.92 53.5456 40.752C53.0536 40.584 52.6336 40.308 52.2856 39.924C51.9376 39.54 51.7636 39.048 51.7636 38.448C51.7636 37.668 52.0636 37.026 52.6636 36.522C53.2756 36.018 54.0376 35.766 54.9496 35.766C55.6816 35.766 56.3296 35.934 56.8936 36.27C57.4696 36.594 57.9016 37.05 58.1896 37.638L56.8756 38.376C56.5516 37.608 55.9096 37.224 54.9496 37.224C54.5056 37.224 54.1276 37.332 53.8156 37.548C53.5036 37.752 53.3476 38.046 53.3476 38.43ZM67.7678 45H65.8238L61.7198 40.734V45H60.1538V32.4H61.7198V39.978L65.6078 36H67.6238L63.3218 40.356L67.7678 45ZM86.0361 38.754V39.51C86.0361 41.154 85.4721 42.522 84.3441 43.614C83.2161 44.694 81.7221 45.234 79.8621 45.234C77.9421 45.234 76.3521 44.604 75.0921 43.344C73.8441 42.072 73.2201 40.524 73.2201 38.7C73.2201 36.876 73.8441 35.334 75.0921 34.074C76.3521 32.802 77.9301 32.166 79.8261 32.166C80.9901 32.166 82.0581 32.448 83.0301 33.012C84.0021 33.564 84.7521 34.296 85.2801 35.208L83.8401 36.054C83.4801 35.37 82.9341 34.824 82.2021 34.416C81.4821 33.996 80.6841 33.786 79.8081 33.786C78.3681 33.786 77.1861 34.26 76.2621 35.208C75.3381 36.144 74.8761 37.308 74.8761 38.7C74.8761 40.092 75.3381 41.256 76.2621 42.192C77.1981 43.128 78.4041 43.596 79.8801 43.596C81.1401 43.596 82.1601 43.29 82.9401 42.678C83.7201 42.054 84.1941 41.25 84.3621 40.266H79.7361V38.754H86.0361ZM95.3617 36H96.9277V45H95.3617V43.452C94.5817 44.64 93.4477 45.234 91.9597 45.234C90.6997 45.234 89.6257 44.778 88.7377 43.866C87.8497 42.942 87.4057 41.82 87.4057 40.5C87.4057 39.18 87.8497 38.064 88.7377 37.152C89.6257 36.228 90.6997 35.766 91.9597 35.766C93.4477 35.766 94.5817 36.36 95.3617 37.548V36ZM92.1577 43.722C93.0697 43.722 93.8317 43.416 94.4437 42.804C95.0557 42.18 95.3617 41.412 95.3617 40.5C95.3617 39.588 95.0557 38.826 94.4437 38.214C93.8317 37.59 93.0697 37.278 92.1577 37.278C91.2577 37.278 90.5017 37.59 89.8897 38.214C89.2777 38.826 88.9717 39.588 88.9717 40.5C88.9717 41.412 89.2777 42.18 89.8897 42.804C90.5017 43.416 91.2577 43.722 92.1577 43.722ZM109.02 35.766C110.028 35.766 110.844 36.096 111.468 36.756C112.092 37.404 112.404 38.286 112.404 39.402V45H110.838V39.456C110.838 38.76 110.658 38.22 110.298 37.836C109.938 37.452 109.458 37.26 108.858 37.26C108.186 37.26 107.646 37.488 107.238 37.944C106.842 38.388 106.644 39.072 106.644 39.996V45H105.078V39.456C105.078 38.76 104.904 38.22 104.556 37.836C104.22 37.452 103.758 37.26 103.17 37.26C102.51 37.26 101.958 37.488 101.514 37.944C101.082 38.4 100.866 39.084 100.866 39.996V45H99.3003V36H100.866V37.206C101.478 36.246 102.372 35.766 103.548 35.766C104.76 35.766 105.642 36.276 106.194 37.296C106.818 36.276 107.76 35.766 109.02 35.766ZM115.674 41.22C115.83 42.024 116.196 42.648 116.772 43.092C117.36 43.536 118.08 43.758 118.932 43.758C120.12 43.758 120.984 43.32 121.524 42.444L122.856 43.2C121.98 44.556 120.66 45.234 118.896 45.234C117.468 45.234 116.304 44.79 115.404 43.902C114.516 43.002 114.072 41.868 114.072 40.5C114.072 39.144 114.51 38.016 115.386 37.116C116.262 36.216 117.396 35.766 118.788 35.766C120.108 35.766 121.182 36.234 122.01 37.17C122.85 38.094 123.27 39.21 123.27 40.518C123.27 40.746 123.252 40.98 123.216 41.22H115.674ZM118.788 37.242C117.948 37.242 117.252 37.482 116.7 37.962C116.148 38.43 115.806 39.06 115.674 39.852H121.686C121.554 39 121.218 38.352 120.678 37.908C120.138 37.464 119.508 37.242 118.788 37.242ZM129.804 32.4C130.968 32.4 131.934 32.79 132.702 33.57C133.482 34.338 133.872 35.298 133.872 36.45C133.872 37.59 133.482 38.55 132.702 39.33C131.934 40.11 130.968 40.5 129.804 40.5H126.906V45H125.232V32.4H129.804ZM129.804 38.934C130.5 38.934 131.076 38.7 131.532 38.232C131.988 37.752 132.216 37.158 132.216 36.45C132.216 35.73 131.988 35.136 131.532 34.668C131.076 34.2 130.5 33.966 129.804 33.966H126.906V38.934H129.804ZM142.453 36H144.019V45H142.453V43.452C141.673 44.64 140.539 45.234 139.051 45.234C137.791 45.234 136.717 44.778 135.829 43.866C134.941 42.942 134.497 41.82 134.497 40.5C134.497 39.18 134.941 38.064 135.829 37.152C136.717 36.228 137.791 35.766 139.051 35.766C140.539 35.766 141.673 36.36 142.453 37.548V36ZM139.249 43.722C140.161 43.722 140.923 43.416 141.535 42.804C142.147 42.18 142.453 41.412 142.453 40.5C142.453 39.588 142.147 38.826 141.535 38.214C140.923 37.59 140.161 37.278 139.249 37.278C138.349 37.278 137.593 37.59 136.981 38.214C136.369 38.826 136.063 39.588 136.063 40.5C136.063 41.412 136.369 42.18 136.981 42.804C137.593 43.416 138.349 43.722 139.249 43.722ZM150.622 45.234C149.266 45.234 148.138 44.784 147.238 43.884C146.338 42.972 145.888 41.844 145.888 40.5C145.888 39.156 146.338 38.034 147.238 37.134C148.138 36.222 149.266 35.766 150.622 35.766C151.51 35.766 152.308 35.982 153.016 36.414C153.724 36.834 154.252 37.404 154.6 38.124L153.286 38.88C153.058 38.4 152.704 38.016 152.224 37.728C151.756 37.44 151.222 37.296 150.622 37.296C149.722 37.296 148.966 37.602 148.354 38.214C147.754 38.826 147.454 39.588 147.454 40.5C147.454 41.4 147.754 42.156 148.354 42.768C148.966 43.38 149.722 43.686 150.622 43.686C151.222 43.686 151.762 43.548 152.242 43.272C152.722 42.984 153.088 42.6 153.34 42.12L154.672 42.894C154.288 43.602 153.736 44.172 153.016 44.604C152.296 45.024 151.498 45.234 150.622 45.234ZM165.632 37.512H163.238V42.39C163.238 42.834 163.322 43.152 163.49 43.344C163.67 43.524 163.94 43.62 164.3 43.632C164.66 43.632 165.104 43.62 165.632 43.596V45C164.264 45.18 163.262 45.072 162.626 44.676C161.99 44.268 161.672 43.506 161.672 42.39V37.512H159.89V36H161.672V33.948L163.238 33.48V36H165.632V37.512ZM174.625 43.866C173.701 44.778 172.579 45.234 171.259 45.234C169.939 45.234 168.817 44.778 167.893 43.866C166.981 42.954 166.525 41.832 166.525 40.5C166.525 39.168 166.981 38.046 167.893 37.134C168.817 36.222 169.939 35.766 171.259 35.766C172.579 35.766 173.701 36.222 174.625 37.134C175.549 38.046 176.011 39.168 176.011 40.5C176.011 41.832 175.549 42.954 174.625 43.866ZM171.259 43.704C172.159 43.704 172.915 43.398 173.527 42.786C174.139 42.174 174.445 41.412 174.445 40.5C174.445 39.588 174.139 38.826 173.527 38.214C172.915 37.602 172.159 37.296 171.259 37.296C170.371 37.296 169.621 37.602 169.009 38.214C168.397 38.826 168.091 39.588 168.091 40.5C168.091 41.412 168.397 42.174 169.009 42.786C169.621 43.398 170.371 43.704 171.259 43.704Z" fill="#6D6D6D"/>
<path d="M194.725 36H196.273V44.622C196.273 45.954 195.823 46.986 194.923 47.718C194.023 48.462 192.943 48.834 191.683 48.834C190.675 48.834 189.805 48.642 189.073 48.258C188.341 47.886 187.789 47.346 187.417 46.638L188.785 45.864C189.277 46.872 190.255 47.376 191.719 47.376C192.655 47.376 193.387 47.13 193.915 46.638C194.455 46.146 194.725 45.474 194.725 44.622V43.344C193.933 44.544 192.805 45.144 191.341 45.144C190.057 45.144 188.971 44.688 188.083 43.776C187.195 42.864 186.751 41.754 186.751 40.446C186.751 39.138 187.195 38.034 188.083 37.134C188.971 36.222 190.057 35.766 191.341 35.766C192.817 35.766 193.945 36.36 194.725 37.548V36ZM189.235 42.732C189.847 43.344 190.609 43.65 191.521 43.65C192.433 43.65 193.195 43.344 193.807 42.732C194.419 42.12 194.725 41.358 194.725 40.446C194.725 39.546 194.419 38.79 193.807 38.178C193.195 37.566 192.433 37.26 191.521 37.26C190.609 37.26 189.847 37.566 189.235 38.178C188.623 38.79 188.317 39.546 188.317 40.446C188.317 41.358 188.623 42.12 189.235 42.732ZM199.744 41.22C199.9 42.024 200.266 42.648 200.842 43.092C201.43 43.536 202.15 43.758 203.002 43.758C204.19 43.758 205.054 43.32 205.594 42.444L206.926 43.2C206.05 44.556 204.73 45.234 202.966 45.234C201.538 45.234 200.374 44.79 199.474 43.902C198.586 43.002 198.142 41.868 198.142 40.5C198.142 39.144 198.58 38.016 199.456 37.116C200.332 36.216 201.466 35.766 202.858 35.766C204.178 35.766 205.252 36.234 206.08 37.17C206.92 38.094 207.34 39.21 207.34 40.518C207.34 40.746 207.322 40.98 207.286 41.22H199.744ZM202.858 37.242C202.018 37.242 201.322 37.482 200.77 37.962C200.218 38.43 199.876 39.06 199.744 39.852H205.756C205.624 39 205.288 38.352 204.748 37.908C204.208 37.464 203.578 37.242 202.858 37.242ZM213.622 35.766C214.678 35.766 215.524 36.102 216.16 36.774C216.796 37.434 217.114 38.334 217.114 39.474V45H215.548V39.564C215.548 38.832 215.35 38.268 214.954 37.872C214.558 37.464 214.012 37.26 213.316 37.26C212.536 37.26 211.906 37.506 211.426 37.998C210.946 38.478 210.706 39.222 210.706 40.23V45H209.14V36H210.706V37.296C211.342 36.276 212.314 35.766 213.622 35.766ZM220.398 41.22C220.554 42.024 220.92 42.648 221.496 43.092C222.084 43.536 222.804 43.758 223.656 43.758C224.844 43.758 225.708 43.32 226.248 42.444L227.58 43.2C226.704 44.556 225.384 45.234 223.62 45.234C222.192 45.234 221.028 44.79 220.128 43.902C219.24 43.002 218.796 41.868 218.796 40.5C218.796 39.144 219.234 38.016 220.11 37.116C220.986 36.216 222.12 35.766 223.512 35.766C224.832 35.766 225.906 36.234 226.734 37.17C227.574 38.094 227.994 39.21 227.994 40.518C227.994 40.746 227.976 40.98 227.94 41.22H220.398ZM223.512 37.242C222.672 37.242 221.976 37.482 221.424 37.962C220.872 38.43 220.53 39.06 220.398 39.852H226.41C226.278 39 225.942 38.352 225.402 37.908C224.862 37.464 224.232 37.242 223.512 37.242ZM231.36 37.512C231.876 36.396 232.812 35.838 234.168 35.838V37.476C233.4 37.44 232.74 37.644 232.188 38.088C231.636 38.532 231.36 39.246 231.36 40.23V45H229.794V36H231.36V37.512ZM242.661 36H244.227V45H242.661V43.452C241.881 44.64 240.747 45.234 239.259 45.234C237.999 45.234 236.925 44.778 236.037 43.866C235.149 42.942 234.705 41.82 234.705 40.5C234.705 39.18 235.149 38.064 236.037 37.152C236.925 36.228 237.999 35.766 239.259 35.766C240.747 35.766 241.881 36.36 242.661 37.548V36ZM239.457 43.722C240.369 43.722 241.131 43.416 241.743 42.804C242.355 42.18 242.661 41.412 242.661 40.5C242.661 39.588 242.355 38.826 241.743 38.214C241.131 37.59 240.369 37.278 239.457 37.278C238.557 37.278 237.801 37.59 237.189 38.214C236.577 38.826 236.271 39.588 236.271 40.5C236.271 41.412 236.577 42.18 237.189 42.804C237.801 43.416 238.557 43.722 239.457 43.722ZM251.495 37.512H249.101V42.39C249.101 42.834 249.185 43.152 249.353 43.344C249.533 43.524 249.803 43.62 250.163 43.632C250.523 43.632 250.967 43.62 251.495 43.596V45C250.127 45.18 249.125 45.072 248.489 44.676C247.853 44.268 247.535 43.506 247.535 42.39V37.512H245.753V36H247.535V33.948L249.101 33.48V36H251.495V37.512ZM253.99 41.22C254.146 42.024 254.512 42.648 255.088 43.092C255.676 43.536 256.396 43.758 257.248 43.758C258.436 43.758 259.3 43.32 259.84 42.444L261.172 43.2C260.296 44.556 258.976 45.234 257.212 45.234C255.784 45.234 254.62 44.79 253.72 43.902C252.832 43.002 252.388 41.868 252.388 40.5C252.388 39.144 252.826 38.016 253.702 37.116C254.578 36.216 255.712 35.766 257.104 35.766C258.424 35.766 259.498 36.234 260.326 37.17C261.166 38.094 261.586 39.21 261.586 40.518C261.586 40.746 261.568 40.98 261.532 41.22H253.99ZM257.104 37.242C256.264 37.242 255.568 37.482 255.016 37.962C254.464 38.43 254.122 39.06 253.99 39.852H260.002C259.87 39 259.534 38.352 258.994 37.908C258.454 37.464 257.824 37.242 257.104 37.242ZM275.338 36H276.904V45H275.338V43.452C274.558 44.64 273.424 45.234 271.936 45.234C270.676 45.234 269.602 44.778 268.714 43.866C267.826 42.942 267.382 41.82 267.382 40.5C267.382 39.18 267.826 38.064 268.714 37.152C269.602 36.228 270.676 35.766 271.936 35.766C273.424 35.766 274.558 36.36 275.338 37.548V36ZM272.134 43.722C273.046 43.722 273.808 43.416 274.42 42.804C275.032 42.18 275.338 41.412 275.338 40.5C275.338 39.588 275.032 38.826 274.42 38.214C273.808 37.59 273.046 37.278 272.134 37.278C271.234 37.278 270.478 37.59 269.866 38.214C269.254 38.826 268.948 39.588 268.948 40.5C268.948 41.412 269.254 42.18 269.866 42.804C270.478 43.416 271.234 43.722 272.134 43.722ZM296.089 38.754V39.51C296.089 41.154 295.525 42.522 294.397 43.614C293.269 44.694 291.775 45.234 289.915 45.234C287.995 45.234 286.405 44.604 285.145 43.344C283.897 42.072 283.273 40.524 283.273 38.7C283.273 36.876 283.897 35.334 285.145 34.074C286.405 32.802 287.983 32.166 289.879 32.166C291.043 32.166 292.111 32.448 293.083 33.012C294.055 33.564 294.805 34.296 295.333 35.208L293.893 36.054C293.533 35.37 292.987 34.824 292.255 34.416C291.535 33.996 290.737 33.786 289.861 33.786C288.421 33.786 287.239 34.26 286.315 35.208C285.391 36.144 284.929 37.308 284.929 38.7C284.929 40.092 285.391 41.256 286.315 42.192C287.251 43.128 288.457 43.596 289.933 43.596C291.193 43.596 292.213 43.29 292.993 42.678C293.773 42.054 294.247 41.25 294.415 40.266H289.789V38.754H296.089ZM305.414 36H306.98V45H305.414V43.452C304.634 44.64 303.5 45.234 302.012 45.234C300.752 45.234 299.678 44.778 298.79 43.866C297.902 42.942 297.458 41.82 297.458 40.5C297.458 39.18 297.902 38.064 298.79 37.152C299.678 36.228 300.752 35.766 302.012 35.766C303.5 35.766 304.634 36.36 305.414 37.548V36ZM302.21 43.722C303.122 43.722 303.884 43.416 304.496 42.804C305.108 42.18 305.414 41.412 305.414 40.5C305.414 39.588 305.108 38.826 304.496 38.214C303.884 37.59 303.122 37.278 302.21 37.278C301.31 37.278 300.554 37.59 299.942 38.214C299.33 38.826 299.024 39.588 299.024 40.5C299.024 41.412 299.33 42.18 299.942 42.804C300.554 43.416 301.31 43.722 302.21 43.722ZM319.073 35.766C320.081 35.766 320.897 36.096 321.521 36.756C322.145 37.404 322.457 38.286 322.457 39.402V45H320.891V39.456C320.891 38.76 320.711 38.22 320.351 37.836C319.991 37.452 319.511 37.26 318.911 37.26C318.239 37.26 317.699 37.488 317.291 37.944C316.895 38.388 316.697 39.072 316.697 39.996V45H315.131V39.456C315.131 38.76 314.957 38.22 314.609 37.836C314.273 37.452 313.811 37.26 313.223 37.26C312.563 37.26 312.011 37.488 311.567 37.944C311.135 38.4 310.919 39.084 310.919 39.996V45H309.353V36H310.919V37.206C311.531 36.246 312.425 35.766 313.601 35.766C314.813 35.766 315.695 36.276 316.247 37.296C316.871 36.276 317.813 35.766 319.073 35.766ZM325.726 41.22C325.882 42.024 326.248 42.648 326.824 43.092C327.412 43.536 328.132 43.758 328.984 43.758C330.172 43.758 331.036 43.32 331.576 42.444L332.908 43.2C332.032 44.556 330.712 45.234 328.948 45.234C327.52 45.234 326.356 44.79 325.456 43.902C324.568 43.002 324.124 41.868 324.124 40.5C324.124 39.144 324.562 38.016 325.438 37.116C326.314 36.216 327.448 35.766 328.84 35.766C330.16 35.766 331.234 36.234 332.062 37.17C332.902 38.094 333.322 39.21 333.322 40.518C333.322 40.746 333.304 40.98 333.268 41.22H325.726ZM328.84 37.242C328 37.242 327.304 37.482 326.752 37.962C326.2 38.43 325.858 39.06 325.726 39.852H331.738C331.606 39 331.27 38.352 330.73 37.908C330.19 37.464 329.56 37.242 328.84 37.242ZM346.985 38.466C347.561 38.742 348.017 39.138 348.353 39.654C348.701 40.17 348.875 40.764 348.875 41.436C348.875 42.444 348.521 43.29 347.813 43.974C347.105 44.658 346.241 45 345.221 45H339.785V32.4H344.825C345.809 32.4 346.643 32.73 347.327 33.39C348.011 34.05 348.353 34.866 348.353 35.838C348.353 36.954 347.897 37.83 346.985 38.466ZM344.825 33.966H341.459V37.818H344.825C345.353 37.818 345.797 37.632 346.157 37.26C346.517 36.888 346.697 36.432 346.697 35.892C346.697 35.364 346.511 34.914 346.139 34.542C345.779 34.158 345.341 33.966 344.825 33.966ZM345.221 43.434C345.785 43.434 346.259 43.236 346.643 42.84C347.027 42.444 347.219 41.958 347.219 41.382C347.219 40.818 347.021 40.338 346.625 39.942C346.241 39.546 345.773 39.348 345.221 39.348H341.459V43.434H345.221ZM357.1 36H358.666V45H357.1V43.704C356.464 44.724 355.492 45.234 354.184 45.234C353.128 45.234 352.282 44.904 351.646 44.244C351.01 43.572 350.692 42.666 350.692 41.526V36H352.258V41.436C352.258 42.168 352.456 42.738 352.852 43.146C353.248 43.542 353.794 43.74 354.49 43.74C355.27 43.74 355.9 43.5 356.38 43.02C356.86 42.528 357.1 41.778 357.1 40.77V36ZM368.52 36H370.068V44.622C370.068 45.954 369.618 46.986 368.718 47.718C367.818 48.462 366.738 48.834 365.478 48.834C364.47 48.834 363.6 48.642 362.868 48.258C362.136 47.886 361.584 47.346 361.212 46.638L362.58 45.864C363.072 46.872 364.05 47.376 365.514 47.376C366.45 47.376 367.182 47.13 367.71 46.638C368.25 46.146 368.52 45.474 368.52 44.622V43.344C367.728 44.544 366.6 45.144 365.136 45.144C363.852 45.144 362.766 44.688 361.878 43.776C360.99 42.864 360.546 41.754 360.546 40.446C360.546 39.138 360.99 38.034 361.878 37.134C362.766 36.222 363.852 35.766 365.136 35.766C366.612 35.766 367.74 36.36 368.52 37.548V36ZM363.03 42.732C363.642 43.344 364.404 43.65 365.316 43.65C366.228 43.65 366.99 43.344 367.602 42.732C368.214 42.12 368.52 41.358 368.52 40.446C368.52 39.546 368.214 38.79 367.602 38.178C366.99 37.566 366.228 37.26 365.316 37.26C364.404 37.26 363.642 37.566 363.03 38.178C362.418 38.79 362.112 39.546 362.112 40.446C362.112 41.358 362.418 42.12 363.03 42.732ZM384.573 45L381.747 40.176H378.777V45H377.103V32.4H382.143C383.223 32.4 384.147 32.784 384.915 33.552C385.683 34.308 386.067 35.226 386.067 36.306C386.067 37.122 385.821 37.866 385.329 38.538C384.849 39.21 384.225 39.684 383.457 39.96L386.427 45H384.573ZM378.777 33.966V38.664H382.143C382.767 38.664 383.295 38.436 383.727 37.98C384.171 37.512 384.393 36.954 384.393 36.306C384.393 35.658 384.171 35.106 383.727 34.65C383.295 34.194 382.767 33.966 382.143 33.966H378.777ZM388.586 41.22C388.742 42.024 389.108 42.648 389.684 43.092C390.272 43.536 390.992 43.758 391.844 43.758C393.032 43.758 393.896 43.32 394.436 42.444L395.768 43.2C394.892 44.556 393.572 45.234 391.808 45.234C390.38 45.234 389.216 44.79 388.316 43.902C387.428 43.002 386.984 41.868 386.984 40.5C386.984 39.144 387.422 38.016 388.298 37.116C389.174 36.216 390.308 35.766 391.7 35.766C393.02 35.766 394.094 36.234 394.922 37.17C395.762 38.094 396.182 39.21 396.182 40.518C396.182 40.746 396.164 40.98 396.128 41.22H388.586ZM391.7 37.242C390.86 37.242 390.164 37.482 389.612 37.962C389.06 38.43 388.718 39.06 388.586 39.852H394.598C394.466 39 394.13 38.352 393.59 37.908C393.05 37.464 392.42 37.242 391.7 37.242ZM402.95 35.766C404.21 35.766 405.284 36.228 406.172 37.152C407.06 38.064 407.504 39.18 407.504 40.5C407.504 41.82 407.06 42.942 406.172 43.866C405.284 44.778 404.21 45.234 402.95 45.234C401.462 45.234 400.328 44.64 399.548 43.452V48.6H397.982V36H399.548V37.548C400.328 36.36 401.462 35.766 402.95 35.766ZM402.752 43.722C403.652 43.722 404.408 43.416 405.02 42.804C405.632 42.18 405.938 41.412 405.938 40.5C405.938 39.588 405.632 38.826 405.02 38.214C404.408 37.59 403.652 37.278 402.752 37.278C401.84 37.278 401.078 37.59 400.466 38.214C399.854 38.826 399.548 39.588 399.548 40.5C399.548 41.412 399.854 42.18 400.466 42.804C401.078 43.416 401.84 43.722 402.752 43.722ZM416.969 43.866C416.045 44.778 414.923 45.234 413.603 45.234C412.283 45.234 411.161 44.778 410.237 43.866C409.325 42.954 408.869 41.832 408.869 40.5C408.869 39.168 409.325 38.046 410.237 37.134C411.161 36.222 412.283 35.766 413.603 35.766C414.923 35.766 416.045 36.222 416.969 37.134C417.893 38.046 418.355 39.168 418.355 40.5C418.355 41.832 417.893 42.954 416.969 43.866ZM413.603 43.704C414.503 43.704 415.259 43.398 415.871 42.786C416.483 42.174 416.789 41.412 416.789 40.5C416.789 39.588 416.483 38.826 415.871 38.214C415.259 37.602 414.503 37.296 413.603 37.296C412.715 37.296 411.965 37.602 411.353 38.214C410.741 38.826 410.435 39.588 410.435 40.5C410.435 41.412 410.741 42.174 411.353 42.786C411.965 43.398 412.715 43.704 413.603 43.704ZM421.767 37.512C422.283 36.396 423.219 35.838 424.575 35.838V37.476C423.807 37.44 423.147 37.644 422.595 38.088C422.043 38.532 421.767 39.246 421.767 40.23V45H420.201V36H421.767V37.512ZM431.214 37.512H428.82V42.39C428.82 42.834 428.904 43.152 429.072 43.344C429.252 43.524 429.522 43.62 429.882 43.632C430.242 43.632 430.686 43.62 431.214 43.596V45C429.846 45.18 428.844 45.072 428.208 44.676C427.572 44.268 427.254 43.506 427.254 42.39V37.512H425.472V36H427.254V33.948L428.82 33.48V36H431.214V37.512Z" fill="#141414"/>
</g>
<defs>
<filter id="filter0_dddd_6972_37855" x="0" y="0" width="639" height="134" filterUnits="userSpaceOnUse" color-interpolation-filters="sRGB">
<feFlood flood-opacity="0" result="BackgroundImageFix"/>
<feColorMatrix in="SourceAlpha" type="matrix" values="0 0 0 0 0 0 0 0 0 0 0 0 0 0 0 0 0 0 127 0" result="hardAlpha"/>
<feOffset dy="3"/>
<feGaussianBlur stdDeviation="3"/>
<feColorMatrix type="matrix" values="0 0 0 0 0 0 0 0 0 0 0 0 0 0 0 0 0 0 0.1 0"/>
<feBlend mode="normal" in2="BackgroundImageFix" result="effect1_dropShadow_6972_37855"/>
<feColorMatrix in="SourceAlpha" type="matrix" values="0 0 0 0 0 0 0 0 0 0 0 0 0 0 0 0 0 0 127 0" result="hardAlpha"/>
<feOffset dy="11"/>
<feGaussianBlur stdDeviation="5.5"/>
<feColorMatrix type="matrix" values="0 0 0 0 0 0 0 0 0 0 0 0 0 0 0 0 0 0 0.09 0"/>
<feBlend mode="normal" in2="effect1_dropShadow_6972_37855" result="effect2_dropShadow_6972_37855"/>
<feColorMatrix in="SourceAlpha" type="matrix" values="0 0 0 0 0 0 0 0 0 0 0 0 0 0 0 0 0 0 127 0" result="hardAlpha"/>
<feOffset dy="24"/>
<feGaussianBlur stdDeviation="7"/>
<feColorMatrix type="matrix" values="0 0 0 0 0 0 0 0 0 0 0 0 0 0 0 0 0 0 0.05 0"/>
<feBlend mode="normal" in2="effect2_dropShadow_6972_37855" result="effect3_dropShadow_6972_37855"/>
<feColorMatrix in="SourceAlpha" type="matrix" values="0 0 0 0 0 0 0 0 0 0 0 0 0 0 0 0 0 0 127 0" result="hardAlpha"/>
<feOffset dy="42"/>
<feGaussianBlur stdDeviation="8.5"/>
<feColorMatrix type="matrix" values="0 0 0 0 0 0 0 0 0 0 0 0 0 0 0 0 0 0 0.01 0"/>
<feBlend mode="normal" in2="effect3_dropShadow_6972_37855" result="effect4_dropShadow_6972_37855"/>
<feBlend mode="normal" in="SourceGraphic" in2="effect4_dropShadow_6972_37855" result="shape"/>
</filter>
<filter id="filter1_d_6972_37855" x="565" y="21" width="36" height="36" filterUnits="userSpaceOnUse" color-interpolation-filters="sRGB">
<feFlood flood-opacity="0" result="BackgroundImageFix"/>
<feColorMatrix in="SourceAlpha" type="matrix" values="0 0 0 0 0 0 0 0 0 0 0 0 0 0 0 0 0 0 127 0" result="hardAlpha"/>
<feOffset/>
<feComposite in2="hardAlpha" operator="out"/>
<feColorMatrix type="matrix" values="0 0 0 0 0.121569 0 0 0 0 0.403922 0 0 0 0 0.266667 0 0 0 1 0"/>
<feBlend mode="normal" in2="BackgroundImageFix" result="effect1_dropShadow_6972_37855"/>
<feBlend mode="normal" in="SourceGraphic" in2="effect1_dropShadow_6972_37855" result="shape"/>
</filter>
<linearGradient id="paint0_linear_6972_37855" x1="589.136" y1="55.7727" x2="569.091" y2="16.9091" gradientUnits="userSpaceOnUse">
<stop stop-color="#11A85F"/>
<stop offset="1" stop-color="#1F6744"/>
</linearGradient>
<linearGradient id="paint1_linear_6972_37855" x1="583" y1="21" x2="583" y2="57" gradientUnits="userSpaceOnUse">
<stop stop-color="white" stop-opacity="0.3"/>
<stop offset="1" stop-color="white" stop-opacity="0"/>
</linearGradient>
</defs>
</svg>
