<svg width="639" height="95" viewBox="0 0 639 95" fill="none" xmlns="http://www.w3.org/2000/svg">
<g filter="url(#filter0_dddd_6972_37853)">
<rect x="17" y="3" width="605" height="72" rx="16" fill="white"/>
<rect x="17.5" y="3.5" width="604" height="71" rx="15.5" stroke="#F6F6F6"/>
<g filter="url(#filter1_d_6972_37853)">
<rect x="565.5" y="21.5" width="35" height="35" rx="7.5" fill="url(#paint0_linear_6972_37853)" stroke="url(#paint1_linear_6972_37853)" stroke-linecap="round"/>
</g>
<path d="M588.247 41.8211L589.652 37.608C590.878 33.9275 591.492 32.0873 590.52 31.1159C589.549 30.1445 587.709 30.7579 584.028 31.9847L579.815 33.3891C576.845 34.3793 575.359 34.8744 574.937 35.6004C574.536 36.291 574.536 37.144 574.937 37.8347C575.359 38.5607 576.845 39.0558 579.815 40.046C580.292 40.205 580.531 40.2845 580.73 40.4179C580.923 40.5472 581.089 40.7132 581.218 40.9064C581.352 41.1057 581.431 41.3442 581.59 41.8211C582.581 44.7916 583.076 46.2769 583.802 46.699C584.492 47.1005 585.345 47.1005 586.036 46.699C586.762 46.2769 587.257 44.7916 588.247 41.8211Z" stroke="white" stroke-width="1.5"/>
<path d="M586.36 36.3367C586.654 36.0455 586.657 35.5706 586.366 35.2761C586.075 34.9816 585.6 34.9789 585.305 35.2702L585.833 35.8035L586.36 36.3367ZM581.292 40.2935L581.82 40.8267L586.36 36.3367L585.833 35.8035L585.305 35.2702L580.765 39.7602L581.292 40.2935Z" fill="white"/>
<path d="M48.9791 45L47.9531 42.174H42.2831L41.2571 45H39.4751L44.1731 32.4H46.0631L50.7611 45H48.9791ZM42.8591 40.608H47.3771L45.1091 34.398L42.8591 40.608ZM53.3476 38.43C53.3476 38.778 53.5216 39.06 53.8696 39.276C54.2176 39.48 54.6376 39.648 55.1296 39.78C55.6216 39.9 56.1136 40.044 56.6056 40.212C57.0976 40.368 57.5176 40.644 57.8656 41.04C58.2136 41.424 58.3876 41.922 58.3876 42.534C58.3876 43.35 58.0696 44.004 57.4336 44.496C56.8096 44.988 56.0056 45.234 55.0216 45.234C54.1456 45.234 53.3956 45.042 52.7716 44.658C52.1476 44.274 51.7036 43.764 51.4396 43.128L52.7896 42.354C52.9336 42.786 53.2036 43.128 53.5996 43.38C53.9956 43.632 54.4696 43.758 55.0216 43.758C55.5376 43.758 55.9636 43.662 56.2996 43.47C56.6356 43.266 56.8036 42.954 56.8036 42.534C56.8036 42.186 56.6296 41.91 56.2816 41.706C55.9336 41.49 55.5136 41.322 55.0216 41.202C54.5296 41.07 54.0376 40.92 53.5456 40.752C53.0536 40.584 52.6336 40.308 52.2856 39.924C51.9376 39.54 51.7636 39.048 51.7636 38.448C51.7636 37.668 52.0636 37.026 52.6636 36.522C53.2756 36.018 54.0376 35.766 54.9496 35.766C55.6816 35.766 56.3296 35.934 56.8936 36.27C57.4696 36.594 57.9016 37.05 58.1896 37.638L56.8756 38.376C56.5516 37.608 55.9096 37.224 54.9496 37.224C54.5056 37.224 54.1276 37.332 53.8156 37.548C53.5036 37.752 53.3476 38.046 53.3476 38.43ZM67.7678 45H65.8238L61.7198 40.734V45H60.1538V32.4H61.7198V39.978L65.6078 36H67.6238L63.3218 40.356L67.7678 45ZM86.0361 38.754V39.51C86.0361 41.154 85.4721 42.522 84.3441 43.614C83.2161 44.694 81.7221 45.234 79.8621 45.234C77.9421 45.234 76.3521 44.604 75.0921 43.344C73.8441 42.072 73.2201 40.524 73.2201 38.7C73.2201 36.876 73.8441 35.334 75.0921 34.074C76.3521 32.802 77.9301 32.166 79.8261 32.166C80.9901 32.166 82.0581 32.448 83.0301 33.012C84.0021 33.564 84.7521 34.296 85.2801 35.208L83.8401 36.054C83.4801 35.37 82.9341 34.824 82.2021 34.416C81.4821 33.996 80.6841 33.786 79.8081 33.786C78.3681 33.786 77.1861 34.26 76.2621 35.208C75.3381 36.144 74.8761 37.308 74.8761 38.7C74.8761 40.092 75.3381 41.256 76.2621 42.192C77.1981 43.128 78.4041 43.596 79.8801 43.596C81.1401 43.596 82.1601 43.29 82.9401 42.678C83.7201 42.054 84.1941 41.25 84.3621 40.266H79.7361V38.754H86.0361ZM95.3617 36H96.9277V45H95.3617V43.452C94.5817 44.64 93.4477 45.234 91.9597 45.234C90.6997 45.234 89.6257 44.778 88.7377 43.866C87.8497 42.942 87.4057 41.82 87.4057 40.5C87.4057 39.18 87.8497 38.064 88.7377 37.152C89.6257 36.228 90.6997 35.766 91.9597 35.766C93.4477 35.766 94.5817 36.36 95.3617 37.548V36ZM92.1577 43.722C93.0697 43.722 93.8317 43.416 94.4437 42.804C95.0557 42.18 95.3617 41.412 95.3617 40.5C95.3617 39.588 95.0557 38.826 94.4437 38.214C93.8317 37.59 93.0697 37.278 92.1577 37.278C91.2577 37.278 90.5017 37.59 89.8897 38.214C89.2777 38.826 88.9717 39.588 88.9717 40.5C88.9717 41.412 89.2777 42.18 89.8897 42.804C90.5017 43.416 91.2577 43.722 92.1577 43.722ZM109.02 35.766C110.028 35.766 110.844 36.096 111.468 36.756C112.092 37.404 112.404 38.286 112.404 39.402V45H110.838V39.456C110.838 38.76 110.658 38.22 110.298 37.836C109.938 37.452 109.458 37.26 108.858 37.26C108.186 37.26 107.646 37.488 107.238 37.944C106.842 38.388 106.644 39.072 106.644 39.996V45H105.078V39.456C105.078 38.76 104.904 38.22 104.556 37.836C104.22 37.452 103.758 37.26 103.17 37.26C102.51 37.26 101.958 37.488 101.514 37.944C101.082 38.4 100.866 39.084 100.866 39.996V45H99.3003V36H100.866V37.206C101.478 36.246 102.372 35.766 103.548 35.766C104.76 35.766 105.642 36.276 106.194 37.296C106.818 36.276 107.76 35.766 109.02 35.766ZM115.674 41.22C115.83 42.024 116.196 42.648 116.772 43.092C117.36 43.536 118.08 43.758 118.932 43.758C120.12 43.758 120.984 43.32 121.524 42.444L122.856 43.2C121.98 44.556 120.66 45.234 118.896 45.234C117.468 45.234 116.304 44.79 115.404 43.902C114.516 43.002 114.072 41.868 114.072 40.5C114.072 39.144 114.51 38.016 115.386 37.116C116.262 36.216 117.396 35.766 118.788 35.766C120.108 35.766 121.182 36.234 122.01 37.17C122.85 38.094 123.27 39.21 123.27 40.518C123.27 40.746 123.252 40.98 123.216 41.22H115.674ZM118.788 37.242C117.948 37.242 117.252 37.482 116.7 37.962C116.148 38.43 115.806 39.06 115.674 39.852H121.686C121.554 39 121.218 38.352 120.678 37.908C120.138 37.464 119.508 37.242 118.788 37.242ZM129.804 32.4C130.968 32.4 131.934 32.79 132.702 33.57C133.482 34.338 133.872 35.298 133.872 36.45C133.872 37.59 133.482 38.55 132.702 39.33C131.934 40.11 130.968 40.5 129.804 40.5H126.906V45H125.232V32.4H129.804ZM129.804 38.934C130.5 38.934 131.076 38.7 131.532 38.232C131.988 37.752 132.216 37.158 132.216 36.45C132.216 35.73 131.988 35.136 131.532 34.668C131.076 34.2 130.5 33.966 129.804 33.966H126.906V38.934H129.804ZM142.453 36H144.019V45H142.453V43.452C141.673 44.64 140.539 45.234 139.051 45.234C137.791 45.234 136.717 44.778 135.829 43.866C134.941 42.942 134.497 41.82 134.497 40.5C134.497 39.18 134.941 38.064 135.829 37.152C136.717 36.228 137.791 35.766 139.051 35.766C140.539 35.766 141.673 36.36 142.453 37.548V36ZM139.249 43.722C140.161 43.722 140.923 43.416 141.535 42.804C142.147 42.18 142.453 41.412 142.453 40.5C142.453 39.588 142.147 38.826 141.535 38.214C140.923 37.59 140.161 37.278 139.249 37.278C138.349 37.278 137.593 37.59 136.981 38.214C136.369 38.826 136.063 39.588 136.063 40.5C136.063 41.412 136.369 42.18 136.981 42.804C137.593 43.416 138.349 43.722 139.249 43.722ZM150.622 45.234C149.266 45.234 148.138 44.784 147.238 43.884C146.338 42.972 145.888 41.844 145.888 40.5C145.888 39.156 146.338 38.034 147.238 37.134C148.138 36.222 149.266 35.766 150.622 35.766C151.51 35.766 152.308 35.982 153.016 36.414C153.724 36.834 154.252 37.404 154.6 38.124L153.286 38.88C153.058 38.4 152.704 38.016 152.224 37.728C151.756 37.44 151.222 37.296 150.622 37.296C149.722 37.296 148.966 37.602 148.354 38.214C147.754 38.826 147.454 39.588 147.454 40.5C147.454 41.4 147.754 42.156 148.354 42.768C148.966 43.38 149.722 43.686 150.622 43.686C151.222 43.686 151.762 43.548 152.242 43.272C152.722 42.984 153.088 42.6 153.34 42.12L154.672 42.894C154.288 43.602 153.736 44.172 153.016 44.604C152.296 45.024 151.498 45.234 150.622 45.234ZM165.632 37.512H163.238V42.39C163.238 42.834 163.322 43.152 163.49 43.344C163.67 43.524 163.94 43.62 164.3 43.632C164.66 43.632 165.104 43.62 165.632 43.596V45C164.264 45.18 163.262 45.072 162.626 44.676C161.99 44.268 161.672 43.506 161.672 42.39V37.512H159.89V36H161.672V33.948L163.238 33.48V36H165.632V37.512ZM174.625 43.866C173.701 44.778 172.579 45.234 171.259 45.234C169.939 45.234 168.817 44.778 167.893 43.866C166.981 42.954 166.525 41.832 166.525 40.5C166.525 39.168 166.981 38.046 167.893 37.134C168.817 36.222 169.939 35.766 171.259 35.766C172.579 35.766 173.701 36.222 174.625 37.134C175.549 38.046 176.011 39.168 176.011 40.5C176.011 41.832 175.549 42.954 174.625 43.866ZM171.259 43.704C172.159 43.704 172.915 43.398 173.527 42.786C174.139 42.174 174.445 41.412 174.445 40.5C174.445 39.588 174.139 38.826 173.527 38.214C172.915 37.602 172.159 37.296 171.259 37.296C170.371 37.296 169.621 37.602 169.009 38.214C168.397 38.826 168.091 39.588 168.091 40.5C168.091 41.412 168.397 42.174 169.009 42.786C169.621 43.398 170.371 43.704 171.259 43.704Z" fill="#6D6D6D"/>
<path d="M194.93 36H196.478V44.622C196.478 45.954 196.028 46.986 195.128 47.718C194.228 48.462 193.148 48.834 191.888 48.834C190.88 48.834 190.01 48.642 189.278 48.258C188.546 47.886 187.994 47.346 187.622 46.638L188.99 45.864C189.482 46.872 190.46 47.376 191.924 47.376C192.86 47.376 193.592 47.13 194.12 46.638C194.66 46.146 194.93 45.474 194.93 44.622V43.344C194.138 44.544 193.01 45.144 191.546 45.144C190.262 45.144 189.176 44.688 188.288 43.776C187.4 42.864 186.956 41.754 186.956 40.446C186.956 39.138 187.4 38.034 188.288 37.134C189.176 36.222 190.262 35.766 191.546 35.766C193.022 35.766 194.15 36.36 194.93 37.548V36ZM189.44 42.732C190.052 43.344 190.814 43.65 191.726 43.65C192.638 43.65 193.4 43.344 194.012 42.732C194.624 42.12 194.93 41.358 194.93 40.446C194.93 39.546 194.624 38.79 194.012 38.178C193.4 37.566 192.638 37.26 191.726 37.26C190.814 37.26 190.052 37.566 189.44 38.178C188.828 38.79 188.522 39.546 188.522 40.446C188.522 41.358 188.828 42.12 189.44 42.732ZM199.949 41.22C200.105 42.024 200.471 42.648 201.047 43.092C201.635 43.536 202.355 43.758 203.207 43.758C204.395 43.758 205.259 43.32 205.799 42.444L207.131 43.2C206.255 44.556 204.935 45.234 203.171 45.234C201.743 45.234 200.579 44.79 199.679 43.902C198.791 43.002 198.347 41.868 198.347 40.5C198.347 39.144 198.785 38.016 199.661 37.116C200.537 36.216 201.671 35.766 203.063 35.766C204.383 35.766 205.457 36.234 206.285 37.17C207.125 38.094 207.545 39.21 207.545 40.518C207.545 40.746 207.527 40.98 207.491 41.22H199.949ZM203.063 37.242C202.223 37.242 201.527 37.482 200.975 37.962C200.423 38.43 200.081 39.06 199.949 39.852H205.961C205.829 39 205.493 38.352 204.953 37.908C204.413 37.464 203.783 37.242 203.063 37.242ZM213.827 35.766C214.883 35.766 215.729 36.102 216.365 36.774C217.001 37.434 217.319 38.334 217.319 39.474V45H215.753V39.564C215.753 38.832 215.555 38.268 215.159 37.872C214.763 37.464 214.217 37.26 213.521 37.26C212.741 37.26 212.111 37.506 211.631 37.998C211.151 38.478 210.911 39.222 210.911 40.23V45H209.345V36H210.911V37.296C211.547 36.276 212.519 35.766 213.827 35.766ZM220.603 41.22C220.759 42.024 221.125 42.648 221.701 43.092C222.289 43.536 223.009 43.758 223.861 43.758C225.049 43.758 225.913 43.32 226.453 42.444L227.785 43.2C226.909 44.556 225.589 45.234 223.825 45.234C222.397 45.234 221.233 44.79 220.333 43.902C219.445 43.002 219.001 41.868 219.001 40.5C219.001 39.144 219.439 38.016 220.315 37.116C221.191 36.216 222.325 35.766 223.717 35.766C225.037 35.766 226.111 36.234 226.939 37.17C227.779 38.094 228.199 39.21 228.199 40.518C228.199 40.746 228.181 40.98 228.145 41.22H220.603ZM223.717 37.242C222.877 37.242 222.181 37.482 221.629 37.962C221.077 38.43 220.735 39.06 220.603 39.852H226.615C226.483 39 226.147 38.352 225.607 37.908C225.067 37.464 224.437 37.242 223.717 37.242ZM231.566 37.512C232.082 36.396 233.018 35.838 234.374 35.838V37.476C233.606 37.44 232.946 37.644 232.394 38.088C231.842 38.532 231.566 39.246 231.566 40.23V45H230V36H231.566V37.512ZM242.866 36H244.432V45H242.866V43.452C242.086 44.64 240.952 45.234 239.464 45.234C238.204 45.234 237.13 44.778 236.242 43.866C235.354 42.942 234.91 41.82 234.91 40.5C234.91 39.18 235.354 38.064 236.242 37.152C237.13 36.228 238.204 35.766 239.464 35.766C240.952 35.766 242.086 36.36 242.866 37.548V36ZM239.662 43.722C240.574 43.722 241.336 43.416 241.948 42.804C242.56 42.18 242.866 41.412 242.866 40.5C242.866 39.588 242.56 38.826 241.948 38.214C241.336 37.59 240.574 37.278 239.662 37.278C238.762 37.278 238.006 37.59 237.394 38.214C236.782 38.826 236.476 39.588 236.476 40.5C236.476 41.412 236.782 42.18 237.394 42.804C238.006 43.416 238.762 43.722 239.662 43.722ZM251.7 37.512H249.306V42.39C249.306 42.834 249.39 43.152 249.558 43.344C249.738 43.524 250.008 43.62 250.368 43.632C250.728 43.632 251.172 43.62 251.7 43.596V45C250.332 45.18 249.33 45.072 248.694 44.676C248.058 44.268 247.74 43.506 247.74 42.39V37.512H245.958V36H247.74V33.948L249.306 33.48V36H251.7V37.512ZM254.195 41.22C254.351 42.024 254.717 42.648 255.293 43.092C255.881 43.536 256.601 43.758 257.453 43.758C258.641 43.758 259.505 43.32 260.045 42.444L261.377 43.2C260.501 44.556 259.181 45.234 257.417 45.234C255.989 45.234 254.825 44.79 253.925 43.902C253.037 43.002 252.593 41.868 252.593 40.5C252.593 39.144 253.031 38.016 253.907 37.116C254.783 36.216 255.917 35.766 257.309 35.766C258.629 35.766 259.703 36.234 260.531 37.17C261.371 38.094 261.791 39.21 261.791 40.518C261.791 40.746 261.773 40.98 261.737 41.22H254.195ZM257.309 37.242C256.469 37.242 255.773 37.482 255.221 37.962C254.669 38.43 254.327 39.06 254.195 39.852H260.207C260.075 39 259.739 38.352 259.199 37.908C258.659 37.464 258.029 37.242 257.309 37.242ZM275.543 36H277.109V45H275.543V43.452C274.763 44.64 273.629 45.234 272.141 45.234C270.881 45.234 269.807 44.778 268.919 43.866C268.031 42.942 267.587 41.82 267.587 40.5C267.587 39.18 268.031 38.064 268.919 37.152C269.807 36.228 270.881 35.766 272.141 35.766C273.629 35.766 274.763 36.36 275.543 37.548V36ZM272.339 43.722C273.251 43.722 274.013 43.416 274.625 42.804C275.237 42.18 275.543 41.412 275.543 40.5C275.543 39.588 275.237 38.826 274.625 38.214C274.013 37.59 273.251 37.278 272.339 37.278C271.439 37.278 270.683 37.59 270.071 38.214C269.459 38.826 269.153 39.588 269.153 40.5C269.153 41.412 269.459 42.18 270.071 42.804C270.683 43.416 271.439 43.722 272.339 43.722ZM285.332 38.43C285.332 38.778 285.506 39.06 285.854 39.276C286.202 39.48 286.622 39.648 287.114 39.78C287.606 39.9 288.098 40.044 288.59 40.212C289.082 40.368 289.502 40.644 289.85 41.04C290.198 41.424 290.372 41.922 290.372 42.534C290.372 43.35 290.054 44.004 289.418 44.496C288.794 44.988 287.99 45.234 287.006 45.234C286.13 45.234 285.38 45.042 284.756 44.658C284.132 44.274 283.688 43.764 283.424 43.128L284.774 42.354C284.918 42.786 285.188 43.128 285.584 43.38C285.98 43.632 286.454 43.758 287.006 43.758C287.522 43.758 287.948 43.662 288.284 43.47C288.62 43.266 288.788 42.954 288.788 42.534C288.788 42.186 288.614 41.91 288.266 41.706C287.918 41.49 287.498 41.322 287.006 41.202C286.514 41.07 286.022 40.92 285.53 40.752C285.038 40.584 284.618 40.308 284.27 39.924C283.922 39.54 283.748 39.048 283.748 38.448C283.748 37.668 284.048 37.026 284.648 36.522C285.26 36.018 286.022 35.766 286.934 35.766C287.666 35.766 288.314 35.934 288.878 36.27C289.454 36.594 289.886 37.05 290.174 37.638L288.86 38.376C288.536 37.608 287.894 37.224 286.934 37.224C286.49 37.224 286.112 37.332 285.8 37.548C285.488 37.752 285.332 38.046 285.332 38.43ZM296.62 35.766C297.676 35.766 298.522 36.102 299.158 36.774C299.794 37.434 300.112 38.334 300.112 39.474V45H298.546V39.564C298.546 38.832 298.348 38.268 297.952 37.872C297.556 37.464 297.01 37.26 296.314 37.26C295.534 37.26 294.904 37.506 294.424 37.998C293.944 38.478 293.704 39.222 293.704 40.23V45H292.138V32.4H293.704V37.296C294.34 36.276 295.312 35.766 296.62 35.766ZM309.894 43.866C308.97 44.778 307.848 45.234 306.528 45.234C305.208 45.234 304.086 44.778 303.162 43.866C302.25 42.954 301.794 41.832 301.794 40.5C301.794 39.168 302.25 38.046 303.162 37.134C304.086 36.222 305.208 35.766 306.528 35.766C307.848 35.766 308.97 36.222 309.894 37.134C310.818 38.046 311.28 39.168 311.28 40.5C311.28 41.832 310.818 42.954 309.894 43.866ZM306.528 43.704C307.428 43.704 308.184 43.398 308.796 42.786C309.408 42.174 309.714 41.412 309.714 40.5C309.714 39.588 309.408 38.826 308.796 38.214C308.184 37.602 307.428 37.296 306.528 37.296C305.64 37.296 304.89 37.602 304.278 38.214C303.666 38.826 303.36 39.588 303.36 40.5C303.36 41.412 303.666 42.174 304.278 42.786C304.89 43.398 305.64 43.704 306.528 43.704ZM314.692 37.512C315.208 36.396 316.144 35.838 317.5 35.838V37.476C316.732 37.44 316.072 37.644 315.52 38.088C314.968 38.532 314.692 39.246 314.692 40.23V45H313.126V36H314.692V37.512ZM324.14 37.512H321.746V42.39C321.746 42.834 321.83 43.152 321.998 43.344C322.178 43.524 322.448 43.62 322.808 43.632C323.168 43.632 323.612 43.62 324.14 43.596V45C322.772 45.18 321.77 45.072 321.134 44.676C320.498 44.268 320.18 43.506 320.18 42.39V37.512H318.398V36H320.18V33.948L321.746 33.48V36H324.14V37.512ZM332.112 37.512C332.628 36.396 333.564 35.838 334.92 35.838V37.476C334.152 37.44 333.492 37.644 332.94 38.088C332.388 38.532 332.112 39.246 332.112 40.23V45H330.546V36H332.112V37.512ZM337.058 41.22C337.214 42.024 337.58 42.648 338.156 43.092C338.744 43.536 339.464 43.758 340.316 43.758C341.504 43.758 342.368 43.32 342.908 42.444L344.24 43.2C343.364 44.556 342.044 45.234 340.28 45.234C338.852 45.234 337.688 44.79 336.788 43.902C335.9 43.002 335.456 41.868 335.456 40.5C335.456 39.144 335.894 38.016 336.77 37.116C337.646 36.216 338.78 35.766 340.172 35.766C341.492 35.766 342.566 36.234 343.394 37.17C344.234 38.094 344.654 39.21 344.654 40.518C344.654 40.746 344.636 40.98 344.6 41.22H337.058ZM340.172 37.242C339.332 37.242 338.636 37.482 338.084 37.962C337.532 38.43 337.19 39.06 337.058 39.852H343.07C342.938 39 342.602 38.352 342.062 37.908C341.522 37.464 340.892 37.242 340.172 37.242ZM352.403 36H354.095L350.495 45H348.659L345.059 36H346.751L349.577 43.326L352.403 36ZM356.211 34.362C355.911 34.362 355.659 34.26 355.455 34.056C355.251 33.852 355.149 33.606 355.149 33.318C355.149 33.03 355.251 32.784 355.455 32.58C355.659 32.364 355.911 32.256 356.211 32.256C356.499 32.256 356.745 32.364 356.949 32.58C357.153 32.784 357.255 33.03 357.255 33.318C357.255 33.606 357.153 33.852 356.949 34.056C356.745 34.26 356.499 34.362 356.211 34.362ZM355.419 45V36H356.985V45H355.419ZM360.473 41.22C360.629 42.024 360.995 42.648 361.571 43.092C362.159 43.536 362.879 43.758 363.731 43.758C364.919 43.758 365.783 43.32 366.323 42.444L367.655 43.2C366.779 44.556 365.459 45.234 363.695 45.234C362.267 45.234 361.103 44.79 360.203 43.902C359.315 43.002 358.871 41.868 358.871 40.5C358.871 39.144 359.309 38.016 360.185 37.116C361.061 36.216 362.195 35.766 363.587 35.766C364.907 35.766 365.981 36.234 366.809 37.17C367.649 38.094 368.069 39.21 368.069 40.518C368.069 40.746 368.051 40.98 368.015 41.22H360.473ZM363.587 37.242C362.747 37.242 362.051 37.482 361.499 37.962C360.947 38.43 360.605 39.06 360.473 39.852H366.485C366.353 39 366.017 38.352 365.477 37.908C364.937 37.464 364.307 37.242 363.587 37.242ZM380.119 36H381.757L378.967 45H377.365L375.259 38.34L373.153 45H371.551L368.761 36H370.399L372.379 42.84L374.503 36H376.015L378.139 42.858L380.119 36ZM389.435 37.512C389.951 36.396 390.887 35.838 392.243 35.838V37.476C391.475 37.44 390.815 37.644 390.263 38.088C389.711 38.532 389.435 39.246 389.435 40.23V45H387.869V36H389.435V37.512ZM394.381 41.22C394.537 42.024 394.903 42.648 395.479 43.092C396.067 43.536 396.787 43.758 397.639 43.758C398.827 43.758 399.691 43.32 400.231 42.444L401.563 43.2C400.687 44.556 399.367 45.234 397.603 45.234C396.175 45.234 395.011 44.79 394.111 43.902C393.223 43.002 392.779 41.868 392.779 40.5C392.779 39.144 393.217 38.016 394.093 37.116C394.969 36.216 396.103 35.766 397.495 35.766C398.815 35.766 399.889 36.234 400.717 37.17C401.557 38.094 401.977 39.21 401.977 40.518C401.977 40.746 401.959 40.98 401.923 41.22H394.381ZM397.495 37.242C396.655 37.242 395.959 37.482 395.407 37.962C394.855 38.43 394.513 39.06 394.381 39.852H400.393C400.261 39 399.925 38.352 399.385 37.908C398.845 37.464 398.215 37.242 397.495 37.242ZM408.745 35.766C410.005 35.766 411.079 36.228 411.967 37.152C412.855 38.064 413.299 39.18 413.299 40.5C413.299 41.82 412.855 42.942 411.967 43.866C411.079 44.778 410.005 45.234 408.745 45.234C407.257 45.234 406.123 44.64 405.343 43.452V48.6H403.777V36H405.343V37.548C406.123 36.36 407.257 35.766 408.745 35.766ZM408.547 43.722C409.447 43.722 410.203 43.416 410.815 42.804C411.427 42.18 411.733 41.412 411.733 40.5C411.733 39.588 411.427 38.826 410.815 38.214C410.203 37.59 409.447 37.278 408.547 37.278C407.635 37.278 406.873 37.59 406.261 38.214C405.649 38.826 405.343 39.588 405.343 40.5C405.343 41.412 405.649 42.18 406.261 42.804C406.873 43.416 407.635 43.722 408.547 43.722ZM422.763 43.866C421.839 44.778 420.717 45.234 419.397 45.234C418.077 45.234 416.955 44.778 416.031 43.866C415.119 42.954 414.663 41.832 414.663 40.5C414.663 39.168 415.119 38.046 416.031 37.134C416.955 36.222 418.077 35.766 419.397 35.766C420.717 35.766 421.839 36.222 422.763 37.134C423.687 38.046 424.149 39.168 424.149 40.5C424.149 41.832 423.687 42.954 422.763 43.866ZM419.397 43.704C420.297 43.704 421.053 43.398 421.665 42.786C422.277 42.174 422.583 41.412 422.583 40.5C422.583 39.588 422.277 38.826 421.665 38.214C421.053 37.602 420.297 37.296 419.397 37.296C418.509 37.296 417.759 37.602 417.147 38.214C416.535 38.826 416.229 39.588 416.229 40.5C416.229 41.412 416.535 42.174 417.147 42.786C417.759 43.398 418.509 43.704 419.397 43.704ZM427.562 37.512C428.078 36.396 429.014 35.838 430.37 35.838V37.476C429.602 37.44 428.942 37.644 428.39 38.088C427.838 38.532 427.562 39.246 427.562 40.23V45H425.996V36H427.562V37.512ZM437.009 37.512H434.615V42.39C434.615 42.834 434.699 43.152 434.867 43.344C435.047 43.524 435.317 43.62 435.677 43.632C436.037 43.632 436.481 43.62 437.009 43.596V45C435.641 45.18 434.639 45.072 434.003 44.676C433.367 44.268 433.049 43.506 433.049 42.39V37.512H431.267V36H433.049V33.948L434.615 33.48V36H437.009V37.512Z" fill="#141414"/>
</g>
<defs>
<filter id="filter0_dddd_6972_37853" x="0" y="0" width="639" height="134" filterUnits="userSpaceOnUse" color-interpolation-filters="sRGB">
<feFlood flood-opacity="0" result="BackgroundImageFix"/>
<feColorMatrix in="SourceAlpha" type="matrix" values="0 0 0 0 0 0 0 0 0 0 0 0 0 0 0 0 0 0 127 0" result="hardAlpha"/>
<feOffset dy="3"/>
<feGaussianBlur stdDeviation="3"/>
<feColorMatrix type="matrix" values="0 0 0 0 0 0 0 0 0 0 0 0 0 0 0 0 0 0 0.1 0"/>
<feBlend mode="normal" in2="BackgroundImageFix" result="effect1_dropShadow_6972_37853"/>
<feColorMatrix in="SourceAlpha" type="matrix" values="0 0 0 0 0 0 0 0 0 0 0 0 0 0 0 0 0 0 127 0" result="hardAlpha"/>
<feOffset dy="11"/>
<feGaussianBlur stdDeviation="5.5"/>
<feColorMatrix type="matrix" values="0 0 0 0 0 0 0 0 0 0 0 0 0 0 0 0 0 0 0.09 0"/>
<feBlend mode="normal" in2="effect1_dropShadow_6972_37853" result="effect2_dropShadow_6972_37853"/>
<feColorMatrix in="SourceAlpha" type="matrix" values="0 0 0 0 0 0 0 0 0 0 0 0 0 0 0 0 0 0 127 0" result="hardAlpha"/>
<feOffset dy="24"/>
<feGaussianBlur stdDeviation="7"/>
<feColorMatrix type="matrix" values="0 0 0 0 0 0 0 0 0 0 0 0 0 0 0 0 0 0 0.05 0"/>
<feBlend mode="normal" in2="effect2_dropShadow_6972_37853" result="effect3_dropShadow_6972_37853"/>
<feColorMatrix in="SourceAlpha" type="matrix" values="0 0 0 0 0 0 0 0 0 0 0 0 0 0 0 0 0 0 127 0" result="hardAlpha"/>
<feOffset dy="42"/>
<feGaussianBlur stdDeviation="8.5"/>
<feColorMatrix type="matrix" values="0 0 0 0 0 0 0 0 0 0 0 0 0 0 0 0 0 0 0.01 0"/>
<feBlend mode="normal" in2="effect3_dropShadow_6972_37853" result="effect4_dropShadow_6972_37853"/>
<feBlend mode="normal" in="SourceGraphic" in2="effect4_dropShadow_6972_37853" result="shape"/>
</filter>
<filter id="filter1_d_6972_37853" x="565" y="21" width="36" height="36" filterUnits="userSpaceOnUse" color-interpolation-filters="sRGB">
<feFlood flood-opacity="0" result="BackgroundImageFix"/>
<feColorMatrix in="SourceAlpha" type="matrix" values="0 0 0 0 0 0 0 0 0 0 0 0 0 0 0 0 0 0 127 0" result="hardAlpha"/>
<feOffset/>
<feComposite in2="hardAlpha" operator="out"/>
<feColorMatrix type="matrix" values="0 0 0 0 0.121569 0 0 0 0 0.403922 0 0 0 0 0.266667 0 0 0 1 0"/>
<feBlend mode="normal" in2="BackgroundImageFix" result="effect1_dropShadow_6972_37853"/>
<feBlend mode="normal" in="SourceGraphic" in2="effect1_dropShadow_6972_37853" result="shape"/>
</filter>
<linearGradient id="paint0_linear_6972_37853" x1="589.136" y1="55.7727" x2="569.091" y2="16.9091" gradientUnits="userSpaceOnUse">
<stop stop-color="#11A85F"/>
<stop offset="1" stop-color="#1F6744"/>
</linearGradient>
<linearGradient id="paint1_linear_6972_37853" x1="583" y1="21" x2="583" y2="57" gradientUnits="userSpaceOnUse">
<stop stop-color="white" stop-opacity="0.3"/>
<stop offset="1" stop-color="white" stop-opacity="0"/>
</linearGradient>
</defs>
</svg>
