<svg preserveAspectRatio="none" width="100%" height="100%" overflow="visible" style="display: block;" viewBox="0 0 20 20" fill="none" xmlns="http://www.w3.org/2000/svg">
<g id="Icon">
<rect width="20" height="20" rx="4" fill="var(--fill-0, #F1FCF6)"/>
<g id="Vector">
<path fill-rule="evenodd" clip-rule="evenodd" d="M10.0001 7.51951C8.62969 7.51951 7.51872 8.63048 7.51872 10.0009C7.51872 11.3714 8.62969 12.4824 10.0001 12.4824C11.3706 12.4824 12.4816 11.3714 12.4816 10.0009C12.4816 8.63048 11.3706 7.51951 10.0001 7.51951ZM8.51129 10.0009C8.51129 9.17866 9.17787 8.51208 10.0001 8.51208C10.8224 8.51208 11.489 9.17866 11.489 10.0009C11.489 10.8232 10.8224 11.4898 10.0001 11.4898C9.17787 11.4898 8.51129 10.8232 8.51129 10.0009Z" fill="var(--fill-0, #6D6D6D)"/>
<path fill-rule="evenodd" clip-rule="evenodd" d="M10.0001 4.21094C7.01308 4.21094 5.00109 6.00034 3.83335 7.51743L3.81229 7.54479C3.54819 7.88777 3.30496 8.20367 3.13995 8.57719C2.96324 8.97718 2.88672 9.41313 2.88672 10.0009C2.88672 10.5887 2.96324 11.0247 3.13995 11.4247C3.30496 11.7982 3.5482 12.1141 3.81229 12.4571L3.83335 12.4844C5.00109 14.0015 7.01308 15.7909 10.0001 15.7909C12.9872 15.7909 14.9992 14.0015 16.167 12.4844L16.188 12.4571C16.4521 12.1141 16.6953 11.7982 16.8603 11.4247C17.0371 11.0247 17.1136 10.5887 17.1136 10.0009C17.1136 9.41313 17.0371 8.97718 16.8603 8.57719C16.6953 8.20366 16.4521 7.88776 16.188 7.54477L16.167 7.51743C14.9992 6.00034 12.9872 4.21094 10.0001 4.21094ZM4.61989 8.12286C5.6981 6.72209 7.45279 5.20351 10.0001 5.20351C12.5475 5.20351 14.3022 6.72209 15.3804 8.12286C15.6706 8.4999 15.8406 8.72519 15.9524 8.97829C16.0569 9.21483 16.121 9.50395 16.121 10.0009C16.121 10.4979 16.0569 10.787 15.9524 11.0236C15.8406 11.2767 15.6706 11.502 15.3804 11.879C14.3022 13.2798 12.5475 14.7984 10.0001 14.7984C7.45279 14.7984 5.6981 13.2798 4.61989 11.879C4.32968 11.502 4.15968 11.2767 4.04787 11.0236C3.94337 10.787 3.87929 10.4979 3.87929 10.0009C3.87929 9.50395 3.94337 9.21483 4.04787 8.97829C4.15968 8.72519 4.32968 8.4999 4.61989 8.12286Z" fill="var(--fill-0, #6D6D6D)"/>
</g>
</g>
</svg>
