<svg version="1.2" xmlns="http://www.w3.org/2000/svg" viewBox="0 0 40 40" width="40" height="40">
	<title>appstore-p-svg</title>
	<style>
		.s0 { fill: #000000 } 
	</style>
	<path id="path2" fill-rule="evenodd" class="s0" d="m32 0c4.4 0 8 3.6 8 8v24c0 4.4-3.6 8-8 8h-24c-4.4 0-8-3.6-8-8v-24c0-4.4 3.6-8 8-8zm-15.5 7.1c-0.8 0.5-1.1 1.6-0.6 2.5l1.8 3.2-5.9 10.3h-4.6c-1.1 0-1.9 0.8-1.9 1.8 0 1 0.8 1.9 1.9 1.9h16.5c0.8-1.5-0.2-3.7-2.1-3.7h-5.6l7.8-13.5c0.5-0.9 0.2-2-0.7-2.5-0.8-0.5-2-0.2-2.5 0.7l-0.8 1.4-0.8-1.4c-0.3-0.6-0.9-0.9-1.4-0.9q-0.6-0.1-1.1 0.2zm5.4 12.9q2.2 3.9 6.7 11.7c0.5 0.8 1.6 1.1 2.5 0.6 0.9-0.5 1.2-1.6 0.7-2.5l-1.8-3h2.6c1 0 1.8-0.8 1.8-1.9 0-1-0.8-1.8-1.8-1.8h-4.7q-3.6-6.2-5.4-9.2c-1.1 0.8-2.1 3.5-0.6 6.1zm-12.7 7.6l-1.3 2.2c-0.5 0.9-0.2 2 0.7 2.5 0.8 0.5 2 0.2 2.5-0.6l1.7-3.1q-1-1.3-2.6-1.2-0.5 0-1 0.2z"/>
</svg>