<svg version="1.2" xmlns="http://www.w3.org/2000/svg" viewBox="0 0 40 40" width="40" height="40">
	<title>googleplay-svg</title>
	<style>
		.s0 { fill: #000000 } 
	</style>
	<path class="s0" d="m35.7 16.1l-7.2-3.7-8.2 7.6 8.3 7.6 7-3.6q0.8-0.4 1.4-1.1 0.5-0.7 0.8-1.5 0.3-0.9 0.2-1.8-0.1-0.8-0.5-1.6-0.2-0.3-0.4-0.6-0.2-0.3-0.4-0.5-0.2-0.2-0.5-0.4-0.3-0.2-0.6-0.4z"/>
	<path class="s0" d="m18.8 21.8l-15.8 15.9c0 0 0 0.5 0.1 0.8 0 0 1 0.8 1.7 1.1q1 0.4 2 0.4 1.1-0.1 2-0.6l17.7-9.8z"/>
	<path class="s0" d="m1.1 35.7l16.4-15.7-16.6-15.6c0 0.1 0.2 31.2 0.2 31.3z"/>
	<path class="s0" d="m3 1.9l15.8 16.1 7.7-7.6-17.7-9.8q-0.2-0.1-0.5-0.2-0.3-0.2-0.6-0.2-0.3-0.1-0.6-0.2-0.3 0-0.6 0-0.7 0-1.4 0.2c-0.5 0.2-0.7 0.3-1.1 0.5-0.4 0.4-0.8 0.8-1 1.2z"/>
</svg>