<?xml version="1.0" encoding="UTF-8"?>
<!DOCTYPE svg PUBLIC "-//W3C//DTD SVG 1.1//EN" "http://www.w3.org/Graphics/SVG/1.1/DTD/svg11.dtd">
<!-- Creator: CorelDRAW X8 -->
<svg xmlns="http://www.w3.org/2000/svg" xml:space="preserve" width="100%" height="100%" version="1.1" style="shape-rendering:geometricPrecision; text-rendering:geometricPrecision; image-rendering:optimizeQuality; fill-rule:evenodd; clip-rule:evenodd"
viewBox="0 0 2540 486"
 xmlns:xlink="http://www.w3.org/1999/xlink">
 <defs>
  <style type="text/css">
   <![CDATA[
    .fil1 {fill:#FF1053}
    .fil0 {fill:#092139;fill-rule:nonzero}
   ]]>
  </style>
 </defs>
 <g id="Layer_x0020_1">
  <metadata id="CorelCorpID_0Corel-Layer"/>
  <g id="_1862362841072">
   <path class="fil0" d="M91 121l-19 102 109 0c-5,30 -10,57 -12,65 -4,20 -11,35 -29,35 -17,0 -27,-12 -23,-32l-114 0c-16,85 41,139 118,139 103,0 145,-51 163,-142 17,-92 31,-167 31,-167l-224 0z"/>
   <polygon class="fil0" points="592,211 608,121 354,121 299,421 553,421 569,331 430,331 433,312 560,312 575,230 449,230 452,211 "/>
   <polygon class="fil0" points="982,121 643,121 626,211 720,211 681,421 795,421 834,211 933,211 "/>
   <polygon class="fil0" points="2540,121 2239,121 2223,211 2317,211 2277,421 2392,421 2431,211 2523,211 "/>
   <path class="fil0" d="M1128 421l123 0 -63 -300 -155 0 -163 300 131 0 22 -47 98 0 7 47zm-62 -137l28 -61 6 0 9 61 -43 0z"/>
   <path class="fil0" d="M1479 121c-1,0 -145,0 -145,0l-56 300 115 0 12 -67c9,0 39,0 41,0 61,0 99,-19 122,-53l-51 -69 9 -8 59 -50c-16,-33 -53,-53 -106,-53zm1 116c-2,18 -14,23 -36,23 -6,0 -14,0 -21,0l8 -45c9,0 17,0 22,0 22,0 30,6 27,22z"/>
   <polygon class="fil0" points="2079,319 2116,121 2001,121 1991,176 2049,255 1963,328 1945,421 2214,421 2233,319 "/>
   <path class="fil1" d="M1830 0l-145 123 87 0 -37 195c-1,3 2,6 5,6l53 0c3,0 7,-3 8,-6l36 -195 83 0 -90 -123zm-174 147l-104 89 75 101c-1,-15 0,-32 3,-52 12,-61 21,-110 26,-138zm33 275l47 64 72 -60c-16,3 -34,5 -54,5 -26,0 -47,-3 -65,-9zm212 -76l114 -95 -72 -98c-5,29 -14,76 -24,132 -5,23 -10,44 -18,61z"/>
  </g>
 </g>
</svg>
