<svg width="16" height="15" viewBox="0 0 16 15" fill="none" xmlns="http://www.w3.org/2000/svg">
<path d="M15.6902 13.2483L11.7527 5.37328C11.706 5.27986 11.6342 5.2013 11.5453 5.14639C11.4565 5.09148 11.3541 5.0624 11.2496 5.0624C11.1452 5.0624 11.0428 5.09148 10.954 5.14639C10.8651 5.2013 10.7933 5.27986 10.7466 5.37328L9.22008 8.42695C8.02357 8.35967 6.87234 7.94637 5.90625 7.23727C7.03975 6.02681 7.72654 4.46598 7.8532 2.8125H9.5625C9.71168 2.8125 9.85476 2.75324 9.96025 2.64775C10.0657 2.54226 10.125 2.39918 10.125 2.25C10.125 2.10082 10.0657 1.95774 9.96025 1.85225C9.85476 1.74676 9.71168 1.6875 9.5625 1.6875H5.625V0.5625C5.625 0.413316 5.56574 0.270242 5.46025 0.164752C5.35476 0.0592632 5.21168 0 5.0625 0C4.91332 0 4.77024 0.0592632 4.66475 0.164752C4.55926 0.270242 4.5 0.413316 4.5 0.5625V1.6875H0.5625C0.413316 1.6875 0.270242 1.74676 0.164752 1.85225C0.0592632 1.95774 0 2.10082 0 2.25C0 2.39918 0.0592632 2.54226 0.164752 2.64775C0.270242 2.75324 0.413316 2.8125 0.5625 2.8125H6.72398C6.5987 4.19108 6.01352 5.4875 5.0625 6.49336C4.46988 5.86805 4.0148 5.12554 3.72656 4.31367C3.70286 4.24284 3.66529 4.17743 3.61604 4.12127C3.56679 4.06511 3.50685 4.01933 3.43972 3.98658C3.37258 3.95384 3.2996 3.93479 3.22502 3.93056C3.15045 3.92632 3.07578 3.93698 3.00537 3.96191C2.93496 3.98685 2.87022 4.02555 2.81492 4.07578C2.75963 4.126 2.7149 4.18673 2.68333 4.25443C2.65176 4.32212 2.634 4.39543 2.63106 4.47007C2.62813 4.5447 2.64009 4.61918 2.66625 4.68914C3.00183 5.63827 3.53044 6.50756 4.21875 7.24219C3.15897 8.02096 1.87764 8.43985 0.5625 8.4375C0.413316 8.4375 0.270242 8.49676 0.164752 8.60225C0.0592632 8.70774 0 8.85082 0 9C0 9.14918 0.0592632 9.29226 0.164752 9.39775C0.270242 9.50324 0.413316 9.5625 0.5625 9.5625C2.19416 9.56432 3.77906 9.01753 5.0625 8.01C6.10986 8.82835 7.36014 9.3463 8.67937 9.50836L6.80906 13.2483C6.77601 13.3143 6.75629 13.3863 6.75103 13.46C6.74577 13.5337 6.75508 13.6077 6.77842 13.6777C6.82556 13.8193 6.927 13.9363 7.06043 14.0031C7.19386 14.0698 7.34834 14.0809 7.48989 14.0337C7.63144 13.9866 7.74847 13.8851 7.81523 13.7517L8.78484 11.8125H13.7145L14.6841 13.7517C14.7308 13.8452 14.8027 13.9238 14.8916 13.9786C14.9805 14.0335 15.083 14.0626 15.1875 14.0625C15.2834 14.0624 15.3776 14.0379 15.4614 13.9912C15.5451 13.9444 15.6154 13.8771 15.6658 13.7955C15.7162 13.7139 15.7449 13.6208 15.7491 13.5251C15.7534 13.4293 15.7331 13.334 15.6902 13.2483ZM9.34734 10.6875L11.25 6.88289L13.152 10.6875H9.34734Z" fill="#6D6D6D"/>
</svg>
