<svg width="14" height="14" viewBox="0 0 14 14" fill="none" xmlns="http://www.w3.org/2000/svg">
<path d="M13.7074 0.292666C13.5817 0.166999 13.4247 0.0771254 13.2527 0.032304C13.0807 -0.0125174 12.8998 -0.0106664 12.7287 0.0376662H12.7193L0.723074 3.67767C0.528321 3.73379 0.35522 3.84777 0.226711 4.0045C0.0982012 4.16123 0.0203499 4.35331 0.00347341 4.55529C-0.0134031 4.75727 0.031492 4.9596 0.132209 5.13549C0.232927 5.31137 0.384711 5.4525 0.567449 5.54017L5.87495 8.12517L8.4562 13.4295C8.53648 13.6009 8.66413 13.7456 8.82405 13.8468C8.98397 13.9479 9.16949 14.0011 9.3587 14.0002C9.38745 14.0002 9.4162 13.9989 9.44495 13.9964C9.64676 13.9801 9.83875 13.9024 9.99515 13.7738C10.1516 13.6452 10.2649 13.4719 10.3199 13.277L13.9574 1.28079C13.9574 1.27767 13.9574 1.27454 13.9574 1.27142C14.0064 1.10077 14.0091 0.920163 13.9651 0.748153C13.9212 0.576143 13.8322 0.418931 13.7074 0.292666ZM9.36432 12.9908L9.3612 12.9995V12.9952L6.85745 7.85142L9.85745 4.85142C9.94726 4.75689 9.99659 4.63101 9.99492 4.50063C9.99325 4.37025 9.94071 4.24568 9.84851 4.15348C9.75631 4.06128 9.63174 4.00874 9.50136 4.00707C9.37098 4.0054 9.2451 4.05473 9.15057 4.14454L6.15057 7.14454L1.00495 4.64079H1.00057H1.00932L12.9999 1.00017L9.36432 12.9908Z" fill="white"/>
</svg>
