<svg width="16" height="16" viewBox="0 0 16 16" fill="none" xmlns="http://www.w3.org/2000/svg">
<path d="M12.3513 8.06625L9.12754 6.875L7.94004 3.64875C7.86972 3.45771 7.74249 3.29283 7.57552 3.17637C7.40854 3.0599 7.20987 2.99746 7.00629 2.99746C6.80271 2.99746 6.60404 3.0599 6.43707 3.17637C6.27009 3.29283 6.14286 3.45771 6.07254 3.64875L4.87754 6.875L1.65129 8.0625C1.46025 8.13282 1.29537 8.26005 1.17891 8.42702C1.06244 8.594 1 8.79267 1 8.99625C1 9.19983 1.06244 9.3985 1.17891 9.56548C1.29537 9.73245 1.46025 9.85968 1.65129 9.93L4.87754 11.125L6.06504 14.3512C6.13536 14.5423 6.26259 14.7072 6.42957 14.8236C6.59654 14.9401 6.79522 15.0025 6.99879 15.0025C7.20237 15.0025 7.40104 14.9401 7.56802 14.8236C7.73499 14.7072 7.86222 14.5423 7.93254 14.3512L9.12754 11.125L12.3538 9.9375C12.5448 9.86718 12.7097 9.73995 12.8262 9.57298C12.9426 9.406 13.0051 9.20733 13.0051 9.00375C13.0051 8.80017 12.9426 8.6015 12.8262 8.43452C12.7097 8.26755 12.5448 8.14032 12.3538 8.07L12.3513 8.06625ZM8.56504 10.2638C8.49717 10.2888 8.43554 10.3282 8.38439 10.3793C8.33324 10.4305 8.2938 10.4921 8.26879 10.56L7.00254 13.9906L5.73879 10.5625C5.71382 10.4939 5.67413 10.4316 5.62252 10.38C5.57091 10.3284 5.50863 10.2887 5.44004 10.2638L2.01192 9L5.44004 7.73625C5.50863 7.71128 5.57091 7.67159 5.62252 7.61998C5.67413 7.56837 5.71382 7.50608 5.73879 7.4375L7.00254 4.00938L8.26629 7.4375C8.2913 7.50537 8.33074 7.567 8.38189 7.61815C8.43304 7.6693 8.49467 7.70874 8.56254 7.73375L11.9932 9L8.56504 10.2638ZM9.00254 2.5C9.00254 2.36739 9.05522 2.24021 9.14899 2.14645C9.24275 2.05268 9.36993 2 9.50254 2H10.5025V1C10.5025 0.867392 10.5552 0.740215 10.649 0.646447C10.7428 0.552678 10.8699 0.5 11.0025 0.5C11.1351 0.5 11.2623 0.552678 11.3561 0.646447C11.4499 0.740215 11.5025 0.867392 11.5025 1V2H12.5025C12.6351 2 12.7623 2.05268 12.8561 2.14645C12.9499 2.24021 13.0025 2.36739 13.0025 2.5C13.0025 2.63261 12.9499 2.75979 12.8561 2.85355C12.7623 2.94732 12.6351 3 12.5025 3H11.5025V4C11.5025 4.13261 11.4499 4.25979 11.3561 4.35355C11.2623 4.44732 11.1351 4.5 11.0025 4.5C10.8699 4.5 10.7428 4.44732 10.649 4.35355C10.5552 4.25979 10.5025 4.13261 10.5025 4V3H9.50254C9.36993 3 9.24275 2.94732 9.14899 2.85355C9.05522 2.75979 9.00254 2.63261 9.00254 2.5ZM15.5025 5.5C15.5025 5.63261 15.4499 5.75979 15.3561 5.85355C15.2623 5.94732 15.1351 6 15.0025 6H14.5025V6.5C14.5025 6.63261 14.4499 6.75979 14.3561 6.85355C14.2623 6.94732 14.1351 7 14.0025 7C13.8699 7 13.7428 6.94732 13.649 6.85355C13.5552 6.75979 13.5025 6.63261 13.5025 6.5V6H13.0025C12.8699 6 12.7428 5.94732 12.649 5.85355C12.5552 5.75979 12.5025 5.63261 12.5025 5.5C12.5025 5.36739 12.5552 5.24021 12.649 5.14645C12.7428 5.05268 12.8699 5 13.0025 5H13.5025V4.5C13.5025 4.36739 13.5552 4.24021 13.649 4.14645C13.7428 4.05268 13.8699 4 14.0025 4C14.1351 4 14.2623 4.05268 14.3561 4.14645C14.4499 4.24021 14.5025 4.36739 14.5025 4.5V5H15.0025C15.1351 5 15.2623 5.05268 15.3561 5.14645C15.4499 5.24021 15.5025 5.36739 15.5025 5.5Z" fill="#6D6D6D"/>
</svg>
